SplineFontDB: 3.0
FontName: VastShadow-Regular
FullName: Vast Shadow Regular
FamilyName: Vast Shadow
Weight: Regular
Copyright: Copyright (c) 2010 by Sorkin Type Co with Reserved Font Name Vast and Vast Shadow.\n\nThis Font Software is licensed under the SIL Open Font License, Version 1.1. This license is copied below, and is also available with a FAQ at: http://scripts.sil.org/OFL
Version: 1.002
ItalicAngle: 0
UnderlinePosition: -222
UnderlineWidth: 135
Ascent: 1638
Descent: 410
sfntRevision: 0x00010083
LayerCount: 2
Layer: 0 1 "Back"  1
Layer: 1 1 "Fore"  0
XUID: [1021 288 713564382 5647578]
FSType: 0
OS2Version: 3
OS2_WeightWidthSlopeOnly: 0
OS2_UseTypoMetrics: 1
CreationTime: 1318138680
ModificationTime: 1318253212
PfmFamily: 17
TTFWeight: 400
TTFWidth: 5
LineGap: 0
VLineGap: 0
Panose: 2 0 0 0 0 0 0 0 0 0
OS2TypoAscent: 237
OS2TypoAOffset: 1
OS2TypoDescent: -275
OS2TypoDOffset: 1
OS2TypoLinegap: 0
OS2WinAscent: 0
OS2WinAOffset: 1
OS2WinDescent: -2
OS2WinDOffset: 1
HheadAscent: 0
HheadAOffset: 1
HheadDescent: 0
HheadDOffset: 1
OS2SubXSize: 1434
OS2SubYSize: 1331
OS2SubXOff: 0
OS2SubYOff: 287
OS2SupXSize: 1434
OS2SupYSize: 1331
OS2SupXOff: 0
OS2SupYOff: 977
OS2StrikeYSize: 273
OS2StrikeYPos: 603
OS2Vendor: 'STC '
OS2CodePages: 20000111.40000000
OS2UnicodeRanges: 800000af.00000002.00000000.00000000
MarkAttachClasses: 1
DEI: 91125
TtTable: prep
PUSHW_1
 511
SCANCTRL
PUSHB_1
 4
SVTCA[y-axis]
EndTTInstrs
ShortTable: maxp 16
  1
  0
  235
  222
  14
  0
  0
  1
  0
  0
  0
  0
  0
  0
  0
  0
EndShort

StartChar: exclam
Encoding: 33 33 4
Width: 653
GlyphClass: 2
Flags: W
LayerCount: 2
Fore
SplineSet
210 510 m 1,0,1
 205 541 205 541 200 586.5 c 128,-1,2
 195 632 195 632 190.5 684.5 c 128,-1,3
 186 737 186 737 182.5 794.5 c 128,-1,4
 179 852 179 852 176 907.5 c 128,-1,5
 173 963 173 963 171.5 1014 c 128,-1,6
 170 1065 170 1065 170 1105 c 2,7,-1
 170 1295 l 1,8,-1
 461 1295 l 1,9,-1
 461 1105 l 2,10,11
 461 1029 461 1029 457 944 c 128,-1,12
 453 859 453 859 446 778 c 128,-1,13
 439 697 439 697 431 626.5 c 128,-1,14
 423 556 423 556 415 510 c 1,15,-1
 210 510 l 1,0,1
270 440 m 1,16,-1
 479 440 l 1,17,18
 505 615 505 615 519 777 c 128,-1,19
 533 939 533 939 533 1100 c 2,20,-1
 533 1239 l 1,21,-1
 573 1239 l 1,22,-1
 573 1107 l 2,23,24
 573 1012 573 1012 569 925 c 128,-1,25
 565 838 565 838 557.5 752.5 c 128,-1,26
 550 667 550 667 539.5 581 c 128,-1,27
 529 495 529 495 515 402 c 1,28,-1
 270 402 l 1,29,-1
 270 440 l 1,16,-1
155 260 m 1,30,-1
 480 260 l 1,31,-1
 480 0 l 1,32,-1
 155 0 l 1,33,-1
 155 260 l 1,30,-1
552 -70 m 1,34,-1
 552 204 l 1,35,-1
 592 204 l 1,36,-1
 592 -108 l 1,37,-1
 215 -108 l 1,38,-1
 215 -70 l 1,39,-1
 552 -70 l 1,34,-1
EndSplineSet
EndChar

StartChar: quotedbl
Encoding: 34 34 5
Width: 1063
GlyphClass: 2
Flags: W
LayerCount: 2
Fore
SplineSet
635 1245 m 1,0,-1
 860 1245 l 1,1,-1
 830 770 l 1,2,-1
 665 770 l 1,3,-1
 635 1245 l 1,0,-1
155 1245 m 1,4,-1
 380 1245 l 1,5,-1
 350 770 l 1,6,-1
 185 770 l 1,7,-1
 155 1245 l 1,4,-1
725 700 m 1,8,-1
 893 700 l 1,9,-1
 933 1194 l 1,10,-1
 973 1194 l 1,11,-1
 932 662 l 1,12,-1
 726 662 l 1,13,-1
 725 700 l 1,8,-1
246 700 m 1,14,-1
 413 700 l 1,15,-1
 453 1194 l 1,16,-1
 493 1194 l 1,17,-1
 452 662 l 1,18,-1
 246 662 l 1,19,-1
 246 700 l 1,14,-1
EndSplineSet
EndChar

StartChar: numbersign
Encoding: 35 35 6
Width: 1751
GlyphClass: 2
Flags: W
LayerCount: 2
Fore
SplineSet
345 441 m 1,0,-1
 100 441 l 1,1,-1
 153 566 l 1,2,-1
 398 566 l 1,3,-1
 494 791 l 1,4,-1
 242 791 l 1,5,-1
 295 916 l 1,6,-1
 548 916 l 1,7,-1
 722 1325 l 1,8,-1
 937 1325 l 1,9,-1
 763 916 l 1,10,-1
 1098 916 l 1,11,-1
 1272 1325 l 1,12,-1
 1487 1325 l 1,13,-1
 1313 916 l 1,14,-1
 1571 916 l 1,15,-1
 1518 791 l 1,16,-1
 1259 791 l 1,17,-1
 1163 566 l 1,18,-1
 1429 566 l 1,19,-1
 1376 441 l 1,20,-1
 1110 441 l 1,21,-1
 923 0 l 1,22,-1
 708 0 l 1,23,-1
 895 441 l 1,24,-1
 560 441 l 1,25,-1
 373 0 l 1,26,-1
 158 0 l 1,27,-1
 345 441 l 1,0,-1
1547 1274 m 1,28,-1
 1590 1274 l 1,29,-1
 1463 976 l 1,30,-1
 1420 976 l 1,31,-1
 1547 1274 l 1,28,-1
997 1274 m 1,32,-1
 1040 1274 l 1,33,-1
 913 976 l 1,34,-1
 870 976 l 1,35,-1
 997 1274 l 1,32,-1
1312 721 m 1,36,-1
 1567 721 l 1,37,-1
 1627 860 l 1,38,-1
 1671 860 l 1,39,-1
 1596 683 l 1,40,-1
 1338 683 l 1,41,-1
 1314 626 l 1,42,-1
 1271 626 l 1,43,-1
 1312 721 l 1,36,-1
948 566 m 1,44,-1
 1044 791 l 1,45,-1
 709 791 l 1,46,-1
 613 566 l 1,47,-1
 948 566 l 1,44,-1
762 721 m 1,48,-1
 973 721 l 1,49,-1
 957 683 l 1,50,-1
 788 683 l 1,51,-1
 764 626 l 1,52,-1
 721 626 l 1,53,-1
 762 721 l 1,48,-1
314 721 m 1,54,-1
 423 721 l 1,55,-1
 407 683 l 1,56,-1
 298 683 l 1,57,-1
 314 721 l 1,54,-1
777 -70 m 1,58,-1
 975 -70 l 1,59,-1
 1163 371 l 1,60,-1
 1425 371 l 1,61,-1
 1485 510 l 1,62,-1
 1529 510 l 1,63,-1
 1454 333 l 1,64,-1
 1189 333 l 1,65,-1
 1002 -108 l 1,66,-1
 760 -108 l 1,67,-1
 777 -70 l 1,58,-1
227 -70 m 1,68,-1
 425 -70 l 1,69,-1
 613 371 l 1,70,-1
 824 371 l 1,71,-1
 808 333 l 1,72,-1
 640 333 l 1,73,-1
 452 -108 l 1,74,-1
 210 -108 l 1,75,-1
 227 -70 l 1,68,-1
172 371 m 1,76,-1
 274 371 l 1,77,-1
 258 333 l 1,78,-1
 156 333 l 1,79,-1
 172 371 l 1,76,-1
EndSplineSet
EndChar

StartChar: dollar
Encoding: 36 36 7
Width: 1827
GlyphClass: 2
Flags: W
LayerCount: 2
Fore
SplineSet
180 360 m 1,0,-1
 385 360 l 1,1,2
 484 273 484 273 592 221.5 c 128,-1,3
 700 170 700 170 818 147 c 1,4,-1
 818 544 l 1,5,-1
 806 546 l 1,6,7
 638 562 638 562 519.5 599 c 128,-1,8
 401 636 401 636 325.5 687.5 c 128,-1,9
 250 739 250 739 215 803 c 128,-1,10
 180 867 180 867 180 938 c 0,11,12
 180 1004 180 1004 216 1065.5 c 128,-1,13
 252 1127 252 1127 323.5 1174.5 c 128,-1,14
 395 1222 395 1222 501.5 1251 c 128,-1,15
 608 1280 608 1280 748 1280 c 0,16,17
 766 1280 766 1280 783.5 1279.5 c 128,-1,18
 801 1279 801 1279 818 1278 c 1,19,-1
 818 1445 l 1,20,-1
 972 1445 l 1,21,-1
 972 1259 l 1,22,23
 1086 1236 1086 1236 1174.5 1193 c 128,-1,24
 1263 1150 1263 1150 1335 1098 c 1,25,-1
 1335 1245 l 1,26,-1
 1560 1245 l 1,27,-1
 1560 885 l 1,28,-1
 1335 885 l 1,29,30
 1283 957 1283 957 1189 1012.5 c 128,-1,31
 1095 1068 1095 1068 972 1096 c 1,32,-1
 972 724 l 1,33,34
 1149 701 1149 701 1268.5 665.5 c 128,-1,35
 1388 630 1388 630 1460.5 580.5 c 128,-1,36
 1533 531 1533 531 1564 467 c 128,-1,37
 1595 403 1595 403 1595 324 c 0,38,39
 1595 262 1595 262 1561.5 199 c 128,-1,40
 1528 136 1528 136 1459.5 85 c 128,-1,41
 1391 34 1391 34 1286 2 c 128,-1,42
 1181 -30 1181 -30 1039 -30 c 0,43,44
 1022 -30 1022 -30 1005.5 -29.5 c 128,-1,45
 989 -29 989 -29 972 -28 c 1,46,-1
 972 -240 l 1,47,-1
 818 -240 l 1,48,-1
 818 -11 l 1,49,50
 704 9 704 9 604 49 c 128,-1,51
 504 89 504 89 405 150 c 1,52,-1
 405 0 l 1,53,-1
 180 0 l 1,54,-1
 180 360 l 1,0,-1
1044 1394 m 1,55,-1
 1084 1394 l 1,56,-1
 1084 1265 l 1,57,-1
 1044 1278 l 1,58,-1
 1044 1394 l 1,55,-1
1395 815 m 1,59,-1
 1632 815 l 1,60,-1
 1632 1194 l 1,61,-1
 1674 1194 l 1,62,-1
 1674 777 l 1,63,-1
 1395 777 l 1,64,-1
 1395 815 l 1,59,-1
450 951 m 0,65,66
 450 918 450 918 466.5 888 c 128,-1,67
 483 858 483 858 525 831.5 c 128,-1,68
 567 805 567 805 638 783 c 128,-1,69
 709 761 709 761 818 744 c 1,70,-1
 818 1118 l 1,71,72
 804 1119 804 1119 791.5 1119.5 c 128,-1,73
 779 1120 779 1120 765 1120 c 0,74,75
 688 1120 688 1120 629 1104.5 c 128,-1,76
 570 1089 570 1089 530 1064.5 c 128,-1,77
 490 1040 490 1040 470 1010 c 128,-1,78
 450 980 450 980 450 951 c 0,65,66
533 957 m 1,79,80
 533 978 533 978 551.5 995 c 128,-1,81
 570 1012 570 1012 602.5 1024 c 128,-1,82
 635 1036 635 1036 680 1043 c 128,-1,83
 725 1050 725 1050 778 1050 c 1,84,-1
 778 1012 l 1,85,86
 680 1012 680 1012 621 995 c 128,-1,87
 562 978 562 978 533 957 c 1,79,80
1044 1004 m 1,88,89
 1057 1001 1057 1001 1074.5 994 c 128,-1,90
 1092 987 1092 987 1110 978 c 128,-1,91
 1128 969 1128 969 1144.5 958.5 c 128,-1,92
 1161 948 1161 948 1173 938 c 1,93,94
 1153 947 1153 947 1128.5 953 c 128,-1,95
 1104 959 1104 959 1084 963 c 1,96,-1
 1084 768 l 1,97,-1
 1044 776 l 1,98,-1
 1044 1004 l 1,88,89
209 698 m 1,99,100
 244 656 244 656 290.5 621.5 c 128,-1,101
 337 587 337 587 404 560 c 128,-1,102
 471 533 471 533 562 512.5 c 128,-1,103
 653 492 653 492 778 479 c 1,104,-1
 778 439 l 1,105,106
 635 455 635 455 531 482.5 c 128,-1,107
 427 510 427 510 358 544.5 c 128,-1,108
 289 579 289 579 252.5 618.5 c 128,-1,109
 216 658 216 658 209 698 c 1,99,100
1044 -310 m 1,110,-1
 1044 -100 l 1,111,112
 1182 -100 1182 -100 1296.5 -69.5 c 128,-1,113
 1411 -39 1411 -39 1493.5 16 c 128,-1,114
 1576 71 1576 71 1621.5 148.5 c 128,-1,115
 1667 226 1667 226 1667 320 c 0,116,117
 1667 384 1667 384 1653.5 436.5 c 128,-1,118
 1640 489 1640 489 1600 542 c 1,119,120
 1624 525 1624 525 1643.5 500.5 c 128,-1,121
 1663 476 1663 476 1677 446.5 c 128,-1,122
 1691 417 1691 417 1699 384.5 c 128,-1,123
 1707 352 1707 352 1707 320 c 0,124,125
 1707 216 1707 216 1658.5 133.5 c 128,-1,126
 1610 51 1610 51 1525.5 -7 c 128,-1,127
 1441 -65 1441 -65 1327.5 -98 c 128,-1,128
 1214 -131 1214 -131 1084 -136 c 1,129,-1
 1084 -348 l 1,130,-1
 878 -348 l 1,131,-1
 878 -310 l 1,132,-1
 1044 -310 l 1,110,-1
1005 129 m 2,133,134
 1077 129 1077 129 1137 143 c 128,-1,135
 1197 157 1197 157 1241 181.5 c 128,-1,136
 1285 206 1285 206 1309.5 239 c 128,-1,137
 1334 272 1334 272 1334 310 c 0,138,139
 1334 384 1334 384 1249 438 c 128,-1,140
 1164 492 1164 492 972 524 c 1,141,-1
 972 129 l 1,142,-1
 1005 129 l 2,133,134
1044 439 m 1,143,144
 1143 421 1143 421 1194 394 c 128,-1,145
 1245 367 1245 367 1259 333 c 1,146,147
 1227 350 1227 350 1186 365.5 c 128,-1,148
 1145 381 1145 381 1084 392 c 1,149,-1
 1084 197 l 1,150,-1
 1044 191 l 1,151,-1
 1044 439 l 1,143,144
477 -70 m 1,152,-1
 477 29 l 1,153,154
 549 -6 549 -6 623 -31.5 c 128,-1,155
 697 -57 697 -57 778 -74 c 1,156,-1
 778 -115 l 1,157,158
 630 -87 630 -87 519 -35 c 1,159,-1
 519 -108 l 1,160,-1
 240 -108 l 1,161,-1
 240 -70 l 1,162,-1
 477 -70 l 1,152,-1
EndSplineSet
EndChar

StartChar: percent
Encoding: 37 37 8
Width: 2319
GlyphClass: 2
Flags: W
LayerCount: 2
Fore
SplineSet
508 529 m 0,0,1
 429 529 429 529 365 558.5 c 128,-1,2
 301 588 301 588 255.5 637.5 c 128,-1,3
 210 687 210 687 185 752 c 128,-1,4
 160 817 160 817 160 888 c 0,5,6
 160 958 160 958 184.5 1024 c 128,-1,7
 209 1090 209 1090 254.5 1140 c 128,-1,8
 300 1190 300 1190 364 1220.5 c 128,-1,9
 428 1251 428 1251 508 1251 c 0,10,11
 590 1251 590 1251 654.5 1220.5 c 128,-1,12
 719 1190 719 1190 764 1140 c 128,-1,13
 809 1090 809 1090 833 1026.5 c 128,-1,14
 857 963 857 963 857 896 c 0,15,16
 857 828 857 828 832 762 c 128,-1,17
 807 696 807 696 761 644.5 c 128,-1,18
 715 593 715 593 650.5 561 c 128,-1,19
 586 529 586 529 508 529 c 0,0,1
1453 1245 m 1,20,-1
 1694 1245 l 1,21,-1
 794 0 l 1,22,-1
 553 0 l 1,23,-1
 1453 1245 l 1,20,-1
230 561 m 1,24,25
 294 504 294 504 367 481.5 c 128,-1,26
 440 459 440 459 518 459 c 0,27,28
 601 459 601 459 675.5 491.5 c 128,-1,29
 750 524 750 524 806.5 581.5 c 128,-1,30
 863 639 863 639 896 719.5 c 128,-1,31
 929 800 929 800 929 896 c 0,32,33
 929 936 929 936 921 979.5 c 128,-1,34
 913 1023 913 1023 897.5 1064 c 128,-1,35
 882 1105 882 1105 860.5 1141 c 128,-1,36
 839 1177 839 1177 812 1201 c 1,37,38
 848 1185 848 1185 877 1153.5 c 128,-1,39
 906 1122 906 1122 926.5 1081 c 128,-1,40
 947 1040 947 1040 958 992 c 128,-1,41
 969 944 969 944 969 896 c 0,42,43
 969 800 969 800 935 714 c 128,-1,44
 901 628 901 628 841 563 c 128,-1,45
 781 498 781 498 698 459.5 c 128,-1,46
 615 421 615 421 518 421 c 0,47,48
 475 421 475 421 433 430 c 128,-1,49
 391 439 391 439 353 457 c 128,-1,50
 315 475 315 475 283 501 c 128,-1,51
 251 527 251 527 230 561 c 1,24,25
632 -70 m 1,52,-1
 835 -70 l 1,53,-1
 1738 1194 l 1,54,-1
 1783 1194 l 1,55,-1
 859 -108 l 1,56,-1
 605 -108 l 1,57,-1
 632 -70 l 1,52,-1
506 675 m 0,58,59
 538 675 538 675 567 690 c 128,-1,60
 596 705 596 705 618.5 733 c 128,-1,61
 641 761 641 761 654 801 c 128,-1,62
 667 841 667 841 667 891 c 0,63,64
 667 935 667 935 655.5 974 c 128,-1,65
 644 1013 644 1013 623.5 1042 c 128,-1,66
 603 1071 603 1071 573.5 1088 c 128,-1,67
 544 1105 544 1105 508 1105 c 256,68,69
 472 1105 472 1105 443 1089.5 c 128,-1,70
 414 1074 414 1074 393 1046 c 128,-1,71
 372 1018 372 1018 361 977.5 c 128,-1,72
 350 937 350 937 350 888 c 0,73,74
 350 840 350 840 361 800.5 c 128,-1,75
 372 761 372 761 392 733.5 c 128,-1,76
 412 706 412 706 441 690.5 c 128,-1,77
 470 675 470 675 506 675 c 0,58,59
496 741 m 1,78,79
 460 746 460 746 439 786 c 128,-1,80
 418 826 418 826 418 889 c 0,81,82
 418 955 418 955 442 995 c 128,-1,83
 466 1035 466 1035 508 1035 c 0,84,85
 542 1035 542 1035 562 1009 c 128,-1,86
 582 983 582 983 587 948 c 1,87,88
 577 963 577 963 557.5 980 c 128,-1,89
 538 997 538 997 512 997 c 0,90,91
 458 997 458 997 458 884 c 0,92,93
 458 765 458 765 496 741 c 1,78,79
1380 329 m 0,94,95
 1380 399 1380 399 1404.5 465 c 128,-1,96
 1429 531 1429 531 1474.5 581 c 128,-1,97
 1520 631 1520 631 1584 661.5 c 128,-1,98
 1648 692 1648 692 1728 692 c 0,99,100
 1810 692 1810 692 1874.5 661.5 c 128,-1,101
 1939 631 1939 631 1984 581 c 128,-1,102
 2029 531 2029 531 2053 467.5 c 128,-1,103
 2077 404 2077 404 2077 337 c 0,104,105
 2077 269 2077 269 2052 203 c 128,-1,106
 2027 137 2027 137 1981 85.5 c 128,-1,107
 1935 34 1935 34 1870.5 2 c 128,-1,108
 1806 -30 1806 -30 1728 -30 c 0,109,110
 1649 -30 1649 -30 1585 -0.5 c 128,-1,111
 1521 29 1521 29 1475.5 78.5 c 128,-1,112
 1430 128 1430 128 1405 193 c 128,-1,113
 1380 258 1380 258 1380 329 c 0,94,95
1450 2 m 1,114,115
 1514 -55 1514 -55 1587 -77.5 c 128,-1,116
 1660 -100 1660 -100 1738 -100 c 0,117,118
 1821 -100 1821 -100 1895.5 -67.5 c 128,-1,119
 1970 -35 1970 -35 2026.5 22.5 c 128,-1,120
 2083 80 2083 80 2116 160.5 c 128,-1,121
 2149 241 2149 241 2149 337 c 0,122,123
 2149 377 2149 377 2141 420.5 c 128,-1,124
 2133 464 2133 464 2117.5 505 c 128,-1,125
 2102 546 2102 546 2080.5 582 c 128,-1,126
 2059 618 2059 618 2032 642 c 1,127,128
 2068 626 2068 626 2097 593 c 128,-1,129
 2126 560 2126 560 2146.5 518 c 128,-1,130
 2167 476 2167 476 2178 429 c 128,-1,131
 2189 382 2189 382 2189 337 c 0,132,133
 2189 241 2189 241 2155 155 c 128,-1,134
 2121 69 2121 69 2061 4 c 128,-1,135
 2001 -61 2001 -61 1918 -99.5 c 128,-1,136
 1835 -138 1835 -138 1738 -138 c 0,137,138
 1696 -138 1696 -138 1653.5 -129 c 128,-1,139
 1611 -120 1611 -120 1572.5 -102 c 128,-1,140
 1534 -84 1534 -84 1502.5 -58 c 128,-1,141
 1471 -32 1471 -32 1450 2 c 1,114,115
1570 329 m 0,142,143
 1570 281 1570 281 1581 241.5 c 128,-1,144
 1592 202 1592 202 1612 174.5 c 128,-1,145
 1632 147 1632 147 1661 131.5 c 128,-1,146
 1690 116 1690 116 1726 116 c 0,147,148
 1758 116 1758 116 1787 131 c 128,-1,149
 1816 146 1816 146 1838.5 174 c 128,-1,150
 1861 202 1861 202 1874 242 c 128,-1,151
 1887 282 1887 282 1887 332 c 0,152,153
 1887 376 1887 376 1875.5 415 c 128,-1,154
 1864 454 1864 454 1843.5 483 c 128,-1,155
 1823 512 1823 512 1793.5 529 c 128,-1,156
 1764 546 1764 546 1728 546 c 256,157,158
 1692 546 1692 546 1663 530.5 c 128,-1,159
 1634 515 1634 515 1613 487 c 128,-1,160
 1592 459 1592 459 1581 418.5 c 128,-1,161
 1570 378 1570 378 1570 329 c 0,142,143
1638 340 m 0,162,163
 1638 406 1638 406 1660 441 c 128,-1,164
 1682 476 1682 476 1728 476 c 0,165,166
 1762 476 1762 476 1782 450 c 128,-1,167
 1802 424 1802 424 1807 389 c 1,168,169
 1797 404 1797 404 1777.5 421 c 128,-1,170
 1758 438 1758 438 1732 438 c 0,171,172
 1705 438 1705 438 1691.5 415 c 128,-1,173
 1678 392 1678 392 1678 335 c 0,174,175
 1678 275 1678 275 1688 234 c 128,-1,176
 1698 193 1698 193 1716 182 c 1,177,178
 1680 188 1680 188 1659 232 c 128,-1,179
 1638 276 1638 276 1638 340 c 0,162,163
EndSplineSet
EndChar

StartChar: ampersand
Encoding: 38 38 9
Width: 1975
GlyphClass: 2
Flags: W
LayerCount: 2
Fore
SplineSet
160 318 m 0,0,1
 160 363 160 363 181.5 408.5 c 128,-1,2
 203 454 203 454 239.5 496 c 128,-1,3
 276 538 276 538 325.5 573.5 c 128,-1,4
 375 609 375 609 432 633 c 1,5,6
 377 654 377 654 332 681.5 c 128,-1,7
 287 709 287 709 254.5 743.5 c 128,-1,8
 222 778 222 778 204.5 819 c 128,-1,9
 187 860 187 860 187 908 c 0,10,11
 187 980 187 980 224.5 1047 c 128,-1,12
 262 1114 262 1114 335 1166 c 128,-1,13
 408 1218 408 1218 516 1249 c 128,-1,14
 624 1280 624 1280 765 1280 c 0,15,16
 870 1280 870 1280 955.5 1268.5 c 128,-1,17
 1041 1257 1041 1257 1112 1236.5 c 128,-1,18
 1183 1216 1183 1216 1242 1187.5 c 128,-1,19
 1301 1159 1301 1159 1352 1124 c 1,20,-1
 1352 1245 l 1,21,-1
 1577 1245 l 1,22,-1
 1577 895 l 1,23,-1
 1352 895 l 1,24,25
 1310 950 1310 950 1246.5 992 c 128,-1,26
 1183 1034 1183 1034 1107.5 1062.5 c 128,-1,27
 1032 1091 1032 1091 948 1105.5 c 128,-1,28
 864 1120 864 1120 782 1120 c 0,29,30
 695 1120 695 1120 633.5 1101.5 c 128,-1,31
 572 1083 572 1083 532.5 1053.5 c 128,-1,32
 493 1024 493 1024 475 989 c 128,-1,33
 457 954 457 954 457 921 c 0,34,35
 457 873 457 873 484.5 836 c 128,-1,36
 512 799 512 799 563 773.5 c 128,-1,37
 614 748 614 748 687 735 c 128,-1,38
 760 722 760 722 851 722 c 1,39,-1
 851 548 l 1,40,41
 748 548 748 548 672 530.5 c 128,-1,42
 596 513 596 513 546 483 c 128,-1,43
 496 453 496 453 471.5 413 c 128,-1,44
 447 373 447 373 447 328 c 256,45,46
 447 283 447 283 470.5 246.5 c 128,-1,47
 494 210 494 210 538 184 c 128,-1,48
 582 158 582 158 644.5 144 c 128,-1,49
 707 130 707 130 785 130 c 0,50,51
 892 130 892 130 986 155.5 c 128,-1,52
 1080 181 1080 181 1153.5 228.5 c 128,-1,53
 1227 276 1227 276 1276 344 c 128,-1,54
 1325 412 1325 412 1343 498 c 1,55,-1
 1161 498 l 1,56,-1
 1161 672 l 1,57,-1
 1821 672 l 1,58,-1
 1821 498 l 1,59,-1
 1577 498 l 1,60,-1
 1577 0 l 1,61,-1
 1352 0 l 1,62,-1
 1352 190 l 1,63,64
 1246 78 1246 78 1097 24 c 128,-1,65
 948 -30 948 -30 761 -30 c 0,66,67
 609 -30 609 -30 496.5 -4.5 c 128,-1,68
 384 21 384 21 309 67 c 128,-1,69
 234 113 234 113 197 177 c 128,-1,70
 160 241 160 241 160 318 c 0,0,1
1412 825 m 1,71,-1
 1649 825 l 1,72,-1
 1649 1194 l 1,73,-1
 1691 1194 l 1,74,-1
 1691 787 l 1,75,-1
 1412 787 l 1,76,-1
 1412 825 l 1,71,-1
540 949 m 1,77,78
 540 970 540 970 561 988 c 128,-1,79
 582 1006 582 1006 617.5 1020 c 128,-1,80
 653 1034 653 1034 700.5 1042 c 128,-1,81
 748 1050 748 1050 802 1050 c 0,82,83
 926 1050 926 1050 1024.5 1021.5 c 128,-1,84
 1123 993 1123 993 1189 948 c 1,85,86
 1113 972 1113 972 1012 992 c 128,-1,87
 911 1012 911 1012 802 1012 c 0,88,89
 705 1012 705 1012 640.5 995 c 128,-1,90
 576 978 576 978 540 949 c 1,77,78
520 350 m 1,91,92
 520 368 520 368 540.5 390 c 128,-1,93
 561 412 561 412 602 431.5 c 128,-1,94
 643 451 643 451 705.5 464.5 c 128,-1,95
 768 478 768 478 851 478 c 2,96,-1
 923 478 l 1,97,-1
 923 671 l 1,98,-1
 965 671 l 1,99,-1
 965 440 l 1,100,-1
 851 440 l 2,101,102
 793 440 793 440 741.5 432 c 128,-1,103
 690 424 690 424 647 411 c 128,-1,104
 604 398 604 398 571.5 382 c 128,-1,105
 539 366 539 366 520 350 c 1,91,92
1649 -70 m 1,106,-1
 1649 428 l 1,107,-1
 1893 428 l 1,108,-1
 1893 621 l 1,109,-1
 1935 621 l 1,110,-1
 1935 390 l 1,111,-1
 1691 390 l 1,112,-1
 1691 -108 l 1,113,-1
 1412 -108 l 1,114,-1
 1412 -70 l 1,115,-1
 1649 -70 l 1,106,-1
1211 428 m 1,116,-1
 1281 428 l 1,117,118
 1281 425 1281 425 1278.5 419 c 128,-1,119
 1276 413 1276 413 1273 407 c 128,-1,120
 1270 401 1270 401 1267 396 c 128,-1,121
 1264 391 1264 391 1263 390 c 1,122,-1
 1211 390 l 1,123,-1
 1211 428 l 1,116,-1
226 48 m 1,124,125
 340 -30 340 -30 468.5 -65 c 128,-1,126
 597 -100 597 -100 755 -100 c 0,127,128
 903 -100 903 -100 1022 -70.5 c 128,-1,129
 1141 -41 1141 -41 1248 22 c 1,130,-1
 1248 -24 l 1,131,132
 1136 -87 1136 -87 1014 -112.5 c 128,-1,133
 892 -138 892 -138 753 -138 c 0,134,135
 669 -138 669 -138 592 -127 c 128,-1,136
 515 -116 515 -116 447.5 -93 c 128,-1,137
 380 -70 380 -70 324 -35 c 128,-1,138
 268 0 268 0 226 48 c 1,124,125
EndSplineSet
EndChar

StartChar: quotesingle
Encoding: 39 39 10
Width: 613
GlyphClass: 2
Flags: W
LayerCount: 2
Fore
SplineSet
155 1245 m 1,0,-1
 380 1245 l 1,1,-1
 350 770 l 1,2,-1
 185 770 l 1,3,-1
 155 1245 l 1,0,-1
246 700 m 1,4,-1
 413 700 l 1,5,-1
 453 1194 l 1,6,-1
 493 1194 l 1,7,-1
 452 662 l 1,8,-1
 246 662 l 1,9,-1
 246 700 l 1,4,-1
EndSplineSet
EndChar

StartChar: parenleft
Encoding: 40 40 11
Width: 969
GlyphClass: 2
Flags: W
LayerCount: 2
Fore
SplineSet
160 462 m 256,0,1
 160 577 160 577 184 696 c 128,-1,2
 208 815 208 815 254.5 927.5 c 128,-1,3
 301 1040 301 1040 368.5 1142 c 128,-1,4
 436 1244 436 1244 522 1325 c 1,5,-1
 732 1325 l 1,6,7
 648 1236 648 1236 581 1134.5 c 128,-1,8
 514 1033 514 1033 467.5 923 c 128,-1,9
 421 813 421 813 396 696.5 c 128,-1,10
 371 580 371 580 371 462 c 0,11,12
 371 343 371 343 396 227 c 128,-1,13
 421 111 421 111 467.5 1 c 128,-1,14
 514 -109 514 -109 581 -210.5 c 128,-1,15
 648 -312 648 -312 732 -401 c 1,16,-1
 522 -401 l 1,17,18
 436 -320 436 -320 368.5 -218 c 128,-1,19
 301 -116 301 -116 254.5 -3.5 c 128,-1,20
 208 109 208 109 184 228 c 128,-1,21
 160 347 160 347 160 462 c 256,0,1
441 462 m 0,22,23
 441 573 441 573 467 686 c 128,-1,24
 493 799 493 799 538.5 905 c 128,-1,25
 584 1011 584 1011 645 1105.5 c 128,-1,26
 706 1200 706 1200 776 1274 c 1,27,-1
 829 1274 l 1,28,29
 739 1178 739 1178 673.5 1075.5 c 128,-1,30
 608 973 608 973 565 868.5 c 128,-1,31
 522 764 522 764 501.5 661 c 128,-1,32
 481 558 481 558 481 462 c 0,33,34
 481 345 481 345 506.5 232 c 128,-1,35
 532 119 532 119 589.5 2 c 128,-1,36
 647 -115 647 -115 740.5 -240.5 c 128,-1,37
 834 -366 834 -366 969 -508 c 1,38,-1
 673 -508 l 1,39,-1
 638 -470 l 1,40,-1
 884 -470 l 1,41,42
 764 -348 764 -348 680 -230 c 128,-1,43
 596 -112 596 -112 542.5 4 c 128,-1,44
 489 120 489 120 465 234 c 128,-1,45
 441 348 441 348 441 462 c 0,22,23
EndSplineSet
EndChar

StartChar: parenright
Encoding: 41 41 12
Width: 969
GlyphClass: 2
Flags: W
LayerCount: 2
Fore
SplineSet
133 -401 m 1,0,1
 217 -312 217 -312 284 -210.5 c 128,-1,2
 351 -109 351 -109 397.5 1 c 128,-1,3
 444 111 444 111 469 227 c 128,-1,4
 494 343 494 343 494 462 c 0,5,6
 494 580 494 580 469 696.5 c 128,-1,7
 444 813 444 813 397.5 923 c 128,-1,8
 351 1033 351 1033 284 1134.5 c 128,-1,9
 217 1236 217 1236 133 1325 c 1,10,-1
 343 1325 l 1,11,12
 429 1244 429 1244 496.5 1142 c 128,-1,13
 564 1040 564 1040 610.5 927.5 c 128,-1,14
 657 815 657 815 681 696 c 128,-1,15
 705 577 705 577 705 462 c 256,16,17
 705 347 705 347 681 228 c 128,-1,18
 657 109 657 109 610.5 -3.5 c 128,-1,19
 564 -116 564 -116 496.5 -218 c 128,-1,20
 429 -320 429 -320 343 -401 c 1,21,-1
 133 -401 l 1,0,1
381 -470 m 1,22,23
 490 -355 490 -355 565.5 -238.5 c 128,-1,24
 641 -122 641 -122 688 -4.5 c 128,-1,25
 735 113 735 113 756 230 c 128,-1,26
 777 347 777 347 777 462 c 0,27,28
 777 558 777 558 762 661 c 128,-1,29
 747 764 747 764 711 868.5 c 128,-1,30
 675 973 675 973 615 1075.5 c 128,-1,31
 555 1178 555 1178 465 1274 c 1,32,-1
 518 1274 l 1,33,34
 662 1121 662 1121 739.5 915 c 128,-1,35
 817 709 817 709 817 462 c 0,36,37
 817 193 817 193 714 -48.5 c 128,-1,38
 611 -290 611 -290 396 -508 c 1,39,-1
 135 -508 l 1,40,-1
 170 -470 l 1,41,-1
 381 -470 l 1,22,23
EndSplineSet
EndChar

StartChar: asterisk
Encoding: 42 42 13
Width: 1235
GlyphClass: 2
Flags: W
LayerCount: 2
Fore
SplineSet
257 615 m 1,0,-1
 432 820 l 1,1,-1
 160 896 l 1,2,-1
 213 1050 l 1,3,-1
 490 955 l 1,4,-1
 477 1245 l 1,5,-1
 655 1245 l 1,6,-1
 643 955 l 1,7,-1
 922 1050 l 1,8,-1
 975 896 l 1,9,-1
 704 820 l 1,10,-1
 880 629 l 1,11,-1
 745 529 l 1,12,-1
 571 751 l 1,13,-1
 416 515 l 1,14,-1
 257 615 l 1,0,-1
724 1194 m 1,15,-1
 764 1194 l 1,16,-1
 756 1034 l 1,17,-1
 716 1020 l 1,18,-1
 724 1194 l 1,15,-1
302 1134 m 1,19,-1
 442 1087 l 1,20,-1
 445 1045 l 1,21,-1
 289 1098 l 1,22,-1
 302 1134 l 1,19,-1
979 604 m 1,23,-1
 828 782 l 1,24,-1
 1064 848 l 1,25,-1
 1000 1037 l 1,26,-1
 1037 1049 l 1,27,-1
 1115 821 l 1,28,-1
 894 757 l 1,29,-1
 1034 598 l 1,30,-1
 838 451 l 1,31,-1
 815 483 l 1,32,-1
 979 604 l 1,23,-1
582 654 m 1,33,-1
 607 620 l 1,34,-1
 540 498 l 1,35,-1
 508 522 l 1,36,-1
 582 654 l 1,33,-1
EndSplineSet
EndChar

StartChar: plus
Encoding: 43 43 14
Width: 1222
GlyphClass: 2
Flags: W
LayerCount: 2
Fore
SplineSet
490 545 m 1,0,-1
 160 545 l 1,1,-1
 160 700 l 1,2,-1
 490 700 l 1,3,-1
 490 1005 l 1,4,-1
 650 1005 l 1,5,-1
 650 700 l 1,6,-1
 980 700 l 1,7,-1
 980 545 l 1,8,-1
 650 545 l 1,9,-1
 650 240 l 1,10,-1
 490 240 l 1,11,-1
 490 545 l 1,0,-1
722 954 m 1,12,-1
 762 954 l 1,13,-1
 762 760 l 1,14,-1
 722 760 l 1,15,-1
 722 954 l 1,12,-1
550 170 m 1,16,-1
 722 170 l 1,17,-1
 722 475 l 1,18,-1
 1052 475 l 1,19,-1
 1052 679 l 1,20,-1
 1092 679 l 1,21,-1
 1092 437 l 1,22,-1
 762 437 l 1,23,-1
 762 132 l 1,24,-1
 550 132 l 1,25,-1
 550 170 l 1,16,-1
246 475 m 1,26,-1
 448 475 l 1,27,-1
 448 437 l 1,28,-1
 246 437 l 1,29,-1
 246 475 l 1,26,-1
EndSplineSet
EndChar

StartChar: comma
Encoding: 44 44 15
Width: 716
GlyphClass: 2
Flags: W
LayerCount: 2
Fore
SplineSet
159 260 m 1,0,-1
 484 260 l 1,1,-1
 484 37 l 2,2,3
 484 -152 484 -152 398 -242 c 128,-1,4
 312 -332 312 -332 155 -332 c 1,5,-1
 155 -211 l 1,6,7
 201 -211 201 -211 236 -202 c 128,-1,8
 271 -193 271 -193 295.5 -169 c 128,-1,9
 320 -145 320 -145 333 -104 c 128,-1,10
 346 -63 346 -63 348 0 c 1,11,-1
 159 0 l 1,12,-1
 159 260 l 1,0,-1
155 -402 m 1,13,14
 243 -402 243 -402 316.5 -376.5 c 128,-1,15
 390 -351 390 -351 443.5 -297.5 c 128,-1,16
 497 -244 497 -244 526.5 -161 c 128,-1,17
 556 -78 556 -78 556 37 c 2,18,-1
 556 204 l 1,19,-1
 596 204 l 1,20,-1
 596 37 l 2,21,22
 596 -80 596 -80 564.5 -169.5 c 128,-1,23
 533 -259 533 -259 475.5 -319 c 128,-1,24
 418 -379 418 -379 336.5 -409.5 c 128,-1,25
 255 -440 255 -440 155 -440 c 1,26,-1
 155 -402 l 1,13,14
298 -70 m 1,27,28
 296 -78 296 -78 293 -89.5 c 128,-1,29
 290 -101 290 -101 287 -108 c 1,30,-1
 219 -108 l 1,31,-1
 219 -70 l 1,32,-1
 298 -70 l 1,27,28
EndSplineSet
EndChar

StartChar: hyphen
Encoding: 45 45 16
Width: 938
GlyphClass: 2
Flags: W
LayerCount: 2
Fore
SplineSet
140 740 m 1,0,-1
 716 740 l 1,1,-1
 716 575 l 1,2,-1
 140 575 l 1,3,-1
 140 740 l 1,0,-1
226 505 m 1,4,-1
 788 505 l 1,5,-1
 788 644 l 1,6,-1
 828 644 l 1,7,-1
 828 467 l 1,8,-1
 226 467 l 1,9,-1
 226 505 l 1,4,-1
EndSplineSet
EndChar

StartChar: period
Encoding: 46 46 17
Width: 712
GlyphClass: 2
Flags: W
LayerCount: 2
Fore
SplineSet
155 260 m 1,0,-1
 480 260 l 1,1,-1
 480 0 l 1,2,-1
 155 0 l 1,3,-1
 155 260 l 1,0,-1
552 -70 m 1,4,-1
 552 204 l 1,5,-1
 592 204 l 1,6,-1
 592 -108 l 1,7,-1
 215 -108 l 1,8,-1
 215 -70 l 1,9,-1
 552 -70 l 1,4,-1
EndSplineSet
EndChar

StartChar: slash
Encoding: 47 47 18
Width: 1093
GlyphClass: 2
Flags: W
LayerCount: 2
Fore
SplineSet
775 1325 m 1,0,-1
 990 1325 l 1,1,-1
 255 -401 l 1,2,-1
 40 -401 l 1,3,-1
 775 1325 l 1,0,-1
307 -471 m 1,4,-1
 1050 1274 l 1,5,-1
 1093 1274 l 1,6,-1
 334 -509 l 1,7,-1
 92 -509 l 1,8,-1
 109 -471 l 1,9,-1
 307 -471 l 1,4,-1
EndSplineSet
EndChar

StartChar: zero
Encoding: 48 48 19
Width: 1696
GlyphClass: 2
Flags: W
LayerCount: 2
Fore
SplineSet
110 601 m 0,0,1
 110 738 110 738 153 861.5 c 128,-1,2
 196 985 196 985 283.5 1078 c 128,-1,3
 371 1171 371 1171 502.5 1225.5 c 128,-1,4
 634 1280 634 1280 811 1280 c 0,5,6
 996 1280 996 1280 1126 1230.5 c 128,-1,7
 1256 1181 1256 1181 1337.5 1093 c 128,-1,8
 1419 1005 1419 1005 1456.5 885 c 128,-1,9
 1494 765 1494 765 1494 624 c 0,10,11
 1494 487 1494 487 1452 368 c 128,-1,12
 1410 249 1410 249 1324.5 160.5 c 128,-1,13
 1239 72 1239 72 1110.5 21 c 128,-1,14
 982 -30 982 -30 809 -30 c 0,15,16
 660 -30 660 -30 532.5 10 c 128,-1,17
 405 50 405 50 311 129.5 c 128,-1,18
 217 209 217 209 163.5 327 c 128,-1,19
 110 445 110 445 110 601 c 0,0,1
321 38 m 1,20,21
 411 -25 411 -25 533.5 -62.5 c 128,-1,22
 656 -100 656 -100 809 -100 c 0,23,24
 980 -100 980 -100 1119.5 -49.5 c 128,-1,25
 1259 1 1259 1 1358.5 95.5 c 128,-1,26
 1458 190 1458 190 1512 323.5 c 128,-1,27
 1566 457 1566 457 1566 624 c 0,28,29
 1566 715 1566 715 1550.5 799.5 c 128,-1,30
 1535 884 1535 884 1501 960 c 128,-1,31
 1467 1036 1467 1036 1412 1102.5 c 128,-1,32
 1357 1169 1357 1169 1278 1224 c 1,33,34
 1447 1147 1447 1147 1526.5 995.5 c 128,-1,35
 1606 844 1606 844 1606 624 c 0,36,37
 1606 451 1606 451 1552 310 c 128,-1,38
 1498 169 1498 169 1395.5 69.5 c 128,-1,39
 1293 -30 1293 -30 1145 -84 c 128,-1,40
 997 -138 997 -138 809 -138 c 0,41,42
 643 -138 643 -138 515.5 -92.5 c 128,-1,43
 388 -47 388 -47 321 38 c 1,20,21
350 609 m 0,44,45
 350 495 350 495 379.5 406 c 128,-1,46
 409 317 409 317 466.5 255.5 c 128,-1,47
 524 194 524 194 608 162 c 128,-1,48
 692 130 692 130 800 130 c 0,49,50
 925 130 925 130 1011.5 170.5 c 128,-1,51
 1098 211 1098 211 1152 279 c 128,-1,52
 1206 347 1206 347 1230 436.5 c 128,-1,53
 1254 526 1254 526 1254 624 c 0,54,55
 1254 737 1254 737 1228 829 c 128,-1,56
 1202 921 1202 921 1147 985.5 c 128,-1,57
 1092 1050 1092 1050 1008 1085 c 128,-1,58
 924 1120 924 1120 807 1120 c 0,59,60
 694 1120 694 1120 608.5 1083.5 c 128,-1,61
 523 1047 523 1047 465.5 980 c 128,-1,62
 408 913 408 913 379 818.5 c 128,-1,63
 350 724 350 724 350 609 c 0,44,45
699 214 m 1,64,65
 646 222 646 222 596.5 249 c 128,-1,66
 547 276 547 276 508 325 c 128,-1,67
 469 374 469 374 445.5 445 c 128,-1,68
 422 516 422 516 422 612 c 0,69,70
 422 722 422 722 449.5 804 c 128,-1,71
 477 886 477 886 527 941 c 128,-1,72
 577 996 577 996 648.5 1023 c 128,-1,73
 720 1050 720 1050 807 1050 c 0,74,75
 928 1050 928 1050 1004.5 1010 c 128,-1,76
 1081 970 1081 970 1110 898 c 1,77,78
 1081 928 1081 928 1050 949.5 c 128,-1,79
 1019 971 1019 971 982.5 985 c 128,-1,80
 946 999 946 999 903 1005.5 c 128,-1,81
 860 1012 860 1012 807 1012 c 0,82,83
 718 1012 718 1012 653.5 984 c 128,-1,84
 589 956 589 956 546 904 c 128,-1,85
 503 852 503 852 482.5 777.5 c 128,-1,86
 462 703 462 703 462 611 c 0,87,88
 462 541 462 541 478.5 479 c 128,-1,89
 495 417 495 417 525.5 365.5 c 128,-1,90
 556 314 556 314 600 275.5 c 128,-1,91
 644 237 644 237 699 214 c 1,64,65
EndSplineSet
EndChar

StartChar: one
Encoding: 49 49 20
Width: 1116
GlyphClass: 2
Flags: W
LayerCount: 2
Fore
SplineSet
150 160 m 1,0,-1
 468 160 l 1,1,-1
 468 980 l 1,2,-1
 189 907 l 1,3,-1
 189 1114 l 1,4,-1
 684 1245 l 1,5,-1
 684 160 l 1,6,-1
 954 160 l 1,7,-1
 954 0 l 1,8,-1
 150 0 l 1,9,-1
 150 160 l 1,0,-1
756 1184 m 1,10,-1
 796 1195 l 1,11,-1
 796 220 l 1,12,-1
 756 220 l 1,13,-1
 756 1184 l 1,10,-1
249 852 m 1,14,-1
 426 899 l 1,15,-1
 426 861 l 1,16,-1
 249 814 l 1,17,-1
 249 852 l 1,14,-1
1026 -70 m 1,18,-1
 1026 104 l 1,19,-1
 1066 104 l 1,20,-1
 1066 -108 l 1,21,-1
 210 -108 l 1,22,-1
 210 -70 l 1,23,-1
 1026 -70 l 1,18,-1
EndSplineSet
EndChar

StartChar: two
Encoding: 50 50 21
Width: 1608
GlyphClass: 2
Flags: W
LayerCount: 2
Fore
SplineSet
140 104 m 2,0,1
 140 168 140 168 172.5 236.5 c 128,-1,2
 205 305 205 305 279 373.5 c 128,-1,3
 353 442 353 442 474 509 c 128,-1,4
 595 576 595 576 772 637 c 0,5,6
 880 674 880 674 947.5 707.5 c 128,-1,7
 1015 741 1015 741 1052 774 c 128,-1,8
 1089 807 1089 807 1102 841 c 128,-1,9
 1115 875 1115 875 1115 914 c 0,10,11
 1115 958 1115 958 1092.5 995.5 c 128,-1,12
 1070 1033 1070 1033 1026.5 1061 c 128,-1,13
 983 1089 983 1089 920.5 1104.5 c 128,-1,14
 858 1120 858 1120 779 1120 c 0,15,16
 692 1120 692 1120 616.5 1106 c 128,-1,17
 541 1092 541 1092 485 1059 c 128,-1,18
 429 1026 429 1026 397 972 c 128,-1,19
 365 918 365 918 365 837 c 1,20,-1
 140 837 l 1,21,22
 140 949 140 949 185 1032.5 c 128,-1,23
 230 1116 230 1116 314 1171 c 128,-1,24
 398 1226 398 1226 517 1253 c 128,-1,25
 636 1280 636 1280 785 1280 c 0,26,27
 915 1280 915 1280 1018.5 1255.5 c 128,-1,28
 1122 1231 1122 1231 1194 1184.5 c 128,-1,29
 1266 1138 1266 1138 1304.5 1070.5 c 128,-1,30
 1343 1003 1343 1003 1343 917 c 0,31,32
 1343 851 1343 851 1321 792 c 128,-1,33
 1299 733 1299 733 1245 679.5 c 128,-1,34
 1191 626 1191 626 1099.5 577.5 c 128,-1,35
 1008 529 1008 529 870 484 c 0,36,37
 753 446 753 446 666 407.5 c 128,-1,38
 579 369 579 369 519 328.5 c 128,-1,39
 459 288 459 288 424 246 c 128,-1,40
 389 204 389 204 376 160 c 1,41,-1
 1174 160 l 1,42,-1
 1174 320 l 1,43,-1
 1399 320 l 1,44,-1
 1399 0 l 1,45,-1
 140 0 l 1,46,-1
 140 104 l 2,0,1
515 220 m 1,47,48
 522 238 522 238 546.5 260.5 c 128,-1,49
 571 283 571 283 618.5 309 c 128,-1,50
 666 335 666 335 739 364 c 128,-1,51
 812 393 812 393 915 423 c 0,52,53
 1171 497 1171 497 1293 624 c 128,-1,54
 1415 751 1415 751 1415 919 c 0,55,56
 1415 994 1415 994 1376 1068 c 128,-1,57
 1337 1142 1337 1142 1259 1205 c 1,58,59
 1307 1187 1307 1187 1343.5 1155.5 c 128,-1,60
 1380 1124 1380 1124 1405 1085 c 128,-1,61
 1430 1046 1430 1046 1442.5 1003 c 128,-1,62
 1455 960 1455 960 1455 920 c 0,63,64
 1455 826 1455 826 1424 746 c 128,-1,65
 1393 666 1393 666 1326.5 598.5 c 128,-1,66
 1260 531 1260 531 1155 476 c 128,-1,67
 1050 421 1050 421 903 377 c 0,68,69
 828 354 828 354 771.5 334 c 128,-1,70
 715 314 715 314 674.5 295 c 128,-1,71
 634 276 634 276 608 257.5 c 128,-1,72
 582 239 582 239 568 220 c 1,73,-1
 515 220 l 1,47,48
196 767 m 1,74,-1
 432 767 l 1,75,76
 432 912 432 912 516.5 981 c 128,-1,77
 601 1050 601 1050 779 1050 c 0,78,79
 832 1050 832 1050 876.5 1042.5 c 128,-1,80
 921 1035 921 1035 953.5 1022.5 c 128,-1,81
 986 1010 986 1010 1004 993.5 c 128,-1,82
 1022 977 1022 977 1022 960 c 1,83,84
 1015 968 1015 968 998 977.5 c 128,-1,85
 981 987 981 987 951.5 994.5 c 128,-1,86
 922 1002 922 1002 880 1007 c 128,-1,87
 838 1012 838 1012 781 1012 c 0,88,89
 704 1012 704 1012 646.5 999 c 128,-1,90
 589 986 589 986 550 956.5 c 128,-1,91
 511 927 511 927 491.5 878.5 c 128,-1,92
 472 830 472 830 472 759 c 2,93,-1
 472 729 l 1,94,-1
 196 729 l 1,95,-1
 196 767 l 1,74,-1
1471 -70 m 1,96,-1
 1471 264 l 1,97,-1
 1511 264 l 1,98,-1
 1511 -108 l 1,99,-1
 196 -108 l 1,100,-1
 196 -70 l 1,101,-1
 1471 -70 l 1,96,-1
EndSplineSet
EndChar

StartChar: three
Encoding: 51 51 22
Width: 1650
GlyphClass: 2
Flags: W
LayerCount: 2
Fore
SplineSet
343 382 m 1,0,1
 378 261 378 261 497 195.5 c 128,-1,2
 616 130 616 130 815 130 c 0,3,4
 1003 130 1003 130 1104 186.5 c 128,-1,5
 1205 243 1205 243 1205 355 c 0,6,7
 1205 400 1205 400 1178.5 436.5 c 128,-1,8
 1152 473 1152 473 1089 499 c 128,-1,9
 1026 525 1026 525 922 539.5 c 128,-1,10
 818 554 818 554 662 554 c 1,11,-1
 662 716 l 1,12,13
 781 716 781 716 867 724 c 128,-1,14
 953 732 953 732 1012 745.5 c 128,-1,15
 1071 759 1071 759 1107 778.5 c 128,-1,16
 1143 798 1143 798 1162.5 821.5 c 128,-1,17
 1182 845 1182 845 1188.5 871 c 128,-1,18
 1195 897 1195 897 1195 925 c 0,19,20
 1195 968 1195 968 1169.5 1004 c 128,-1,21
 1144 1040 1144 1040 1094 1065.5 c 128,-1,22
 1044 1091 1044 1091 969 1105.5 c 128,-1,23
 894 1120 894 1120 795 1120 c 0,24,25
 689 1120 689 1120 610 1101 c 128,-1,26
 531 1082 531 1082 476.5 1047.5 c 128,-1,27
 422 1013 422 1013 392 963 c 128,-1,28
 362 913 362 913 355 852 c 1,29,-1
 130 852 l 1,30,31
 139 940 139 940 178.5 1018 c 128,-1,32
 218 1096 218 1096 297 1154 c 128,-1,33
 376 1212 376 1212 498.5 1246 c 128,-1,34
 621 1280 621 1280 795 1280 c 0,35,36
 952 1280 952 1280 1068.5 1254 c 128,-1,37
 1185 1228 1185 1228 1262 1182.5 c 128,-1,38
 1339 1137 1339 1137 1377 1075 c 128,-1,39
 1415 1013 1415 1013 1415 940 c 0,40,41
 1415 895 1415 895 1396.5 851.5 c 128,-1,42
 1378 808 1378 808 1344 770 c 128,-1,43
 1310 732 1310 732 1261 702 c 128,-1,44
 1212 672 1212 672 1151 654 c 1,45,46
 1217 636 1217 636 1268 606 c 128,-1,47
 1319 576 1319 576 1354 537 c 128,-1,48
 1389 498 1389 498 1407 452 c 128,-1,49
 1425 406 1425 406 1425 356 c 0,50,51
 1425 272 1425 272 1383.5 201 c 128,-1,52
 1342 130 1342 130 1264 79 c 128,-1,53
 1186 28 1186 28 1072.5 -1 c 128,-1,54
 959 -30 959 -30 815 -30 c 0,55,56
 665 -30 665 -30 551.5 -6.5 c 128,-1,57
 438 17 438 17 356 60.5 c 128,-1,58
 274 104 274 104 222.5 166.5 c 128,-1,59
 171 229 171 229 146 307 c 1,60,-1
 343 382 l 1,0,1
271 23 m 1,61,62
 373 -37 373 -37 505 -68.5 c 128,-1,63
 637 -100 637 -100 788 -100 c 0,64,65
 935 -100 935 -100 1064 -72 c 128,-1,66
 1193 -44 1193 -44 1289.5 12.5 c 128,-1,67
 1386 69 1386 69 1441.5 154.5 c 128,-1,68
 1497 240 1497 240 1497 356 c 0,69,70
 1497 409 1497 409 1480 455.5 c 128,-1,71
 1463 502 1463 502 1433.5 540 c 128,-1,72
 1404 578 1404 578 1363 606.5 c 128,-1,73
 1322 635 1322 635 1274 653 c 1,74,75
 1487 744 1487 744 1487 932 c 0,76,77
 1487 1029 1487 1029 1439.5 1105.5 c 128,-1,78
 1392 1182 1392 1182 1295 1230 c 1,79,80
 1355 1213 1355 1213 1398.5 1184 c 128,-1,81
 1442 1155 1442 1155 1470.5 1116 c 128,-1,82
 1499 1077 1499 1077 1513 1030.5 c 128,-1,83
 1527 984 1527 984 1527 932 c 0,84,85
 1527 844 1527 844 1488.5 776.5 c 128,-1,86
 1450 709 1450 709 1362 655 c 1,87,88
 1457 598 1457 598 1497 521.5 c 128,-1,89
 1537 445 1537 445 1537 357 c 0,90,91
 1537 244 1537 244 1486 152.5 c 128,-1,92
 1435 61 1435 61 1338.5 -3.5 c 128,-1,93
 1242 -68 1242 -68 1103 -103 c 128,-1,94
 964 -138 964 -138 788 -138 c 0,95,96
 609 -138 609 -138 482.5 -98 c 128,-1,97
 356 -58 356 -58 271 23 c 1,61,62
186 782 m 1,98,-1
 427 782 l 1,99,100
 427 915 427 915 522.5 980 c 128,-1,101
 618 1045 618 1045 791 1045 c 0,102,103
 861 1045 861 1045 920 1038 c 128,-1,104
 979 1031 979 1031 1021.5 1018 c 128,-1,105
 1064 1005 1064 1005 1087.5 986.5 c 128,-1,106
 1111 968 1111 968 1111 946 c 1,107,108
 1100 961 1100 961 1072 973 c 128,-1,109
 1044 985 1044 985 1002.5 993.5 c 128,-1,110
 961 1002 961 1002 907.5 1006.5 c 128,-1,111
 854 1011 854 1011 791 1011 c 0,112,113
 623 1011 623 1011 545 949 c 128,-1,114
 467 887 467 887 467 782 c 2,115,-1
 467 744 l 1,116,-1
 186 744 l 1,117,-1
 186 782 l 1,98,-1
718 485 m 1,118,119
 731 486 731 486 743 486 c 128,-1,120
 755 486 755 486 768 486 c 0,121,122
 843 486 843 486 908 476 c 128,-1,123
 973 466 973 466 1021.5 451 c 128,-1,124
 1070 436 1070 436 1097.5 418.5 c 128,-1,125
 1125 401 1125 401 1125 386 c 1,126,127
 1122 391 1122 391 1092 401.5 c 128,-1,128
 1062 412 1062 412 1013 422.5 c 128,-1,129
 964 433 964 433 899 440.5 c 128,-1,130
 834 448 834 448 761 448 c 0,131,132
 750 448 750 448 739.5 447.5 c 128,-1,133
 729 447 729 447 718 447 c 1,134,-1
 718 485 l 1,118,119
470 354 m 1,135,136
 486 326 486 326 507.5 302 c 128,-1,137
 529 278 529 278 552.5 259 c 128,-1,138
 576 240 576 240 601 226.5 c 128,-1,139
 626 213 626 213 650 205 c 1,140,141
 572 218 572 218 518 252 c 128,-1,142
 464 286 464 286 432 340 c 1,143,-1
 470 354 l 1,135,136
EndSplineSet
EndChar

StartChar: four
Encoding: 52 52 23
Width: 1685
GlyphClass: 2
Flags: W
LayerCount: 2
Fore
SplineSet
50 560 m 1,0,-1
 881 1245 l 1,1,-1
 1166 1245 l 1,2,-1
 1166 560 l 1,3,-1
 1565 560 l 1,4,-1
 1565 400 l 1,5,-1
 1166 400 l 1,6,-1
 1166 160 l 1,7,-1
 1416 160 l 1,8,-1
 1416 0 l 1,9,-1
 588 0 l 1,10,-1
 588 160 l 1,11,-1
 941 160 l 1,12,-1
 941 400 l 1,13,-1
 50 400 l 1,14,-1
 50 560 l 1,0,-1
1238 1194 m 1,15,-1
 1278 1194 l 1,16,-1
 1278 620 l 1,17,-1
 1238 620 l 1,18,-1
 1238 1194 l 1,15,-1
941 560 m 1,19,-1
 941 1070 l 1,20,-1
 335 560 l 1,21,-1
 941 560 l 1,19,-1
871 899 m 1,22,-1
 871 852 l 1,23,-1
 571 611 l 1,24,-1
 511 611 l 1,25,-1
 871 899 l 1,22,-1
1238 330 m 1,26,-1
 1637 330 l 1,27,-1
 1637 504 l 1,28,-1
 1677 504 l 1,29,-1
 1677 292 l 1,30,-1
 1278 292 l 1,31,-1
 1278 220 l 1,32,-1
 1238 220 l 1,33,-1
 1238 330 l 1,26,-1
118 330 m 1,34,-1
 863 330 l 1,35,-1
 863 292 l 1,36,-1
 118 292 l 1,37,-1
 118 330 l 1,34,-1
1488 -70 m 1,38,-1
 1488 104 l 1,39,-1
 1528 104 l 1,40,-1
 1528 -108 l 1,41,-1
 648 -108 l 1,42,-1
 648 -70 l 1,43,-1
 1488 -70 l 1,38,-1
EndSplineSet
EndChar

StartChar: five
Encoding: 53 53 24
Width: 1682
GlyphClass: 2
Flags: W
LayerCount: 2
Fore
SplineSet
374 314 m 1,0,1
 437 215 437 215 546 172.5 c 128,-1,2
 655 130 655 130 805 130 c 0,3,4
 906 130 906 130 987.5 147 c 128,-1,5
 1069 164 1069 164 1126 197 c 128,-1,6
 1183 230 1183 230 1214 277.5 c 128,-1,7
 1245 325 1245 325 1245 387 c 0,8,9
 1245 451 1245 451 1219 503 c 128,-1,10
 1193 555 1193 555 1144 592 c 128,-1,11
 1095 629 1095 629 1025.5 649 c 128,-1,12
 956 669 956 669 869 669 c 0,13,14
 707 669 707 669 591 632 c 128,-1,15
 475 595 475 595 400 525 c 1,16,-1
 178 525 l 1,17,-1
 178 1245 l 1,18,-1
 1425 1245 l 1,19,-1
 1425 965 l 1,20,-1
 1200 965 l 1,21,-1
 1200 1085 l 1,22,-1
 376 1085 l 1,23,-1
 376 702 l 1,24,25
 464 762 464 762 591.5 795.5 c 128,-1,26
 719 829 719 829 873 829 c 0,27,28
 1011 829 1011 829 1119.5 794.5 c 128,-1,29
 1228 760 1228 760 1303.5 700.5 c 128,-1,30
 1379 641 1379 641 1419 561 c 128,-1,31
 1459 481 1459 481 1459 390 c 256,32,33
 1459 299 1459 299 1416 222 c 128,-1,34
 1373 145 1373 145 1289.5 89 c 128,-1,35
 1206 33 1206 33 1084 1.5 c 128,-1,36
 962 -30 962 -30 805 -30 c 0,37,38
 563 -30 563 -30 404.5 41.5 c 128,-1,39
 246 113 246 113 177 239 c 1,40,-1
 374 314 l 1,0,1
1260 895 m 1,41,-1
 1497 895 l 1,42,-1
 1497 1194 l 1,43,-1
 1537 1194 l 1,44,-1
 1537 857 l 1,45,-1
 1260 857 l 1,46,-1
 1260 895 l 1,41,-1
448 1015 m 1,47,-1
 1158 1015 l 1,48,-1
 1158 977 l 1,49,-1
 488 977 l 1,50,-1
 488 836 l 1,51,-1
 448 820 l 1,52,-1
 448 1015 l 1,47,-1
281 23 m 1,53,54
 329 -7 329 -7 392 -30 c 128,-1,55
 455 -53 455 -53 525.5 -68.5 c 128,-1,56
 596 -84 596 -84 671 -92 c 128,-1,57
 746 -100 746 -100 818 -100 c 0,58,59
 994 -100 994 -100 1127 -64.5 c 128,-1,60
 1260 -29 1260 -29 1348.5 34.5 c 128,-1,61
 1437 98 1437 98 1481.5 186 c 128,-1,62
 1526 274 1526 274 1526 379 c 0,63,64
 1526 426 1526 426 1520.5 466.5 c 128,-1,65
 1515 507 1515 507 1500.5 542.5 c 128,-1,66
 1486 578 1486 578 1461.5 609 c 128,-1,67
 1437 640 1437 640 1399 669 c 1,68,69
 1450 648 1450 648 1483 613.5 c 128,-1,70
 1516 579 1516 579 1534.5 538.5 c 128,-1,71
 1553 498 1553 498 1560 456 c 128,-1,72
 1567 414 1567 414 1567 379 c 0,73,74
 1567 249 1567 249 1512.5 152 c 128,-1,75
 1458 55 1458 55 1359.5 -10 c 128,-1,76
 1261 -75 1261 -75 1123 -107.5 c 128,-1,77
 985 -140 985 -140 818 -140 c 0,78,79
 734 -140 734 -140 654.5 -129.5 c 128,-1,80
 575 -119 575 -119 505.5 -98.5 c 128,-1,81
 436 -78 436 -78 378.5 -47.5 c 128,-1,82
 321 -17 321 -17 281 23 c 1,53,54
238 455 m 1,83,-1
 457 455 l 1,84,85
 475 486 475 486 511.5 512.5 c 128,-1,86
 548 539 548 539 600 558.5 c 128,-1,87
 652 578 652 578 718.5 589.5 c 128,-1,88
 785 601 785 601 863 601 c 0,89,90
 898 601 898 601 942.5 594 c 128,-1,91
 987 587 987 587 1028.5 573.5 c 128,-1,92
 1070 560 1070 560 1102.5 539 c 128,-1,93
 1135 518 1135 518 1146 491 c 1,94,95
 1136 502 1136 502 1108 515 c 128,-1,96
 1080 528 1080 528 1041 538.5 c 128,-1,97
 1002 549 1002 549 956 556 c 128,-1,98
 910 563 910 563 863 563 c 0,99,100
 780 563 780 563 716 552.5 c 128,-1,101
 652 542 652 542 605 522.5 c 128,-1,102
 558 503 558 503 529 476 c 128,-1,103
 500 449 500 449 488 417 c 1,104,-1
 238 417 l 1,105,-1
 238 455 l 1,83,-1
517 311 m 1,106,107
 527 294 527 294 545.5 277.5 c 128,-1,108
 564 261 564 261 585 247 c 128,-1,109
 606 233 606 233 628.5 222 c 128,-1,110
 651 211 651 211 670 205 c 1,111,112
 601 216 601 216 551.5 239 c 128,-1,113
 502 262 502 262 479 297 c 1,114,-1
 517 311 l 1,106,107
EndSplineSet
EndChar

StartChar: six
Encoding: 54 54 25
Width: 1692
GlyphClass: 2
Flags: W
LayerCount: 2
Fore
SplineSet
130 613 m 0,0,1
 130 763 130 763 182 886 c 128,-1,2
 234 1009 234 1009 329 1096.5 c 128,-1,3
 424 1184 424 1184 559 1232 c 128,-1,4
 694 1280 694 1280 859 1280 c 0,5,6
 970 1280 970 1280 1060 1265.5 c 128,-1,7
 1150 1251 1150 1251 1222 1222 c 128,-1,8
 1294 1193 1294 1193 1350 1147.5 c 128,-1,9
 1406 1102 1406 1102 1450 1041 c 1,10,-1
 1268 946 l 1,11,12
 1200 1036 1200 1036 1099.5 1078 c 128,-1,13
 999 1120 999 1120 855 1120 c 0,14,15
 745 1120 745 1120 653 1082 c 128,-1,16
 561 1044 561 1044 494 978 c 128,-1,17
 427 912 427 912 388 822 c 128,-1,18
 349 732 349 732 346 629 c 1,19,20
 380 671 380 671 433.5 706.5 c 128,-1,21
 487 742 487 742 553 768.5 c 128,-1,22
 619 795 619 795 693.5 809.5 c 128,-1,23
 768 824 768 824 845 824 c 0,24,25
 994 824 994 824 1110.5 789.5 c 128,-1,26
 1227 755 1227 755 1307 697 c 128,-1,27
 1387 639 1387 639 1428.5 563 c 128,-1,28
 1470 487 1470 487 1470 404 c 0,29,30
 1470 320 1470 320 1425 241.5 c 128,-1,31
 1380 163 1380 163 1296.5 102.5 c 128,-1,32
 1213 42 1213 42 1093.5 6 c 128,-1,33
 974 -30 974 -30 824 -30 c 0,34,35
 634 -30 634 -30 502 22 c 128,-1,36
 370 74 370 74 287.5 162.5 c 128,-1,37
 205 251 205 251 167.5 367.5 c 128,-1,38
 130 484 130 484 130 613 c 0,0,1
1328 911 m 1,39,-1
 1536 1020 l 1,40,41
 1512 1078 1512 1078 1469.5 1126.5 c 128,-1,42
 1427 1175 1427 1175 1360 1224 c 1,43,44
 1445 1190 1445 1190 1498.5 1137.5 c 128,-1,45
 1552 1085 1552 1085 1584 1007 c 1,46,-1
 1346 879 l 1,47,-1
 1328 911 l 1,39,-1
468 808 m 1,48,49
 492 865 492 865 530 911 c 128,-1,50
 568 957 568 957 618 988.5 c 128,-1,51
 668 1020 668 1020 729 1037 c 128,-1,52
 790 1054 790 1054 860 1054 c 0,53,54
 978 1054 978 1054 1050 1030.5 c 128,-1,55
 1122 1007 1122 1007 1140 975 c 1,56,57
 1080 993 1080 993 1013 1004.5 c 128,-1,58
 946 1016 946 1016 868 1016 c 0,59,60
 739 1016 739 1016 653 966.5 c 128,-1,61
 567 917 567 917 518 831 c 1,62,-1
 468 808 l 1,48,49
295 58 m 1,63,64
 398 -17 398 -17 535 -58.5 c 128,-1,65
 672 -100 672 -100 825 -100 c 0,66,67
 997 -100 997 -100 1130.5 -57 c 128,-1,68
 1264 -14 1264 -14 1355.5 56.5 c 128,-1,69
 1447 127 1447 127 1494.5 218 c 128,-1,70
 1542 309 1542 309 1542 404 c 0,71,72
 1542 501 1542 501 1503.5 576 c 128,-1,73
 1465 651 1465 651 1383 712 c 1,74,75
 1432 696 1432 696 1469.5 664 c 128,-1,76
 1507 632 1507 632 1532 590 c 128,-1,77
 1557 548 1557 548 1570 500 c 128,-1,78
 1583 452 1583 452 1583 404 c 0,79,80
 1583 290 1583 290 1527.5 191.5 c 128,-1,81
 1472 93 1472 93 1371.5 19.5 c 128,-1,82
 1271 -54 1271 -54 1131.5 -96 c 128,-1,83
 992 -138 992 -138 825 -138 c 0,84,85
 742 -138 742 -138 663.5 -124.5 c 128,-1,86
 585 -111 585 -111 516.5 -85.5 c 128,-1,87
 448 -60 448 -60 391.5 -24 c 128,-1,88
 335 12 335 12 295 58 c 1,63,64
400 404 m 0,89,90
 400 354 400 354 428.5 305 c 128,-1,91
 457 256 457 256 511 217 c 128,-1,92
 565 178 565 178 643.5 154 c 128,-1,93
 722 130 722 130 822 130 c 0,94,95
 921 130 921 130 1000 151 c 128,-1,96
 1079 172 1079 172 1134.5 209 c 128,-1,97
 1190 246 1190 246 1220 295.5 c 128,-1,98
 1250 345 1250 345 1250 402 c 0,99,100
 1250 461 1250 461 1222 509.5 c 128,-1,101
 1194 558 1194 558 1140.5 592.5 c 128,-1,102
 1087 627 1087 627 1011 645.5 c 128,-1,103
 935 664 935 664 839 664 c 0,104,105
 745 664 745 664 664.5 645 c 128,-1,106
 584 626 584 626 525.5 591.5 c 128,-1,107
 467 557 467 557 433.5 509 c 128,-1,108
 400 461 400 461 400 404 c 0,89,90
473 397 m 0,109,110
 473 428 473 428 491.5 463 c 128,-1,111
 510 498 510 498 552.5 527 c 128,-1,112
 595 556 595 556 665.5 575 c 128,-1,113
 736 594 736 594 840 594 c 0,114,115
 903 594 903 594 959.5 583.5 c 128,-1,116
 1016 573 1016 573 1058.5 557 c 128,-1,117
 1101 541 1101 541 1126 523 c 128,-1,118
 1151 505 1151 505 1151 490 c 1,119,120
 1136 503 1136 503 1103.5 515 c 128,-1,121
 1071 527 1071 527 1028.5 536 c 128,-1,122
 986 545 986 545 936 550.5 c 128,-1,123
 886 556 886 556 836 556 c 0,124,125
 743 556 743 556 681 540.5 c 128,-1,126
 619 525 619 525 581.5 502 c 128,-1,127
 544 479 544 479 528.5 450.5 c 128,-1,128
 513 422 513 422 513 397 c 0,129,130
 513 343 513 343 556 296 c 128,-1,131
 599 249 599 249 695 214 c 1,132,133
 645 220 645 220 604.5 237.5 c 128,-1,134
 564 255 564 255 534.5 279.5 c 128,-1,135
 505 304 505 304 489 334.5 c 128,-1,136
 473 365 473 365 473 397 c 0,109,110
EndSplineSet
EndChar

StartChar: seven
Encoding: 55 55 26
Width: 1531
GlyphClass: 2
Flags: W
LayerCount: 2
Fore
SplineSet
615 65 m 2,0,1
 615 209 615 209 655.5 354 c 128,-1,2
 696 499 696 499 768 633.5 c 128,-1,3
 840 768 840 768 938.5 884 c 128,-1,4
 1037 1000 1037 1000 1153 1085 c 1,5,-1
 365 1085 l 1,6,-1
 365 794 l 1,7,-1
 140 794 l 1,8,-1
 140 1245 l 1,9,-1
 1419 1245 l 1,10,-1
 1419 1085 l 1,11,12
 1287 981 1287 981 1181.5 865 c 128,-1,13
 1076 749 1076 749 1002.5 623.5 c 128,-1,14
 929 498 929 498 889.5 364 c 128,-1,15
 850 230 850 230 850 90 c 2,16,-1
 850 0 l 1,17,-1
 615 0 l 1,18,-1
 615 65 l 2,0,1
922 -70 m 1,19,-1
 922 65 l 2,20,21
 922 194 922 194 958.5 327.5 c 128,-1,22
 995 461 995 461 1066.5 589.5 c 128,-1,23
 1138 718 1138 718 1244.5 837 c 128,-1,24
 1351 956 1351 956 1491 1057 c 1,25,-1
 1491 1195 l 1,26,-1
 1531 1195 l 1,27,-1
 1531 1039 l 1,28,29
 1388 938 1388 938 1281 820 c 128,-1,30
 1174 702 1174 702 1103 574 c 128,-1,31
 1032 446 1032 446 997 311.5 c 128,-1,32
 962 177 962 177 962 44 c 2,33,-1
 962 -108 l 1,34,-1
 671 -108 l 1,35,-1
 671 -70 l 1,36,-1
 922 -70 l 1,19,-1
200 724 m 1,37,-1
 437 724 l 1,38,-1
 437 1015 l 1,39,-1
 992 1015 l 1,40,-1
 947 977 l 1,41,-1
 477 977 l 1,42,-1
 477 686 l 1,43,-1
 200 686 l 1,44,-1
 200 724 l 1,37,-1
EndSplineSet
EndChar

StartChar: eight
Encoding: 56 56 27
Width: 1651
GlyphClass: 2
Flags: W
LayerCount: 2
Fore
SplineSet
130 343 m 0,0,1
 130 443 130 443 202 516 c 128,-1,2
 274 589 274 589 401 630 c 1,3,4
 277 685 277 685 218.5 763 c 128,-1,5
 160 841 160 841 160 933 c 0,6,7
 160 1005 160 1005 195.5 1068 c 128,-1,8
 231 1131 231 1131 307.5 1178.5 c 128,-1,9
 384 1226 384 1226 504 1253 c 128,-1,10
 624 1280 624 1280 793 1280 c 0,11,12
 947 1280 947 1280 1064.5 1252 c 128,-1,13
 1182 1224 1182 1224 1260.5 1176 c 128,-1,14
 1339 1128 1339 1128 1379 1063.5 c 128,-1,15
 1419 999 1419 999 1419 926 c 0,16,17
 1419 881 1419 881 1398.5 836.5 c 128,-1,18
 1378 792 1378 792 1342.5 753 c 128,-1,19
 1307 714 1307 714 1260 682.5 c 128,-1,20
 1213 651 1213 651 1161 632 c 1,21,22
 1235 604 1235 604 1288 569 c 128,-1,23
 1341 534 1341 534 1374.5 493 c 128,-1,24
 1408 452 1408 452 1423.5 406 c 128,-1,25
 1439 360 1439 360 1439 309 c 0,26,27
 1439 238 1439 238 1403 176.5 c 128,-1,28
 1367 115 1367 115 1291.5 69 c 128,-1,29
 1216 23 1216 23 1098.5 -3.5 c 128,-1,30
 981 -30 981 -30 819 -30 c 0,31,32
 637 -30 637 -30 506.5 -0.5 c 128,-1,33
 376 29 376 29 292.5 79.5 c 128,-1,34
 209 130 209 130 169.5 198 c 128,-1,35
 130 266 130 266 130 343 c 0,0,1
228 34 m 1,36,37
 279 -3 279 -3 351 -28.5 c 128,-1,38
 423 -54 423 -54 502.5 -70 c 128,-1,39
 582 -86 582 -86 662.5 -93 c 128,-1,40
 743 -100 743 -100 811 -100 c 0,41,42
 979 -100 979 -100 1109.5 -71 c 128,-1,43
 1240 -42 1240 -42 1329 11 c 128,-1,44
 1418 64 1418 64 1464.5 140 c 128,-1,45
 1511 216 1511 216 1511 309 c 0,46,47
 1511 363 1511 363 1494 411 c 128,-1,48
 1477 459 1477 459 1447 499 c 128,-1,49
 1417 539 1417 539 1376.5 571 c 128,-1,50
 1336 603 1336 603 1289 625 c 1,51,52
 1340 650 1340 650 1377 684.5 c 128,-1,53
 1414 719 1414 719 1439 759 c 128,-1,54
 1464 799 1464 799 1476 842.5 c 128,-1,55
 1488 886 1488 886 1488 928 c 0,56,57
 1488 1022 1488 1022 1445 1087.5 c 128,-1,58
 1402 1153 1402 1153 1317 1198 c 1,59,60
 1378 1182 1378 1182 1418.5 1151 c 128,-1,61
 1459 1120 1459 1120 1483.5 1081.5 c 128,-1,62
 1508 1043 1508 1043 1518 1001 c 128,-1,63
 1528 959 1528 959 1528 922 c 0,64,65
 1528 837 1528 837 1487 761 c 128,-1,66
 1446 685 1446 685 1361 625 c 1,67,68
 1452 565 1452 565 1501.5 485 c 128,-1,69
 1551 405 1551 405 1551 309 c 0,70,71
 1551 198 1551 198 1498 114 c 128,-1,72
 1445 30 1445 30 1348 -26 c 128,-1,73
 1251 -82 1251 -82 1114.5 -110 c 128,-1,74
 978 -138 978 -138 811 -138 c 0,75,76
 721 -138 721 -138 637 -128 c 128,-1,77
 553 -118 553 -118 478 -97 c 128,-1,78
 403 -76 403 -76 339.5 -43.5 c 128,-1,79
 276 -11 276 -11 228 34 c 1,36,37
385 942 m 0,80,81
 385 904 385 904 406.5 869 c 128,-1,82
 428 834 428 834 481 804 c 128,-1,83
 534 774 534 774 625 748.5 c 128,-1,84
 716 723 716 723 855 704 c 1,85,-1
 915 695 l 1,86,87
 980 707 980 707 1033.5 728.5 c 128,-1,88
 1087 750 1087 750 1125 779.5 c 128,-1,89
 1163 809 1163 809 1184 844.5 c 128,-1,90
 1205 880 1205 880 1205 920 c 0,91,92
 1205 962 1205 962 1173.5 998.5 c 128,-1,93
 1142 1035 1142 1035 1085.5 1062 c 128,-1,94
 1029 1089 1029 1089 951 1104.5 c 128,-1,95
 873 1120 873 1120 779 1120 c 0,96,97
 669 1120 669 1120 594 1103 c 128,-1,98
 519 1086 519 1086 472.5 1060 c 128,-1,99
 426 1034 426 1034 405.5 1002.5 c 128,-1,100
 385 971 385 971 385 942 c 0,80,81
615 824 m 1,101,102
 537 837 537 837 497 862.5 c 128,-1,103
 457 888 457 888 457 933 c 0,104,105
 457 954 457 954 471.5 977 c 128,-1,106
 486 1000 486 1000 522 1019.5 c 128,-1,107
 558 1039 558 1039 620 1051.5 c 128,-1,108
 682 1064 682 1064 777 1064 c 0,109,110
 859 1064 859 1064 922.5 1054 c 128,-1,111
 986 1044 986 1044 1030.5 1029 c 128,-1,112
 1075 1014 1075 1014 1098.5 995.5 c 128,-1,113
 1122 977 1122 977 1124 959 c 1,114,115
 1119 967 1119 967 1091.5 979 c 128,-1,116
 1064 991 1064 991 1018 1001.5 c 128,-1,117
 972 1012 972 1012 910.5 1019.5 c 128,-1,118
 849 1027 849 1027 776 1027 c 0,119,120
 698 1027 698 1027 644.5 1017 c 128,-1,121
 591 1007 591 1007 558 991.5 c 128,-1,122
 525 976 525 976 511 957.5 c 128,-1,123
 497 939 497 939 497 923 c 0,124,125
 497 893 497 893 526 869 c 128,-1,126
 555 845 555 845 615 824 c 1,101,102
355 355 m 0,127,128
 355 308 355 308 387.5 267.5 c 128,-1,129
 420 227 420 227 481 196 c 128,-1,130
 542 165 542 165 630.5 147.5 c 128,-1,131
 719 130 719 130 830 130 c 256,132,133
 941 130 941 130 1017 145 c 128,-1,134
 1093 160 1093 160 1139 185 c 128,-1,135
 1185 210 1185 210 1205 241.5 c 128,-1,136
 1225 273 1225 273 1225 305 c 0,137,138
 1225 345 1225 345 1203 380 c 128,-1,139
 1181 415 1181 415 1124 445 c 128,-1,140
 1067 475 1067 475 968.5 500.5 c 128,-1,141
 870 526 870 526 717 547 c 0,142,143
 687 551 687 551 659 555.5 c 128,-1,144
 631 560 631 560 605 566 c 1,145,146
 552 554 552 554 506.5 534 c 128,-1,147
 461 514 461 514 427.5 487 c 128,-1,148
 394 460 394 460 374.5 427 c 128,-1,149
 355 394 355 394 355 355 c 0,127,128
428 353 m 0,150,151
 428 370 428 370 436 394 c 128,-1,152
 444 418 444 418 465 441.5 c 128,-1,153
 486 465 486 465 523.5 483.5 c 128,-1,154
 561 502 561 502 621 508 c 1,155,156
 773 485 773 485 874 463.5 c 128,-1,157
 975 442 975 442 1035 422 c 128,-1,158
 1095 402 1095 402 1119.5 383.5 c 128,-1,159
 1144 365 1144 365 1144 349 c 1,160,161
 1140 356 1140 356 1099 371.5 c 128,-1,162
 1058 387 1058 387 988.5 405.5 c 128,-1,163
 919 424 919 424 826 442 c 128,-1,164
 733 460 733 460 625 472 c 1,165,166
 595 472 595 472 566.5 462 c 128,-1,167
 538 452 538 452 516 435 c 128,-1,168
 494 418 494 418 481 396.5 c 128,-1,169
 468 375 468 375 468 353 c 0,170,171
 468 329 468 329 478.5 306 c 128,-1,172
 489 283 489 283 507.5 264 c 128,-1,173
 526 245 526 245 551 232 c 128,-1,174
 576 219 576 219 606 214 c 1,175,176
 568 214 568 214 535.5 225.5 c 128,-1,177
 503 237 503 237 479 256.5 c 128,-1,178
 455 276 455 276 441.5 301 c 128,-1,179
 428 326 428 326 428 353 c 0,150,151
EndSplineSet
EndChar

StartChar: nine
Encoding: 57 57 28
Width: 1677
GlyphClass: 2
Flags: W
LayerCount: 2
Fore
SplineSet
330 298 m 1,0,1
 401 209 401 209 507.5 169.5 c 128,-1,2
 614 130 614 130 768 130 c 0,3,4
 884 130 884 130 974 165 c 128,-1,5
 1064 200 1064 200 1126 264.5 c 128,-1,6
 1188 329 1188 329 1220.5 421.5 c 128,-1,7
 1253 514 1253 514 1254 629 c 1,8,9
 1218 590 1218 590 1167 556 c 128,-1,10
 1116 522 1116 522 1053 497.5 c 128,-1,11
 990 473 990 473 915 459 c 128,-1,12
 840 445 840 445 755 445 c 0,13,14
 606 445 606 445 489.5 478.5 c 128,-1,15
 373 512 373 512 293 569.5 c 128,-1,16
 213 627 213 627 171.5 705.5 c 128,-1,17
 130 784 130 784 130 874 c 0,18,19
 130 953 130 953 173.5 1026 c 128,-1,20
 217 1099 217 1099 299.5 1155.5 c 128,-1,21
 382 1212 382 1212 500 1246 c 128,-1,22
 618 1280 618 1280 768 1280 c 0,23,24
 930 1280 930 1280 1059.5 1232.5 c 128,-1,25
 1189 1185 1189 1185 1280.5 1098.5 c 128,-1,26
 1372 1012 1372 1012 1421 891.5 c 128,-1,27
 1470 771 1470 771 1470 624 c 0,28,29
 1470 478 1470 478 1421 358 c 128,-1,30
 1372 238 1372 238 1281 151.5 c 128,-1,31
 1190 65 1190 65 1059 17.5 c 128,-1,32
 928 -30 928 -30 765 -30 c 0,33,34
 539 -30 539 -30 387 29 c 128,-1,35
 235 88 235 88 144 209 c 1,36,-1
 330 298 l 1,0,1
238 30 m 1,37,38
 295 -4 295 -4 353.5 -28.5 c 128,-1,39
 412 -53 412 -53 476 -68.5 c 128,-1,40
 540 -84 540 -84 612 -91.5 c 128,-1,41
 684 -99 684 -99 768 -99 c 0,42,43
 948 -99 948 -99 1091 -45.5 c 128,-1,44
 1234 8 1234 8 1334.5 104 c 128,-1,45
 1435 200 1435 200 1488.5 332.5 c 128,-1,46
 1542 465 1542 465 1542 623 c 0,47,48
 1542 722 1542 722 1520.5 809 c 128,-1,49
 1499 896 1499 896 1462 969 c 128,-1,50
 1425 1042 1425 1042 1374.5 1099 c 128,-1,51
 1324 1156 1324 1156 1266 1194 c 1,52,53
 1345 1159 1345 1159 1404.5 1099 c 128,-1,54
 1464 1039 1464 1039 1504 962.5 c 128,-1,55
 1544 886 1544 886 1564 798.5 c 128,-1,56
 1584 711 1584 711 1584 622 c 0,57,58
 1584 455 1584 455 1528.5 315.5 c 128,-1,59
 1473 176 1473 176 1368 75.5 c 128,-1,60
 1263 -25 1263 -25 1111.5 -81 c 128,-1,61
 960 -137 960 -137 768 -137 c 0,62,63
 572 -137 572 -137 439.5 -94 c 128,-1,64
 307 -51 307 -51 238 30 c 1,37,38
350 871 m 0,65,66
 350 812 350 812 378 763 c 128,-1,67
 406 714 406 714 459.5 679 c 128,-1,68
 513 644 513 644 589 624.5 c 128,-1,69
 665 605 665 605 761 605 c 0,70,71
 860 605 860 605 941 624.5 c 128,-1,72
 1022 644 1022 644 1079.5 678.5 c 128,-1,73
 1137 713 1137 713 1168.5 759.5 c 128,-1,74
 1200 806 1200 806 1200 861 c 0,75,76
 1200 906 1200 906 1170 952.5 c 128,-1,77
 1140 999 1140 999 1084 1036 c 128,-1,78
 1028 1073 1028 1073 947.5 1096.5 c 128,-1,79
 867 1120 867 1120 767 1120 c 0,80,81
 665 1120 665 1120 587.5 1100 c 128,-1,82
 510 1080 510 1080 457 1046.5 c 128,-1,83
 404 1013 404 1013 377 967.5 c 128,-1,84
 350 922 350 922 350 871 c 0,65,66
637 688 m 1,85,86
 578 698 578 698 537.5 715.5 c 128,-1,87
 497 733 497 733 471 757 c 128,-1,88
 445 781 445 781 433.5 809.5 c 128,-1,89
 422 838 422 838 422 870 c 0,90,91
 422 906 422 906 443 938.5 c 128,-1,92
 464 971 464 971 506.5 995.5 c 128,-1,93
 549 1020 549 1020 614 1035 c 128,-1,94
 679 1050 679 1050 767 1050 c 0,95,96
 825 1050 825 1050 876.5 1040.5 c 128,-1,97
 928 1031 928 1031 966 1016.5 c 128,-1,98
 1004 1002 1004 1002 1026 985 c 128,-1,99
 1048 968 1048 968 1048 954 c 1,100,101
 994 982 994 982 923 997 c 128,-1,102
 852 1012 852 1012 767 1012 c 0,103,104
 686 1012 686 1012 628.5 999.5 c 128,-1,105
 571 987 571 987 534 966 c 128,-1,106
 497 945 497 945 479.5 918 c 128,-1,107
 462 891 462 891 462 862 c 0,108,109
 462 817 462 817 501.5 770.5 c 128,-1,110
 541 724 541 724 637 688 c 1,85,86
343 460 m 1,111,112
 385 440 385 440 434.5 424.5 c 128,-1,113
 484 409 484 409 537.5 398 c 128,-1,114
 591 387 591 387 646.5 381 c 128,-1,115
 702 375 702 375 755 375 c 0,116,117
 831 375 831 375 894 383.5 c 128,-1,118
 957 392 957 392 1010.5 407 c 128,-1,119
 1064 422 1064 422 1108 442.5 c 128,-1,120
 1152 463 1152 463 1190 487 c 1,121,-1
 1173 433 l 1,122,123
 1135 412 1135 412 1092.5 394 c 128,-1,124
 1050 376 1050 376 999 363.5 c 128,-1,125
 948 351 948 351 887.5 344 c 128,-1,126
 827 337 827 337 755 337 c 0,127,128
 694 337 694 337 634 345 c 128,-1,129
 574 353 574 353 520 369 c 128,-1,130
 466 385 466 385 420.5 408 c 128,-1,131
 375 431 375 431 343 460 c 1,111,112
500 296 m 1,132,133
 529 258 529 258 566.5 232.5 c 128,-1,134
 604 207 604 207 661 189 c 1,135,136
 631 192 631 192 600 200.5 c 128,-1,137
 569 209 569 209 542 221 c 128,-1,138
 515 233 515 233 494.5 247.5 c 128,-1,139
 474 262 474 262 464 278 c 1,140,-1
 500 296 l 1,132,133
EndSplineSet
EndChar

StartChar: colon
Encoding: 58 58 29
Width: 712
GlyphClass: 2
Flags: W
LayerCount: 2
Fore
SplineSet
155 860 m 1,0,-1
 480 860 l 1,1,-1
 480 600 l 1,2,-1
 155 600 l 1,3,-1
 155 860 l 1,0,-1
215 530 m 1,4,-1
 552 530 l 1,5,-1
 552 804 l 1,6,-1
 592 804 l 1,7,-1
 592 492 l 1,8,-1
 215 492 l 1,9,-1
 215 530 l 1,4,-1
155 260 m 1,10,-1
 480 260 l 1,11,-1
 480 0 l 1,12,-1
 155 0 l 1,13,-1
 155 260 l 1,10,-1
552 -70 m 1,14,-1
 552 204 l 1,15,-1
 592 204 l 1,16,-1
 592 -108 l 1,17,-1
 215 -108 l 1,18,-1
 215 -70 l 1,19,-1
 552 -70 l 1,14,-1
EndSplineSet
EndChar

StartChar: semicolon
Encoding: 59 59 30
Width: 704
GlyphClass: 2
Flags: W
LayerCount: 2
Fore
SplineSet
130 860 m 1,0,-1
 455 860 l 1,1,-1
 455 600 l 1,2,-1
 130 600 l 1,3,-1
 130 860 l 1,0,-1
190 530 m 1,4,-1
 527 530 l 1,5,-1
 527 804 l 1,6,-1
 567 804 l 1,7,-1
 567 492 l 1,8,-1
 190 492 l 1,9,-1
 190 530 l 1,4,-1
157 260 m 1,10,-1
 482 260 l 1,11,-1
 482 37 l 2,12,13
 482 -152 482 -152 396 -242 c 128,-1,14
 310 -332 310 -332 153 -332 c 1,15,-1
 153 -211 l 1,16,17
 199 -211 199 -211 234 -202 c 128,-1,18
 269 -193 269 -193 293.5 -169 c 128,-1,19
 318 -145 318 -145 331 -104 c 128,-1,20
 344 -63 344 -63 346 0 c 1,21,-1
 157 0 l 1,22,-1
 157 260 l 1,10,-1
153 -402 m 1,23,24
 241 -402 241 -402 314.5 -376.5 c 128,-1,25
 388 -351 388 -351 441.5 -297.5 c 128,-1,26
 495 -244 495 -244 524.5 -161 c 128,-1,27
 554 -78 554 -78 554 37 c 2,28,-1
 554 204 l 1,29,-1
 594 204 l 1,30,-1
 594 37 l 2,31,32
 594 -80 594 -80 562.5 -169.5 c 128,-1,33
 531 -259 531 -259 473.5 -319 c 128,-1,34
 416 -379 416 -379 334.5 -409.5 c 128,-1,35
 253 -440 253 -440 153 -440 c 1,36,-1
 153 -402 l 1,23,24
296 -70 m 1,37,38
 294 -78 294 -78 291 -89.5 c 128,-1,39
 288 -101 288 -101 285 -108 c 1,40,-1
 217 -108 l 1,41,-1
 217 -70 l 1,42,-1
 296 -70 l 1,37,38
EndSplineSet
EndChar

StartChar: less
Encoding: 60 60 31
Width: 1278
GlyphClass: 2
Flags: W
LayerCount: 2
Fore
SplineSet
120 658 m 1,0,-1
 996 1077 l 1,1,-1
 996 865 l 1,2,-1
 283 533 l 1,3,-1
 996 202 l 1,4,-1
 996 -6 l 1,5,-1
 120 413 l 1,6,-1
 120 658 l 1,0,-1
1068 820 m 1,7,-1
 1068 1007 l 1,8,-1
 1108 1033 l 1,9,-1
 1108 793 l 1,10,-1
 549 533 l 1,11,-1
 1108 273 l 1,12,-1
 1108 -10 l 1,13,-1
 1068 21 l 1,14,-1
 1068 246 l 1,15,-1
 452 534 l 1,16,-1
 1068 820 l 1,7,-1
EndSplineSet
EndChar

StartChar: equal
Encoding: 61 61 32
Width: 1188
GlyphClass: 2
Flags: W
LayerCount: 2
Fore
SplineSet
160 869 m 1,0,-1
 926 869 l 1,1,-1
 926 724 l 1,2,-1
 160 724 l 1,3,-1
 160 869 l 1,0,-1
246 654 m 1,4,-1
 998 654 l 1,5,-1
 998 813 l 1,6,-1
 1038 813 l 1,7,-1
 1038 616 l 1,8,-1
 246 616 l 1,9,-1
 246 654 l 1,4,-1
160 491 m 1,10,-1
 926 491 l 1,11,-1
 926 346 l 1,12,-1
 160 346 l 1,13,-1
 160 491 l 1,10,-1
246 276 m 1,14,-1
 998 276 l 1,15,-1
 998 435 l 1,16,-1
 1038 435 l 1,17,-1
 1038 238 l 1,18,-1
 246 238 l 1,19,-1
 246 276 l 1,14,-1
EndSplineSet
EndChar

StartChar: greater
Encoding: 62 62 33
Width: 1278
GlyphClass: 2
Flags: W
LayerCount: 2
Fore
SplineSet
170 199 m 1,0,-1
 883 530 l 1,1,-1
 170 862 l 1,2,-1
 170 1077 l 1,3,-1
 1046 658 l 1,4,-1
 1046 413 l 1,5,-1
 170 -6 l 1,6,-1
 170 199 l 1,0,-1
210 762 m 1,7,-1
 735 523 l 1,8,-1
 685 501 l 1,9,-1
 210 717 l 1,10,-1
 210 762 l 1,7,-1
1118 356 m 1,11,-1
 1118 582 l 1,12,-1
 1158 563 l 1,13,-1
 1158 330 l 1,14,-1
 210 -113 l 1,15,-1
 210 -68 l 1,16,-1
 1118 356 l 1,11,-1
EndSplineSet
EndChar

StartChar: question
Encoding: 63 63 34
Width: 1329
GlyphClass: 2
Flags: W
LayerCount: 2
Fore
SplineSet
479 490 m 1,0,1
 479 523 479 523 488.5 557.5 c 128,-1,2
 498 592 498 592 522 628.5 c 128,-1,3
 546 665 546 665 586.5 705.5 c 128,-1,4
 627 746 627 746 689 791 c 0,5,6
 761 843 761 843 805 880 c 128,-1,7
 849 917 849 917 872.5 944.5 c 128,-1,8
 896 972 896 972 904 992.5 c 128,-1,9
 912 1013 912 1013 912 1033 c 0,10,11
 912 1068 912 1068 893 1100 c 128,-1,12
 874 1132 874 1132 839 1156.5 c 128,-1,13
 804 1181 804 1181 755 1195.5 c 128,-1,14
 706 1210 706 1210 645 1210 c 0,15,16
 493 1210 493 1210 409 1142 c 128,-1,17
 325 1074 325 1074 325 933 c 1,18,-1
 70 933 l 1,19,20
 70 1035 70 1035 109 1116.5 c 128,-1,21
 148 1198 148 1198 223 1254 c 128,-1,22
 298 1310 298 1310 406.5 1340 c 128,-1,23
 515 1370 515 1370 654 1370 c 0,24,25
 788 1370 788 1370 886.5 1344.5 c 128,-1,26
 985 1319 985 1319 1049.5 1275.5 c 128,-1,27
 1114 1232 1114 1232 1145.5 1175.5 c 128,-1,28
 1177 1119 1177 1119 1177 1056 c 0,29,30
 1177 1018 1177 1018 1167 985.5 c 128,-1,31
 1157 953 1157 953 1129 917 c 128,-1,32
 1101 881 1101 881 1051.5 836.5 c 128,-1,33
 1002 792 1002 792 923 732 c 0,34,35
 869 691 869 691 834 656 c 128,-1,36
 799 621 799 621 779 591 c 128,-1,37
 759 561 759 561 751.5 536 c 128,-1,38
 744 511 744 511 744 490 c 1,39,-1
 479 490 l 1,0,1
539 420 m 1,40,-1
 807 420 l 1,41,42
 808 457 808 457 815.5 488 c 128,-1,43
 823 519 823 519 841.5 549 c 128,-1,44
 860 579 860 579 892.5 611 c 128,-1,45
 925 643 925 643 976 682 c 0,46,47
 1060 746 1060 746 1113 795 c 128,-1,48
 1166 844 1166 844 1196.5 886.5 c 128,-1,49
 1227 929 1227 929 1238 969 c 128,-1,50
 1249 1009 1249 1009 1249 1057 c 0,51,52
 1249 1085 1249 1085 1243.5 1113 c 128,-1,53
 1238 1141 1238 1141 1224 1170.5 c 128,-1,54
 1210 1200 1210 1200 1186 1232.5 c 128,-1,55
 1162 1265 1162 1265 1125 1302 c 1,56,57
 1164 1285 1164 1285 1194.5 1258 c 128,-1,58
 1225 1231 1225 1231 1246 1198 c 128,-1,59
 1267 1165 1267 1165 1278 1128.5 c 128,-1,60
 1289 1092 1289 1092 1289 1057 c 0,61,62
 1289 1010 1289 1010 1279 970 c 128,-1,63
 1269 930 1269 930 1239 885.5 c 128,-1,64
 1209 841 1209 841 1153 787 c 128,-1,65
 1097 733 1097 733 1005 658 c 0,66,67
 955 617 955 617 924 586 c 128,-1,68
 893 555 893 555 875.5 525 c 128,-1,69
 858 495 858 495 852 461.5 c 128,-1,70
 846 428 846 428 846 382 c 1,71,-1
 539 382 l 1,72,-1
 539 420 l 1,40,-1
126 863 m 1,73,-1
 397 863 l 1,74,-1
 397 880 l 2,75,76
 397 947 397 947 409.5 996 c 128,-1,77
 422 1045 422 1045 450.5 1077 c 128,-1,78
 479 1109 479 1109 526.5 1124.5 c 128,-1,79
 574 1140 574 1140 645 1140 c 0,80,81
 683 1140 683 1140 716 1130.5 c 128,-1,82
 749 1121 749 1121 773 1105 c 128,-1,83
 797 1089 797 1089 811 1068 c 128,-1,84
 825 1047 825 1047 825 1024 c 1,85,86
 818 1036 818 1036 801.5 1049.5 c 128,-1,87
 785 1063 785 1063 761 1074.5 c 128,-1,88
 737 1086 737 1086 707.5 1094 c 128,-1,89
 678 1102 678 1102 645 1102 c 0,90,91
 588 1102 588 1102 548.5 1090 c 128,-1,92
 509 1078 509 1078 484.5 1052 c 128,-1,93
 460 1026 460 1026 448.5 983.5 c 128,-1,94
 437 941 437 941 437 881 c 2,95,-1
 437 825 l 1,96,-1
 126 825 l 1,97,-1
 126 863 l 1,73,-1
482 260 m 1,98,-1
 807 260 l 1,99,-1
 807 0 l 1,100,-1
 482 0 l 1,101,-1
 482 260 l 1,98,-1
879 -70 m 1,102,-1
 879 204 l 1,103,-1
 919 204 l 1,104,-1
 919 -108 l 1,105,-1
 542 -108 l 1,106,-1
 542 -70 l 1,107,-1
 879 -70 l 1,102,-1
EndSplineSet
EndChar

StartChar: at
Encoding: 64 64 35
Width: 2573
GlyphClass: 2
Flags: W
LayerCount: 2
Fore
SplineSet
110 395 m 0,0,1
 110 508 110 508 143 617.5 c 128,-1,2
 176 727 176 727 241 825.5 c 128,-1,3
 306 924 306 924 403.5 1007.5 c 128,-1,4
 501 1091 501 1091 630 1151.5 c 128,-1,5
 759 1212 759 1212 919 1246 c 128,-1,6
 1079 1280 1079 1280 1270 1280 c 0,7,8
 1438 1280 1438 1280 1585.5 1253 c 128,-1,9
 1733 1226 1733 1226 1855 1177 c 128,-1,10
 1977 1128 1977 1128 2073 1060 c 128,-1,11
 2169 992 2169 992 2235 910 c 128,-1,12
 2301 828 2301 828 2336 734.5 c 128,-1,13
 2371 641 2371 641 2371 542 c 0,14,15
 2371 434 2371 434 2334 336 c 128,-1,16
 2297 238 2297 238 2219 163.5 c 128,-1,17
 2141 89 2141 89 2020 44.5 c 128,-1,18
 1899 0 1899 0 1732 0 c 2,19,-1
 1530 0 l 1,20,-1
 1530 103 l 1,21,22
 1498 71 1498 71 1459 46.5 c 128,-1,23
 1420 22 1420 22 1375.5 5 c 128,-1,24
 1331 -12 1331 -12 1284 -21 c 128,-1,25
 1237 -30 1237 -30 1189 -30 c 0,26,27
 1063 -30 1063 -30 968.5 2.5 c 128,-1,28
 874 35 874 35 810 91.5 c 128,-1,29
 746 148 746 148 714 222.5 c 128,-1,30
 682 297 682 297 682 381 c 0,31,32
 682 471 682 471 720 546.5 c 128,-1,33
 758 622 758 622 826 676.5 c 128,-1,34
 894 731 894 731 987.5 761 c 128,-1,35
 1081 791 1081 791 1192 791 c 0,36,37
 1292 791 1292 791 1381 761.5 c 128,-1,38
 1470 732 1470 732 1530 675 c 1,39,-1
 1530 768 l 1,40,-1
 1746 768 l 1,41,-1
 1746 119 l 1,42,43
 1837 120 1837 120 1912.5 142 c 128,-1,44
 1988 164 1988 164 2042 212.5 c 128,-1,45
 2096 261 2096 261 2125.5 338.5 c 128,-1,46
 2155 416 2155 416 2155 529 c 0,47,48
 2155 616 2155 616 2123.5 693.5 c 128,-1,49
 2092 771 2092 771 2034.5 836.5 c 128,-1,50
 1977 902 1977 902 1896 954.5 c 128,-1,51
 1815 1007 1815 1007 1716 1044 c 128,-1,52
 1617 1081 1617 1081 1502.5 1100.5 c 128,-1,53
 1388 1120 1388 1120 1264 1120 c 0,54,55
 1122 1120 1122 1120 997.5 1093.5 c 128,-1,56
 873 1067 873 1067 769 1019 c 128,-1,57
 665 971 665 971 582.5 904.5 c 128,-1,58
 500 838 500 838 443 757 c 128,-1,59
 386 676 386 676 356 584 c 128,-1,60
 326 492 326 492 326 394 c 0,61,62
 326 279 326 279 359.5 178 c 128,-1,63
 393 77 393 77 455.5 -6.5 c 128,-1,64
 518 -90 518 -90 606.5 -156 c 128,-1,65
 695 -222 695 -222 805 -267 c 128,-1,66
 915 -312 915 -312 1043.5 -336 c 128,-1,67
 1172 -360 1172 -360 1314 -360 c 0,68,69
 1422 -360 1422 -360 1512.5 -350 c 128,-1,70
 1603 -340 1603 -340 1682 -320.5 c 128,-1,71
 1761 -301 1761 -301 1832 -271.5 c 128,-1,72
 1903 -242 1903 -242 1973 -204 c 1,73,-1
 2097 -327 l 1,74,75
 1927 -431 1927 -431 1731 -475.5 c 128,-1,76
 1535 -520 1535 -520 1324 -520 c 0,77,78
 1147 -520 1147 -520 988.5 -491.5 c 128,-1,79
 830 -463 830 -463 695 -408 c 128,-1,80
 560 -353 560 -353 452 -273.5 c 128,-1,81
 344 -194 344 -194 268 -92 c 128,-1,82
 192 10 192 10 151 132.5 c 128,-1,83
 110 255 110 255 110 395 c 0,0,1
1733 -70 m 2,84,85
 1896 -70 1896 -70 2027.5 -27.5 c 128,-1,86
 2159 15 2159 15 2251 94.5 c 128,-1,87
 2343 174 2343 174 2393 287.5 c 128,-1,88
 2443 401 2443 401 2443 542 c 0,89,90
 2443 644 2443 644 2407.5 741 c 128,-1,91
 2372 838 2372 838 2311.5 922 c 128,-1,92
 2251 1006 2251 1006 2170 1073.5 c 128,-1,93
 2089 1141 2089 1141 1999 1185 c 1,94,95
 2099 1152 2099 1152 2187 1091 c 128,-1,96
 2275 1030 2275 1030 2341 947 c 128,-1,97
 2407 864 2407 864 2445 761.5 c 128,-1,98
 2483 659 2483 659 2483 543 c 0,99,100
 2483 396 2483 396 2432 276 c 128,-1,101
 2381 156 2381 156 2284.5 70.5 c 128,-1,102
 2188 -15 2188 -15 2048.5 -61.5 c 128,-1,103
 1909 -108 1909 -108 1732 -108 c 2,104,-1
 1577 -108 l 1,105,-1
 1577 -70 l 1,106,-1
 1733 -70 l 2,84,85
398 394 m 0,107,108
 398 531 398 531 461 650.5 c 128,-1,109
 524 770 524 770 638 859 c 128,-1,110
 752 948 752 948 911.5 999 c 128,-1,111
 1071 1050 1071 1050 1264 1050 c 0,112,113
 1351 1050 1351 1050 1437.5 1039 c 128,-1,114
 1524 1028 1524 1028 1605 1006.5 c 128,-1,115
 1686 985 1686 985 1758.5 953 c 128,-1,116
 1831 921 1831 921 1890 879 c 1,117,118
 1745 951 1745 951 1585.5 981.5 c 128,-1,119
 1426 1012 1426 1012 1264 1012 c 0,120,121
 1070 1012 1070 1012 917 960.5 c 128,-1,122
 764 909 764 909 657.5 823.5 c 128,-1,123
 551 738 551 738 494.5 626 c 128,-1,124
 438 514 438 514 438 394 c 0,125,126
 438 220 438 220 513.5 81 c 128,-1,127
 589 -58 589 -58 722 -150 c 1,128,129
 639 -113 639 -113 578 -55.5 c 128,-1,130
 517 2 517 2 477 73.5 c 128,-1,131
 437 145 437 145 417.5 227 c 128,-1,132
 398 309 398 309 398 394 c 0,107,108
1816 723 m 1,133,-1
 1856 723 l 1,134,-1
 1856 189 l 1,135,136
 1851 187 1851 187 1836 185 c 128,-1,137
 1821 183 1821 183 1816 183 c 1,138,-1
 1816 723 l 1,133,-1
898 387 m 0,139,140
 898 330 898 330 918 282.5 c 128,-1,141
 938 235 938 235 976.5 201.5 c 128,-1,142
 1015 168 1015 168 1070 149 c 128,-1,143
 1125 130 1125 130 1195 130 c 0,144,145
 1258 130 1258 130 1318 144.5 c 128,-1,146
 1378 159 1378 159 1425.5 190.5 c 128,-1,147
 1473 222 1473 222 1501.5 271.5 c 128,-1,148
 1530 321 1530 321 1530 390 c 0,149,150
 1530 450 1530 450 1501 495 c 128,-1,151
 1472 540 1472 540 1424.5 570 c 128,-1,152
 1377 600 1377 600 1316.5 615.5 c 128,-1,153
 1256 631 1256 631 1193 631 c 0,154,155
 1121 631 1121 631 1066 611.5 c 128,-1,156
 1011 592 1011 592 973.5 559 c 128,-1,157
 936 526 936 526 917 481.5 c 128,-1,158
 898 437 898 437 898 387 c 0,139,140
970 380 m 0,159,160
 970 420 970 420 984.5 453.5 c 128,-1,161
 999 487 999 487 1027.5 511 c 128,-1,162
 1056 535 1056 535 1098 548.5 c 128,-1,163
 1140 562 1140 562 1195 562 c 0,164,165
 1283 562 1283 562 1344 533 c 128,-1,166
 1405 504 1405 504 1432 462 c 1,167,168
 1384 491 1384 491 1322.5 507.5 c 128,-1,169
 1261 524 1261 524 1195 524 c 0,170,171
 1149 524 1149 524 1114.5 512.5 c 128,-1,172
 1080 501 1080 501 1056.5 481.5 c 128,-1,173
 1033 462 1033 462 1021.5 436 c 128,-1,174
 1010 410 1010 410 1010 381 c 0,175,176
 1010 317 1010 317 1045.5 273 c 128,-1,177
 1081 229 1081 229 1154 200 c 1,178,179
 1108 203 1108 203 1073.5 218.5 c 128,-1,180
 1039 234 1039 234 1016 258.5 c 128,-1,181
 993 283 993 283 981.5 314 c 128,-1,182
 970 345 970 345 970 380 c 0,159,160
788 19 m 1,183,184
 821 -7 821 -7 869 -29 c 128,-1,185
 917 -51 917 -51 971 -67 c 128,-1,186
 1025 -83 1025 -83 1082 -91.5 c 128,-1,187
 1139 -100 1139 -100 1190 -100 c 0,188,189
 1278 -100 1278 -100 1356 -77.5 c 128,-1,190
 1434 -55 1434 -55 1488 -16 c 1,191,-1
 1488 -60 l 1,192,193
 1461 -78 1461 -78 1427 -92 c 128,-1,194
 1393 -106 1393 -106 1355 -116.5 c 128,-1,195
 1317 -127 1317 -127 1275 -132.5 c 128,-1,196
 1233 -138 1233 -138 1191 -138 c 0,197,198
 1127 -138 1127 -138 1066 -127 c 128,-1,199
 1005 -116 1005 -116 952 -96 c 128,-1,200
 899 -76 899 -76 856.5 -46.5 c 128,-1,201
 814 -17 814 -17 788 19 c 1,183,184
373 -330 m 1,202,203
 470 -396 470 -396 586 -445 c 128,-1,204
 702 -494 702 -494 826 -526.5 c 128,-1,205
 950 -559 950 -559 1076.5 -574.5 c 128,-1,206
 1203 -590 1203 -590 1322 -590 c 0,207,208
 1440 -590 1440 -590 1548 -575.5 c 128,-1,209
 1656 -561 1656 -561 1752 -536 c 128,-1,210
 1848 -511 1848 -511 1932.5 -477.5 c 128,-1,211
 2017 -444 2017 -444 2088 -406 c 1,212,-1
 2129 -441 l 1,213,214
 1980 -527 1980 -527 1778.5 -577.5 c 128,-1,215
 1577 -628 1577 -628 1319 -628 c 0,216,217
 1178 -628 1178 -628 1038 -609.5 c 128,-1,218
 898 -591 898 -591 772.5 -554 c 128,-1,219
 647 -517 647 -517 543.5 -461 c 128,-1,220
 440 -405 440 -405 373 -330 c 1,202,203
EndSplineSet
EndChar

StartChar: A
Encoding: 65 65 36
Width: 2109
GlyphClass: 2
Flags: W
LayerCount: 2
Fore
SplineSet
0 160 m 1,0,-1
 216 160 l 1,1,-1
 874 1245 l 1,2,-1
 1090 1245 l 1,3,-1
 1736 160 l 1,4,-1
 1996 160 l 1,5,-1
 1996 0 l 1,6,-1
 1226 0 l 1,7,-1
 1226 160 l 1,8,-1
 1468 160 l 1,9,-1
 1323 415 l 1,10,-1
 622 415 l 1,11,-1
 481 160 l 1,12,-1
 712 160 l 1,13,-1
 712 0 l 1,14,-1
 0 0 l 1,15,-1
 0 160 l 1,0,-1
1249 1194 m 1,16,-1
 1828 220 l 1,17,-1
 1782 220 l 1,18,-1
 1203 1194 l 1,19,-1
 1249 1194 l 1,16,-1
1251 540 m 1,20,-1
 968 1037 l 1,21,-1
 692 540 l 1,22,-1
 1251 540 l 1,20,-1
986 923 m 1,23,-1
 1010 879 l 1,24,-1
 849 600 l 1,25,-1
 800 600 l 1,26,-1
 986 923 l 1,23,-1
661 345 m 1,27,-1
 1314 345 l 1,28,-1
 1332 307 l 1,29,-1
 691 307 l 1,30,-1
 644 220 l 1,31,-1
 593 220 l 1,32,-1
 661 345 l 1,27,-1
2067 -70 m 1,33,-1
 2067 105 l 1,34,-1
 2109 105 l 1,35,-1
 2109 -108 l 1,36,-1
 1269 -108 l 1,37,-1
 1269 -70 l 1,38,-1
 2067 -70 l 1,33,-1
784 -70 m 1,39,-1
 784 105 l 1,40,-1
 824 105 l 1,41,-1
 824 -108 l 1,42,-1
 44 -108 l 1,43,-1
 44 -70 l 1,44,-1
 784 -70 l 1,39,-1
EndSplineSet
EndChar

StartChar: B
Encoding: 66 66 37
Width: 1953
GlyphClass: 2
Flags: W
LayerCount: 2
Fore
SplineSet
159 160 m 1,0,-1
 420 160 l 1,1,-1
 420 1085 l 1,2,-1
 144 1085 l 1,3,-1
 144 1245 l 1,4,-1
 862 1245 l 2,5,6
 968 1245 968 1245 1051.5 1243 c 128,-1,7
 1135 1241 1135 1241 1198.5 1238 c 128,-1,8
 1262 1235 1262 1235 1309 1230 c 128,-1,9
 1356 1225 1356 1225 1390 1219 c 0,10,11
 1472 1204 1472 1204 1529.5 1176 c 128,-1,12
 1587 1148 1587 1148 1623 1109 c 128,-1,13
 1659 1070 1659 1070 1675.5 1021.5 c 128,-1,14
 1692 973 1692 973 1692 917 c 0,15,16
 1692 877 1692 877 1675 835.5 c 128,-1,17
 1658 794 1658 794 1622.5 756.5 c 128,-1,18
 1587 719 1587 719 1533.5 688 c 128,-1,19
 1480 657 1480 657 1408 638 c 1,20,21
 1481 629 1481 629 1538.5 602.5 c 128,-1,22
 1596 576 1596 576 1635.5 537.5 c 128,-1,23
 1675 499 1675 499 1695.5 451 c 128,-1,24
 1716 403 1716 403 1716 351 c 0,25,26
 1716 290 1716 290 1699 238.5 c 128,-1,27
 1682 187 1682 187 1643.5 146 c 128,-1,28
 1605 105 1605 105 1543 75.5 c 128,-1,29
 1481 46 1481 46 1391 29 c 0,30,31
 1294 11 1294 11 1168.5 5.5 c 128,-1,32
 1043 0 1043 0 879 0 c 2,33,-1
 159 0 l 1,34,-1
 159 160 l 1,0,-1
879 -70 m 2,35,36
 1038 -70 1038 -70 1171.5 -66.5 c 128,-1,37
 1305 -63 1305 -63 1405 -43 c 0,38,39
 1517 -21 1517 -21 1591 20.5 c 128,-1,40
 1665 62 1665 62 1708.5 115 c 128,-1,41
 1752 168 1752 168 1769.5 230 c 128,-1,42
 1787 292 1787 292 1787 355 c 0,43,44
 1787 399 1787 399 1774 441.5 c 128,-1,45
 1761 484 1761 484 1734 521 c 128,-1,46
 1707 558 1707 558 1665 588.5 c 128,-1,47
 1623 619 1623 619 1565 639 c 1,48,49
 1668 690 1668 690 1716 759.5 c 128,-1,50
 1764 829 1764 829 1764 917 c 0,51,52
 1764 1004 1764 1004 1717 1082.5 c 128,-1,53
 1670 1161 1670 1161 1563 1215 c 1,54,55
 1623 1200 1623 1200 1668 1171.5 c 128,-1,56
 1713 1143 1713 1143 1743.5 1105 c 128,-1,57
 1774 1067 1774 1067 1789 1021 c 128,-1,58
 1804 975 1804 975 1804 925 c 0,59,60
 1804 834 1804 834 1767 766.5 c 128,-1,61
 1730 699 1730 699 1648 641 c 1,62,63
 1744 590 1744 590 1785.5 516.5 c 128,-1,64
 1827 443 1827 443 1827 355 c 0,65,66
 1827 277 1827 277 1805 207.5 c 128,-1,67
 1783 138 1783 138 1733.5 81.5 c 128,-1,68
 1684 25 1684 25 1605.5 -16.5 c 128,-1,69
 1527 -58 1527 -58 1413 -80 c 0,70,71
 1312 -100 1312 -100 1181.5 -104 c 128,-1,72
 1051 -108 1051 -108 879 -108 c 2,73,-1
 223 -108 l 1,74,-1
 223 -70 l 1,75,-1
 879 -70 l 2,35,36
1019 695 m 2,76,77
 1142 695 1142 695 1222.5 707 c 128,-1,78
 1303 719 1303 719 1351 744.5 c 128,-1,79
 1399 770 1399 770 1418.5 808.5 c 128,-1,80
 1438 847 1438 847 1438 901 c 256,81,82
 1438 955 1438 955 1404 998 c 128,-1,83
 1370 1041 1370 1041 1295 1064 c 0,84,85
 1244 1079 1244 1079 1177 1082 c 128,-1,86
 1110 1085 1110 1085 1019 1085 c 2,87,-1
 648 1085 l 1,88,-1
 648 695 l 1,89,-1
 1019 695 l 2,76,77
720 1015 m 1,90,-1
 1019 1015 l 2,91,92
 1095 1015 1095 1015 1150 1011.5 c 128,-1,93
 1205 1008 1205 1008 1244 999 c 128,-1,94
 1283 990 1283 990 1310 975.5 c 128,-1,95
 1337 961 1337 961 1358 939 c 1,96,97
 1338 948 1338 948 1310.5 955 c 128,-1,98
 1283 962 1283 962 1243 967 c 128,-1,99
 1203 972 1203 972 1148.5 974.5 c 128,-1,100
 1094 977 1094 977 1019 977 c 2,101,-1
 760 977 l 1,102,-1
 760 755 l 1,103,-1
 720 755 l 1,104,-1
 720 1015 l 1,90,-1
204 1015 m 1,105,-1
 378 1015 l 1,106,-1
 378 975 l 1,107,-1
 204 975 l 1,108,-1
 204 1015 l 1,105,-1
1038 160 m 2,109,110
 1141 160 1141 160 1215 165.5 c 128,-1,111
 1289 171 1289 171 1343 191 c 0,112,113
 1377 204 1377 204 1399.5 222 c 128,-1,114
 1422 240 1422 240 1435 261.5 c 128,-1,115
 1448 283 1448 283 1453 308 c 128,-1,116
 1458 333 1458 333 1458 360 c 0,117,118
 1458 426 1458 426 1417.5 474.5 c 128,-1,119
 1377 523 1377 523 1292 548 c 0,120,121
 1240 563 1240 563 1173 566.5 c 128,-1,122
 1106 570 1106 570 1021 570 c 2,123,-1
 648 570 l 1,124,-1
 648 160 l 1,125,-1
 1038 160 l 2,109,110
720 500 m 1,126,-1
 1019 500 l 2,127,128
 1095 500 1095 500 1153 495 c 128,-1,129
 1211 490 1211 490 1253.5 479.5 c 128,-1,130
 1296 469 1296 469 1326 453.5 c 128,-1,131
 1356 438 1356 438 1377 416 c 1,132,133
 1351 428 1351 428 1321.5 436.5 c 128,-1,134
 1292 445 1292 445 1251 451 c 128,-1,135
 1210 457 1210 457 1154 459.5 c 128,-1,136
 1098 462 1098 462 1019 462 c 2,137,-1
 760 462 l 1,138,-1
 760 220 l 1,139,-1
 720 220 l 1,140,-1
 720 500 l 1,126,-1
EndSplineSet
EndChar

StartChar: C
Encoding: 67 67 38
Width: 1788
GlyphClass: 2
Flags: W
LayerCount: 2
Fore
SplineSet
100 622 m 0,0,1
 100 705 100 705 121.5 786 c 128,-1,2
 143 867 143 867 186.5 940 c 128,-1,3
 230 1013 230 1013 295 1075.5 c 128,-1,4
 360 1138 360 1138 447 1183.5 c 128,-1,5
 534 1229 534 1229 643.5 1254.5 c 128,-1,6
 753 1280 753 1280 884 1280 c 0,7,8
 954 1280 954 1280 1023 1269 c 128,-1,9
 1092 1258 1092 1258 1155.5 1238.5 c 128,-1,10
 1219 1219 1219 1219 1275.5 1191 c 128,-1,11
 1332 1163 1332 1163 1376 1129 c 1,12,-1
 1376 1245 l 1,13,-1
 1603 1245 l 1,14,-1
 1603 885 l 1,15,-1
 1376 885 l 1,16,17
 1344 936 1344 936 1292 979.5 c 128,-1,18
 1240 1023 1240 1023 1174 1054 c 128,-1,19
 1108 1085 1108 1085 1030 1102.5 c 128,-1,20
 952 1120 952 1120 868 1120 c 0,21,22
 736 1120 736 1120 638.5 1078 c 128,-1,23
 541 1036 541 1036 477 966.5 c 128,-1,24
 413 897 413 897 381.5 807.5 c 128,-1,25
 350 718 350 718 350 622 c 0,26,27
 350 514 350 514 390 423.5 c 128,-1,28
 430 333 430 333 501.5 268 c 128,-1,29
 573 203 573 203 672 166.5 c 128,-1,30
 771 130 771 130 890 130 c 0,31,32
 998 130 998 130 1086 151 c 128,-1,33
 1174 172 1174 172 1243 211.5 c 128,-1,34
 1312 251 1312 251 1362.5 308 c 128,-1,35
 1413 365 1413 365 1447 436 c 1,36,-1
 1601 332 l 1,37,38
 1508 154 1508 154 1329.5 62 c 128,-1,39
 1151 -30 1151 -30 881 -30 c 0,40,41
 711 -30 711 -30 568 20 c 128,-1,42
 425 70 425 70 321 158 c 128,-1,43
 217 246 217 246 158.5 365 c 128,-1,44
 100 484 100 484 100 622 c 0,0,1
1436 815 m 1,45,-1
 1675 815 l 1,46,-1
 1675 1194 l 1,47,-1
 1715 1194 l 1,48,-1
 1715 777 l 1,49,-1
 1436 777 l 1,50,-1
 1436 815 l 1,45,-1
422 623 m 0,51,52
 422 716 422 716 455 794 c 128,-1,53
 488 872 488 872 547.5 929 c 128,-1,54
 607 986 607 986 689.5 1018 c 128,-1,55
 772 1050 772 1050 872 1050 c 0,56,57
 1003 1050 1003 1050 1102.5 1009.5 c 128,-1,58
 1202 969 1202 969 1262 894 c 1,59,60
 1175 955 1175 955 1077.5 983.5 c 128,-1,61
 980 1012 980 1012 868 1012 c 0,62,63
 773 1012 773 1012 697.5 981 c 128,-1,64
 622 950 622 950 569.5 897.5 c 128,-1,65
 517 845 517 845 489.5 775.5 c 128,-1,66
 462 706 462 706 462 629 c 0,67,68
 462 554 462 554 482.5 489.5 c 128,-1,69
 503 425 503 425 547.5 371 c 128,-1,70
 592 317 592 317 663 273 c 128,-1,71
 734 229 734 229 836 196 c 1,72,73
 742 209 742 209 665.5 245 c 128,-1,74
 589 281 589 281 535 336 c 128,-1,75
 481 391 481 391 451.5 463.5 c 128,-1,76
 422 536 422 536 422 623 c 0,51,52
344 48 m 1,77,78
 392 15 392 15 455.5 -12.5 c 128,-1,79
 519 -40 519 -40 589.5 -59.5 c 128,-1,80
 660 -79 660 -79 735.5 -89.5 c 128,-1,81
 811 -100 811 -100 883 -100 c 0,82,83
 1011 -100 1011 -100 1126.5 -78 c 128,-1,84
 1242 -56 1242 -56 1338.5 -13.5 c 128,-1,85
 1435 29 1435 29 1509 91.5 c 128,-1,86
 1583 154 1583 154 1628 234 c 1,87,-1
 1663 213 l 1,88,89
 1617 130 1617 130 1541 64.5 c 128,-1,90
 1465 -1 1465 -1 1364.5 -46 c 128,-1,91
 1264 -91 1264 -91 1141.5 -114.5 c 128,-1,92
 1019 -138 1019 -138 881 -138 c 0,93,94
 802 -138 802 -138 724 -126.5 c 128,-1,95
 646 -115 646 -115 575.5 -91.5 c 128,-1,96
 505 -68 505 -68 445.5 -33.5 c 128,-1,97
 386 1 386 1 344 48 c 1,77,78
EndSplineSet
EndChar

StartChar: D
Encoding: 68 68 39
Width: 1965
GlyphClass: 2
Flags: W
LayerCount: 2
Fore
SplineSet
150 160 m 1,0,-1
 421 160 l 1,1,-1
 421 1085 l 1,2,-1
 150 1085 l 1,3,-1
 150 1245 l 1,4,-1
 898 1245 l 2,5,6
 1031 1245 1031 1245 1132 1238.5 c 128,-1,7
 1233 1232 1233 1232 1315 1210 c 0,8,9
 1530 1151 1530 1151 1637 1007 c 128,-1,10
 1744 863 1744 863 1744 623 c 0,11,12
 1744 513 1744 513 1718.5 419.5 c 128,-1,13
 1693 326 1693 326 1640.5 251.5 c 128,-1,14
 1588 177 1588 177 1508.5 124 c 128,-1,15
 1429 71 1429 71 1321 42 c 0,16,17
 1240 20 1240 20 1137.5 10 c 128,-1,18
 1035 0 1035 0 908 0 c 2,19,-1
 150 0 l 1,20,-1
 150 160 l 1,0,-1
876 -70 m 2,21,22
 946 -70 946 -70 1014 -66.5 c 128,-1,23
 1082 -63 1082 -63 1143 -57 c 128,-1,24
 1204 -51 1204 -51 1255.5 -42.5 c 128,-1,25
 1307 -34 1307 -34 1345 -24 c 0,26,27
 1453 4 1453 4 1540.5 61.5 c 128,-1,28
 1628 119 1628 119 1689 201.5 c 128,-1,29
 1750 284 1750 284 1783 390.5 c 128,-1,30
 1816 497 1816 497 1816 623 c 0,31,32
 1816 716 1816 716 1799 791.5 c 128,-1,33
 1782 867 1782 867 1749 929.5 c 128,-1,34
 1716 992 1716 992 1667.5 1044 c 128,-1,35
 1619 1096 1619 1096 1556 1142 c 1,36,37
 1629 1105 1629 1105 1685 1056 c 128,-1,38
 1741 1007 1741 1007 1779 943 c 128,-1,39
 1817 879 1817 879 1837 799.5 c 128,-1,40
 1857 720 1857 720 1857 623 c 0,41,42
 1857 494 1857 494 1823.5 382.5 c 128,-1,43
 1790 271 1790 271 1726 182.5 c 128,-1,44
 1662 94 1662 94 1568 32 c 128,-1,45
 1474 -30 1474 -30 1353 -61 c 0,46,47
 1268 -82 1268 -82 1150 -95 c 128,-1,48
 1032 -108 1032 -108 876 -108 c 2,49,-1
 214 -108 l 1,50,-1
 214 -70 l 1,51,-1
 876 -70 l 2,21,22
956 160 m 2,52,53
 1104 160 1104 160 1206 186 c 128,-1,54
 1308 212 1308 212 1371 266 c 128,-1,55
 1434 320 1434 320 1462 404 c 128,-1,56
 1490 488 1490 488 1490 605 c 2,57,-1
 1490 642 l 2,58,59
 1490 756 1490 756 1461.5 839 c 128,-1,60
 1433 922 1433 922 1369 977 c 128,-1,61
 1305 1032 1305 1032 1201.5 1058.5 c 128,-1,62
 1098 1085 1098 1085 947 1085 c 2,63,-1
 646 1085 l 1,64,-1
 646 160 l 1,65,-1
 956 160 l 2,52,53
716 1015 m 1,66,-1
 928 1015 l 2,67,68
 1028 1015 1028 1015 1097 1007.5 c 128,-1,69
 1166 1000 1166 1000 1214.5 984.5 c 128,-1,70
 1263 969 1263 969 1298.5 944 c 128,-1,71
 1334 919 1334 919 1368 884 c 1,72,73
 1331 907 1331 907 1290.5 924.5 c 128,-1,74
 1250 942 1250 942 1199 953.5 c 128,-1,75
 1148 965 1148 965 1082 971 c 128,-1,76
 1016 977 1016 977 928 977 c 2,77,-1
 756 977 l 1,78,-1
 756 220 l 1,79,-1
 716 220 l 1,80,-1
 716 1015 l 1,66,-1
210 1015 m 1,81,-1
 379 1015 l 1,82,-1
 379 977 l 1,83,-1
 210 977 l 1,84,-1
 210 1015 l 1,81,-1
EndSplineSet
EndChar

StartChar: E
Encoding: 69 69 40
Width: 1937
GlyphClass: 2
Flags: W
LayerCount: 2
Fore
SplineSet
150 160 m 1,0,-1
 420 160 l 1,1,-1
 420 1085 l 1,2,-1
 150 1085 l 1,3,-1
 150 1245 l 1,4,-1
 1637 1245 l 1,5,-1
 1637 855 l 1,6,-1
 1412 855 l 1,7,-1
 1412 1085 l 1,8,-1
 655 1085 l 1,9,-1
 655 691 l 1,10,-1
 1157 691 l 1,11,-1
 1157 566 l 1,12,-1
 655 566 l 1,13,-1
 655 160 l 1,14,-1
 1412 160 l 1,15,-1
 1412 390 l 1,16,-1
 1637 390 l 1,17,-1
 1637 0 l 1,18,-1
 150 0 l 1,19,-1
 150 160 l 1,0,-1
1472 785 m 1,20,-1
 1709 785 l 1,21,-1
 1709 1195 l 1,22,-1
 1749 1195 l 1,23,-1
 1749 747 l 1,24,-1
 1472 747 l 1,25,-1
 1472 785 l 1,20,-1
727 1015 m 1,26,-1
 1370 1015 l 1,27,-1
 1370 977 l 1,28,-1
 767 977 l 1,29,-1
 767 751 l 1,30,-1
 727 751 l 1,31,-1
 727 1015 l 1,26,-1
210 1015 m 1,32,-1
 378 1015 l 1,33,-1
 378 977 l 1,34,-1
 210 977 l 1,35,-1
 210 1015 l 1,32,-1
727 496 m 1,36,-1
 1228 496 l 1,37,-1
 1228 641 l 1,38,-1
 1268 641 l 1,39,-1
 1268 458 l 1,40,-1
 767 458 l 1,41,-1
 767 220 l 1,42,-1
 727 220 l 1,43,-1
 727 496 l 1,36,-1
1709 -70 m 1,44,-1
 1709 334 l 1,45,-1
 1749 334 l 1,46,-1
 1749 -108 l 1,47,-1
 210 -108 l 1,48,-1
 210 -70 l 1,49,-1
 1709 -70 l 1,44,-1
EndSplineSet
EndChar

StartChar: F
Encoding: 70 70 41
Width: 1824
GlyphClass: 2
Flags: W
LayerCount: 2
Fore
SplineSet
151 160 m 1,0,-1
 420 160 l 1,1,-1
 420 1085 l 1,2,-1
 150 1085 l 1,3,-1
 150 1245 l 1,4,-1
 1621 1245 l 1,5,-1
 1621 885 l 1,6,-1
 1396 885 l 1,7,-1
 1396 1085 l 1,8,-1
 655 1085 l 1,9,-1
 655 681 l 1,10,-1
 1261 681 l 1,11,-1
 1261 556 l 1,12,-1
 655 556 l 1,13,-1
 655 160 l 1,14,-1
 1069 160 l 1,15,-1
 1069 0 l 1,16,-1
 151 0 l 1,17,-1
 151 160 l 1,0,-1
1456 815 m 1,18,-1
 1693 815 l 1,19,-1
 1693 1195 l 1,20,-1
 1733 1195 l 1,21,-1
 1733 777 l 1,22,-1
 1456 777 l 1,23,-1
 1456 815 l 1,18,-1
727 1015 m 1,24,-1
 1356 1015 l 1,25,-1
 1356 977 l 1,26,-1
 768 977 l 1,27,-1
 768 741 l 1,28,-1
 727 741 l 1,29,-1
 727 1015 l 1,24,-1
210 1015 m 1,30,-1
 378 1015 l 1,31,-1
 378 977 l 1,32,-1
 210 977 l 1,33,-1
 210 1015 l 1,30,-1
727 486 m 1,34,-1
 1334 486 l 1,35,-1
 1334 631 l 1,36,-1
 1374 631 l 1,37,-1
 1374 448 l 1,38,-1
 767 448 l 1,39,-1
 767 220 l 1,40,-1
 727 220 l 1,41,-1
 727 486 l 1,34,-1
1141 -70 m 1,42,-1
 1141 104 l 1,43,-1
 1181 104 l 1,44,-1
 1181 -108 l 1,45,-1
 210 -108 l 1,46,-1
 210 -70 l 1,47,-1
 1141 -70 l 1,42,-1
EndSplineSet
EndChar

StartChar: G
Encoding: 71 71 42
Width: 1923
GlyphClass: 2
Flags: W
LayerCount: 2
Fore
SplineSet
108 623 m 0,0,1
 108 706 108 706 131 786.5 c 128,-1,2
 154 867 154 867 199 940 c 128,-1,3
 244 1013 244 1013 310.5 1075.5 c 128,-1,4
 377 1138 377 1138 464 1183.5 c 128,-1,5
 551 1229 551 1229 657.5 1254.5 c 128,-1,6
 764 1280 764 1280 889 1280 c 0,7,8
 1055 1280 1055 1280 1175 1237 c 128,-1,9
 1295 1194 1295 1194 1386 1119 c 1,10,-1
 1386 1245 l 1,11,-1
 1622 1245 l 1,12,-1
 1622 885 l 1,13,-1
 1386 885 l 1,14,15
 1339 942 1339 942 1286.5 985.5 c 128,-1,16
 1234 1029 1234 1029 1173.5 1059 c 128,-1,17
 1113 1089 1113 1089 1041.5 1104.5 c 128,-1,18
 970 1120 970 1120 886 1120 c 0,19,20
 762 1120 762 1120 666 1081 c 128,-1,21
 570 1042 570 1042 504 974.5 c 128,-1,22
 438 907 438 907 404 816 c 128,-1,23
 370 725 370 725 370 622 c 0,24,25
 370 515 370 515 404 425 c 128,-1,26
 438 335 438 335 505 269.5 c 128,-1,27
 572 204 572 204 671 167 c 128,-1,28
 770 130 770 130 901 130 c 0,29,30
 1018 130 1018 130 1111 157.5 c 128,-1,31
 1204 185 1204 185 1270.5 234.5 c 128,-1,32
 1337 284 1337 284 1375.5 353 c 128,-1,33
 1414 422 1414 422 1423 506 c 1,34,-1
 1003 506 l 1,35,-1
 1003 631 l 1,36,-1
 1652 631 l 1,37,-1
 1652 0 l 1,38,-1
 1424 0 l 1,39,-1
 1424 159 l 1,40,41
 1381 117 1381 117 1327.5 82.5 c 128,-1,42
 1274 48 1274 48 1208.5 23 c 128,-1,43
 1143 -2 1143 -2 1064 -16 c 128,-1,44
 985 -30 985 -30 892 -30 c 0,45,46
 705 -30 705 -30 559 20.5 c 128,-1,47
 413 71 413 71 313 159 c 128,-1,48
 213 247 213 247 160.5 366 c 128,-1,49
 108 485 108 485 108 623 c 0,0,1
1446 815 m 1,50,-1
 1694 815 l 1,51,-1
 1694 1194 l 1,52,-1
 1734 1194 l 1,53,-1
 1734 777 l 1,54,-1
 1446 777 l 1,55,-1
 1446 815 l 1,50,-1
442 623 m 0,56,57
 442 714 442 714 472.5 792 c 128,-1,58
 503 870 503 870 560 927.5 c 128,-1,59
 617 985 617 985 699.5 1017.5 c 128,-1,60
 782 1050 782 1050 886 1050 c 0,61,62
 958 1050 958 1050 1016.5 1039.5 c 128,-1,63
 1075 1029 1075 1029 1121.5 1009 c 128,-1,64
 1168 989 1168 989 1205 959.5 c 128,-1,65
 1242 930 1242 930 1272 892 c 1,66,67
 1226 925 1226 925 1182 947.5 c 128,-1,68
 1138 970 1138 970 1092 984.5 c 128,-1,69
 1046 999 1046 999 995.5 1005.5 c 128,-1,70
 945 1012 945 1012 886 1012 c 0,71,72
 791 1012 791 1012 716 981.5 c 128,-1,73
 641 951 641 951 589 898.5 c 128,-1,74
 537 846 537 846 509.5 775 c 128,-1,75
 482 704 482 704 482 623 c 0,76,77
 482 553 482 553 502 491 c 128,-1,78
 522 429 522 429 565 376 c 128,-1,79
 608 323 608 323 675 279.5 c 128,-1,80
 742 236 742 236 836 203 c 1,81,82
 743 218 743 218 670 253 c 128,-1,83
 597 288 597 288 546.5 341.5 c 128,-1,84
 496 395 496 395 469 465.5 c 128,-1,85
 442 536 442 536 442 623 c 0,56,57
1724 -70 m 1,86,-1
 1724 581 l 1,87,-1
 1764 581 l 1,88,-1
 1764 -108 l 1,89,-1
 1484 -108 l 1,90,-1
 1484 -70 l 1,91,-1
 1724 -70 l 1,86,-1
1059 436 m 1,92,-1
 1367 436 l 1,93,94
 1365 430 1365 430 1361.5 418.5 c 128,-1,95
 1358 407 1358 407 1354 398 c 1,96,-1
 1059 398 l 1,97,-1
 1059 436 l 1,92,-1
364 48 m 1,98,99
 421 9 421 9 478.5 -19 c 128,-1,100
 536 -47 536 -47 599.5 -65 c 128,-1,101
 663 -83 663 -83 735.5 -91.5 c 128,-1,102
 808 -100 808 -100 894 -100 c 0,103,104
 968 -100 968 -100 1032.5 -93 c 128,-1,105
 1097 -86 1097 -86 1154.5 -71 c 128,-1,106
 1212 -56 1212 -56 1263.5 -33 c 128,-1,107
 1315 -10 1315 -10 1364 22 c 1,108,-1
 1364 -24 l 1,109,110
 1261 -87 1261 -87 1145.5 -112.5 c 128,-1,111
 1030 -138 1030 -138 892 -138 c 0,112,113
 708 -138 708 -138 578.5 -92.5 c 128,-1,114
 449 -47 449 -47 364 48 c 1,98,99
EndSplineSet
EndChar

StartChar: H
Encoding: 72 72 43
Width: 2268
GlyphClass: 2
Flags: W
LayerCount: 2
Fore
SplineSet
150 160 m 1,0,-1
 420 160 l 1,1,-1
 420 1085 l 1,2,-1
 150 1085 l 1,3,-1
 150 1245 l 1,4,-1
 915 1245 l 1,5,-1
 915 1085 l 1,6,-1
 647 1085 l 1,7,-1
 647 691 l 1,8,-1
 1540 691 l 1,9,-1
 1540 1085 l 1,10,-1
 1272 1085 l 1,11,-1
 1272 1245 l 1,12,-1
 2037 1245 l 1,13,-1
 2037 1085 l 1,14,-1
 1767 1085 l 1,15,-1
 1767 160 l 1,16,-1
 2037 160 l 1,17,-1
 2037 0 l 1,18,-1
 1272 0 l 1,19,-1
 1272 160 l 1,20,-1
 1540 160 l 1,21,-1
 1540 566 l 1,22,-1
 647 566 l 1,23,-1
 647 160 l 1,24,-1
 915 160 l 1,25,-1
 915 0 l 1,26,-1
 150 0 l 1,27,-1
 150 160 l 1,0,-1
1839 1015 m 1,28,-1
 2108 1015 l 1,29,-1
 2108 1194 l 1,30,-1
 2148 1194 l 1,31,-1
 2148 977 l 1,32,-1
 1879 977 l 1,33,-1
 1879 220 l 1,34,-1
 1839 220 l 1,35,-1
 1839 1015 l 1,28,-1
719 1015 m 1,36,-1
 986 1015 l 1,37,-1
 986 1194 l 1,38,-1
 1026 1194 l 1,39,-1
 1026 977 l 1,40,-1
 759 977 l 1,41,-1
 759 751 l 1,42,-1
 719 751 l 1,43,-1
 719 1015 l 1,36,-1
1332 1015 m 1,44,-1
 1498 1015 l 1,45,-1
 1498 977 l 1,46,-1
 1332 977 l 1,47,-1
 1332 1015 l 1,44,-1
210 1015 m 1,48,-1
 378 977 l 1,49,-1
 378 977 l 1,50,-1
 210 977 l 1,51,-1
 210 1015 l 1,48,-1
719 496 m 1,52,-1
 1500 496 l 1,53,-1
 1500 458 l 1,54,-1
 759 458 l 1,55,-1
 759 220 l 1,56,-1
 719 220 l 1,57,-1
 719 496 l 1,52,-1
2109 -70 m 1,58,-1
 2109 104 l 1,59,-1
 2147 104 l 1,60,-1
 2147 -108 l 1,61,-1
 1332 -108 l 1,62,-1
 1332 -70 l 1,63,-1
 2109 -70 l 1,58,-1
987 -70 m 1,64,-1
 987 104 l 1,65,-1
 1027 104 l 1,66,-1
 1027 -108 l 1,67,-1
 210 -108 l 1,68,-1
 210 -70 l 1,69,-1
 987 -70 l 1,64,-1
EndSplineSet
EndChar

StartChar: I
Encoding: 73 73 44
Width: 1148
GlyphClass: 2
Flags: W
LayerCount: 2
Fore
SplineSet
140 160 m 1,0,-1
 420 160 l 1,1,-1
 420 1085 l 1,2,-1
 150 1085 l 1,3,-1
 150 1245 l 1,4,-1
 925 1245 l 1,5,-1
 925 1085 l 1,6,-1
 647 1085 l 1,7,-1
 647 160 l 1,8,-1
 915 160 l 1,9,-1
 915 0 l 1,10,-1
 140 0 l 1,11,-1
 140 160 l 1,0,-1
719 1015 m 1,12,-1
 996 1015 l 1,13,-1
 996 1195 l 1,14,-1
 1036 1195 l 1,15,-1
 1036 977 l 1,16,-1
 759 977 l 1,17,-1
 759 220 l 1,18,-1
 719 220 l 1,19,-1
 719 1015 l 1,12,-1
210 1015 m 1,20,-1
 378 1015 l 1,21,-1
 378 977 l 1,22,-1
 210 977 l 1,23,-1
 210 1015 l 1,20,-1
987 -70 m 1,24,-1
 987 104 l 1,25,-1
 1027 104 l 1,26,-1
 1027 -108 l 1,27,-1
 200 -108 l 1,28,-1
 200 -70 l 1,29,-1
 987 -70 l 1,24,-1
EndSplineSet
EndChar

StartChar: J
Encoding: 74 74 45
Width: 1608
GlyphClass: 2
Flags: W
LayerCount: 2
Fore
SplineSet
283 382 m 1,0,1
 317 255 317 255 413.5 195 c 128,-1,2
 510 135 510 135 662 135 c 0,3,4
 711 135 711 135 754 144.5 c 128,-1,5
 797 154 797 154 831.5 173.5 c 128,-1,6
 866 193 866 193 890.5 223 c 128,-1,7
 915 253 915 253 927 294 c 0,8,9
 936 328 936 328 940 382 c 128,-1,10
 944 436 944 436 944 526 c 2,11,-1
 944 1085 l 1,12,-1
 467 1085 l 1,13,-1
 467 1245 l 1,14,-1
 1421 1245 l 1,15,-1
 1421 1085 l 1,16,-1
 1171 1085 l 1,17,-1
 1171 518 l 2,18,19
 1171 428 1171 428 1164 362.5 c 128,-1,20
 1157 297 1157 297 1143 255 c 0,21,22
 1119 181 1119 181 1075 127.5 c 128,-1,23
 1031 74 1031 74 968.5 39 c 128,-1,24
 906 4 906 4 826.5 -13 c 128,-1,25
 747 -30 747 -30 653 -30 c 0,26,27
 525 -30 525 -30 430 -8 c 128,-1,28
 335 14 335 14 267 57 c 128,-1,29
 199 100 199 100 155 163 c 128,-1,30
 111 226 111 226 86 307 c 1,31,-1
 283 382 l 1,0,1
203 23 m 1,32,33
 297 -37 297 -37 406 -66 c 128,-1,34
 515 -95 515 -95 655 -95 c 0,35,36
 754 -95 754 -95 843.5 -76 c 128,-1,37
 933 -57 933 -57 1006 -16.5 c 128,-1,38
 1079 24 1079 24 1133 87.5 c 128,-1,39
 1187 151 1187 151 1216 240 c 1,40,41
 1229 285 1229 285 1236 350.5 c 128,-1,42
 1243 416 1243 416 1243 518 c 2,43,-1
 1243 1015 l 1,44,-1
 1493 1015 l 1,45,-1
 1493 1195 l 1,46,-1
 1533 1195 l 1,47,-1
 1533 977 l 1,48,-1
 1283 977 l 1,49,-1
 1283 515 l 2,50,51
 1283 410 1283 410 1276 341.5 c 128,-1,52
 1269 273 1269 273 1253 222 c 1,53,54
 1223 133 1223 133 1167 66 c 128,-1,55
 1111 -1 1111 -1 1035 -45 c 128,-1,56
 959 -89 959 -89 866 -111 c 128,-1,57
 773 -133 773 -133 669 -133 c 0,58,59
 586 -133 586 -133 517.5 -123.5 c 128,-1,60
 449 -114 449 -114 392 -95 c 128,-1,61
 335 -76 335 -76 288.5 -46.5 c 128,-1,62
 242 -17 242 -17 203 23 c 1,32,33
527 1015 m 1,63,-1
 902 1015 l 1,64,-1
 902 977 l 1,65,-1
 527 977 l 1,66,-1
 527 1015 l 1,63,-1
416 353 m 1,67,68
 429 325 429 325 449 301.5 c 128,-1,69
 469 278 469 278 492.5 259 c 128,-1,70
 516 240 516 240 541 226.5 c 128,-1,71
 566 213 566 213 590 205 c 1,72,73
 511 214 511 214 458 249.5 c 128,-1,74
 405 285 405 285 378 339 c 1,75,-1
 416 353 l 1,67,68
EndSplineSet
EndChar

StartChar: K
Encoding: 75 75 46
Width: 2150
GlyphClass: 2
Flags: W
LayerCount: 2
Fore
SplineSet
150 160 m 1,0,-1
 420 160 l 1,1,-1
 420 1085 l 1,2,-1
 150 1085 l 1,3,-1
 150 1245 l 1,4,-1
 915 1245 l 1,5,-1
 915 1085 l 1,6,-1
 647 1085 l 1,7,-1
 647 549 l 1,8,-1
 1476 1085 l 1,9,-1
 1199 1085 l 1,10,-1
 1199 1245 l 1,11,-1
 1929 1245 l 1,12,-1
 1929 1085 l 1,13,-1
 1705 1085 l 1,14,-1
 1101 692 l 1,15,-1
 1690 160 l 1,16,-1
 1959 160 l 1,17,-1
 1959 0 l 1,18,-1
 1209 0 l 1,19,-1
 1209 160 l 1,20,-1
 1384 160 l 1,21,-1
 924 577 l 1,22,-1
 647 396 l 1,23,-1
 647 160 l 1,24,-1
 915 160 l 1,25,-1
 915 0 l 1,26,-1
 150 0 l 1,27,-1
 150 160 l 1,0,-1
1728 1015 m 1,28,-1
 2001 1015 l 1,29,-1
 2001 1194 l 1,30,-1
 2041 1194 l 1,31,-1
 2041 977 l 1,32,-1
 1741 977 l 1,33,-1
 1284 679 l 1,34,-1
 1787 220 l 1,35,-1
 1728 220 l 1,36,-1
 1216 682 l 1,37,-1
 1728 1015 l 1,28,-1
719 1015 m 1,38,-1
 956 1015 l 1,39,-1
 956 1194 l 1,40,-1
 996 1194 l 1,41,-1
 996 977 l 1,42,-1
 759 977 l 1,43,-1
 759 669 l 1,44,-1
 719 643 l 1,45,-1
 719 1015 l 1,38,-1
210 1015 m 1,46,-1
 378 1015 l 1,47,-1
 378 977 l 1,48,-1
 210 977 l 1,49,-1
 210 1015 l 1,46,-1
719 358 m 1,50,-1
 941 504 l 1,51,-1
 970 477 l 1,52,-1
 759 338 l 1,53,-1
 759 220 l 1,54,-1
 719 220 l 1,55,-1
 719 358 l 1,50,-1
2029 -70 m 1,56,-1
 2029 104 l 1,57,-1
 2071 104 l 1,58,-1
 2071 -108 l 1,59,-1
 1252 -108 l 1,60,-1
 1252 -70 l 1,61,-1
 2029 -70 l 1,56,-1
987 -70 m 1,62,-1
 987 104 l 1,63,-1
 1027 104 l 1,64,-1
 1027 -108 l 1,65,-1
 210 -108 l 1,66,-1
 210 -70 l 1,67,-1
 987 -70 l 1,62,-1
EndSplineSet
EndChar

StartChar: L
Encoding: 76 76 47
Width: 1791
GlyphClass: 2
Flags: W
LayerCount: 2
Fore
SplineSet
160 160 m 1,0,-1
 420 160 l 1,1,-1
 420 1085 l 1,2,-1
 143 1085 l 1,3,-1
 143 1245 l 1,4,-1
 927 1245 l 1,5,-1
 927 1085 l 1,6,-1
 647 1085 l 1,7,-1
 647 160 l 1,8,-1
 1342 160 l 1,9,-1
 1342 450 l 1,10,-1
 1567 450 l 1,11,-1
 1567 0 l 1,12,-1
 160 0 l 1,13,-1
 160 160 l 1,0,-1
719 1005 m 1,14,-1
 998 1005 l 1,15,-1
 998 1195 l 1,16,-1
 1038 1195 l 1,17,-1
 1038 967 l 1,18,-1
 759 967 l 1,19,-1
 759 220 l 1,20,-1
 719 220 l 1,21,-1
 719 1005 l 1,14,-1
203 1005 m 1,22,-1
 378 1005 l 1,23,-1
 378 967 l 1,24,-1
 203 967 l 1,25,-1
 203 1005 l 1,22,-1
1639 -70 m 1,26,-1
 1639 394 l 1,27,-1
 1679 394 l 1,28,-1
 1679 -108 l 1,29,-1
 220 -108 l 1,30,-1
 220 -70 l 1,31,-1
 1639 -70 l 1,26,-1
EndSplineSet
EndChar

StartChar: M
Encoding: 77 77 48
Width: 2592
GlyphClass: 2
Flags: W
LayerCount: 2
Fore
SplineSet
150 160 m 1,0,-1
 420 160 l 1,1,-1
 420 1085 l 1,2,-1
 150 1085 l 1,3,-1
 150 1245 l 1,4,-1
 800 1245 l 1,5,-1
 1269 415 l 1,6,-1
 1705 1245 l 1,7,-1
 2355 1245 l 1,8,-1
 2355 1085 l 1,9,-1
 2087 1085 l 1,10,-1
 2087 160 l 1,11,-1
 2355 160 l 1,12,-1
 2355 0 l 1,13,-1
 1630 0 l 1,14,-1
 1630 160 l 1,15,-1
 1860 160 l 1,16,-1
 1860 1094 l 1,17,-1
 1323 71 l 1,18,-1
 1202 71 l 1,19,-1
 647 1062 l 1,20,-1
 647 160 l 1,21,-1
 875 160 l 1,22,-1
 875 0 l 1,23,-1
 150 0 l 1,24,-1
 150 160 l 1,0,-1
2157 1015 m 1,25,-1
 2427 1015 l 1,26,-1
 2427 1195 l 1,27,-1
 2467 1195 l 1,28,-1
 2467 977 l 1,29,-1
 2197 977 l 1,30,-1
 2197 220 l 1,31,-1
 2157 220 l 1,32,-1
 2157 1015 l 1,25,-1
913 1194 m 1,33,-1
 957 1194 l 1,34,-1
 1306 582 l 1,35,-1
 1283 540 l 1,36,-1
 913 1194 l 1,33,-1
210 1015 m 1,37,-1
 378 1015 l 1,38,-1
 378 977 l 1,39,-1
 210 977 l 1,40,-1
 210 1015 l 1,37,-1
1370 0 m 1,41,-1
 1812 844 l 1,42,-1
 1812 761 l 1,43,-1
 1396 -38 l 1,44,-1
 1293 -38 l 1,45,-1
 1272 0 l 1,46,-1
 1370 0 l 1,41,-1
717 832 m 1,47,-1
 757 761 l 1,48,-1
 757 220 l 1,49,-1
 717 220 l 1,50,-1
 717 832 l 1,47,-1
2427 -70 m 1,51,-1
 2427 104 l 1,52,-1
 2467 104 l 1,53,-1
 2467 -108 l 1,54,-1
 1690 -108 l 1,55,-1
 1690 -70 l 1,56,-1
 2427 -70 l 1,51,-1
947 -70 m 1,57,-1
 947 104 l 1,58,-1
 987 104 l 1,59,-1
 987 -108 l 1,60,-1
 210 -108 l 1,61,-1
 210 -70 l 1,62,-1
 947 -70 l 1,57,-1
EndSplineSet
EndChar

StartChar: N
Encoding: 78 78 49
Width: 2327
GlyphClass: 2
Flags: W
LayerCount: 2
Fore
SplineSet
170 160 m 1,0,-1
 420 160 l 1,1,-1
 420 1085 l 1,2,-1
 150 1085 l 1,3,-1
 150 1245 l 1,4,-1
 735 1245 l 1,5,-1
 1610 338 l 1,6,-1
 1610 1085 l 1,7,-1
 1340 1085 l 1,8,-1
 1340 1245 l 1,9,-1
 2105 1245 l 1,10,-1
 2105 1085 l 1,11,-1
 1835 1085 l 1,12,-1
 1835 0 l 1,13,-1
 1620 0 l 1,14,-1
 645 1032 l 1,15,-1
 645 160 l 1,16,-1
 915 160 l 1,17,-1
 915 0 l 1,18,-1
 170 0 l 1,19,-1
 170 160 l 1,0,-1
1907 -70 m 1,20,-1
 1907 1015 l 1,21,-1
 2177 1015 l 1,22,-1
 2177 1195 l 1,23,-1
 2217 1195 l 1,24,-1
 2217 977 l 1,25,-1
 1947 977 l 1,26,-1
 1947 -108 l 1,27,-1
 1680 -108 l 1,28,-1
 1680 -70 l 1,29,-1
 1907 -70 l 1,20,-1
928 1195 m 1,30,-1
 1571 547 l 1,31,-1
 1571 489 l 1,32,-1
 875 1195 l 1,33,-1
 928 1195 l 1,30,-1
1400 1015 m 1,34,-1
 1568 1015 l 1,35,-1
 1568 977 l 1,36,-1
 1400 977 l 1,37,-1
 1400 1015 l 1,34,-1
210 1015 m 1,38,-1
 378 977 l 1,39,-1
 378 977 l 1,40,-1
 210 977 l 1,41,-1
 210 1015 l 1,38,-1
717 896 m 1,42,-1
 757 852 l 1,43,-1
 757 220 l 1,44,-1
 717 220 l 1,45,-1
 717 896 l 1,42,-1
987 -70 m 1,46,-1
 987 104 l 1,47,-1
 1027 104 l 1,48,-1
 1027 -108 l 1,49,-1
 230 -108 l 1,50,-1
 230 -70 l 1,51,-1
 987 -70 l 1,46,-1
EndSplineSet
EndChar

StartChar: O
Encoding: 79 79 50
Width: 1896
GlyphClass: 2
Flags: W
LayerCount: 2
Fore
SplineSet
110 601 m 0,0,1
 110 738 110 738 163.5 861.5 c 128,-1,2
 217 985 217 985 319 1078 c 128,-1,3
 421 1171 421 1171 570.5 1225.5 c 128,-1,4
 720 1280 720 1280 912 1280 c 0,5,6
 1112 1280 1112 1280 1259.5 1230.5 c 128,-1,7
 1407 1181 1407 1181 1503.5 1093 c 128,-1,8
 1600 1005 1600 1005 1647 885 c 128,-1,9
 1694 765 1694 765 1694 624 c 0,10,11
 1694 487 1694 487 1641.5 368 c 128,-1,12
 1589 249 1589 249 1489 160.5 c 128,-1,13
 1389 72 1389 72 1242.5 21 c 128,-1,14
 1096 -30 1096 -30 909 -30 c 0,15,16
 748 -30 748 -30 603.5 10 c 128,-1,17
 459 50 459 50 349 129.5 c 128,-1,18
 239 209 239 209 174.5 327 c 128,-1,19
 110 445 110 445 110 601 c 0,0,1
331 68 m 1,20,21
 382 31 382 31 446.5 0.5 c 128,-1,22
 511 -30 511 -30 585.5 -52.5 c 128,-1,23
 660 -75 660 -75 742 -87.5 c 128,-1,24
 824 -100 824 -100 909 -100 c 0,25,26
 1095 -100 1095 -100 1252 -49.5 c 128,-1,27
 1409 1 1409 1 1523 95.5 c 128,-1,28
 1637 190 1637 190 1701.5 323.5 c 128,-1,29
 1766 457 1766 457 1766 624 c 0,30,31
 1766 707 1766 707 1743.5 788.5 c 128,-1,32
 1721 870 1721 870 1680 944 c 128,-1,33
 1639 1018 1639 1018 1580 1082 c 128,-1,34
 1521 1146 1521 1146 1448 1194 c 1,35,36
 1533 1155 1533 1155 1599.5 1095.5 c 128,-1,37
 1666 1036 1666 1036 1712 962 c 128,-1,38
 1758 888 1758 888 1782 802 c 128,-1,39
 1806 716 1806 716 1806 624 c 0,40,41
 1806 451 1806 451 1742.5 310 c 128,-1,42
 1679 169 1679 169 1561.5 69.5 c 128,-1,43
 1444 -30 1444 -30 1278.5 -84 c 128,-1,44
 1113 -138 1113 -138 909 -138 c 0,45,46
 720 -138 720 -138 574 -87.5 c 128,-1,47
 428 -37 428 -37 331 68 c 1,20,21
360 609 m 0,48,49
 360 495 360 495 401 406 c 128,-1,50
 442 317 442 317 514.5 255.5 c 128,-1,51
 587 194 587 194 685.5 162 c 128,-1,52
 784 130 784 130 900 130 c 0,53,54
 1033 130 1033 130 1134.5 170.5 c 128,-1,55
 1236 211 1236 211 1305 279 c 128,-1,56
 1374 347 1374 347 1409 436.5 c 128,-1,57
 1444 526 1444 526 1444 624 c 0,58,59
 1444 737 1444 737 1406.5 829 c 128,-1,60
 1369 921 1369 921 1299.5 985.5 c 128,-1,61
 1230 1050 1230 1050 1130.5 1085 c 128,-1,62
 1031 1120 1031 1120 907 1120 c 0,63,64
 787 1120 787 1120 686.5 1083.5 c 128,-1,65
 586 1047 586 1047 513.5 980 c 128,-1,66
 441 913 441 913 400.5 818.5 c 128,-1,67
 360 724 360 724 360 609 c 0,48,49
432 606 m 0,68,69
 432 698 432 698 463.5 779 c 128,-1,70
 495 860 495 860 556 920 c 128,-1,71
 617 980 617 980 705 1015 c 128,-1,72
 793 1050 793 1050 907 1050 c 0,73,74
 1032 1050 1032 1050 1128 1004.5 c 128,-1,75
 1224 959 1224 959 1290 874 c 1,76,77
 1196 951 1196 951 1102.5 981.5 c 128,-1,78
 1009 1012 1009 1012 907 1012 c 0,79,80
 804 1012 804 1012 723 980 c 128,-1,81
 642 948 642 948 586.5 892.5 c 128,-1,82
 531 837 531 837 501.5 763 c 128,-1,83
 472 689 472 689 472 606 c 0,84,85
 472 540 472 540 495 479.5 c 128,-1,86
 518 419 518 419 561 367 c 128,-1,87
 604 315 604 315 665 274 c 128,-1,88
 726 233 726 233 803 205 c 1,89,90
 714 219 714 219 644.5 255.5 c 128,-1,91
 575 292 575 292 528 345 c 128,-1,92
 481 398 481 398 456.5 464.5 c 128,-1,93
 432 531 432 531 432 606 c 0,68,69
EndSplineSet
EndChar

StartChar: P
Encoding: 80 80 51
Width: 1781
GlyphClass: 2
Flags: W
LayerCount: 2
Fore
SplineSet
159 160 m 1,0,-1
 420 160 l 1,1,-1
 420 1085 l 1,2,-1
 144 1085 l 1,3,-1
 144 1245 l 1,4,-1
 933 1245 l 2,5,6
 1048 1245 1048 1245 1140.5 1241 c 128,-1,7
 1233 1237 1233 1237 1308 1223 c 0,8,9
 1396 1206 1396 1206 1458 1174.5 c 128,-1,10
 1520 1143 1520 1143 1558.5 1098 c 128,-1,11
 1597 1053 1597 1053 1614.5 996 c 128,-1,12
 1632 939 1632 939 1632 871 c 0,13,14
 1632 815 1632 815 1612.5 761 c 128,-1,15
 1593 707 1593 707 1555 659.5 c 128,-1,16
 1517 612 1517 612 1459.5 574 c 128,-1,17
 1402 536 1402 536 1326 512 c 1,18,19
 1245 488 1245 488 1146.5 481.5 c 128,-1,20
 1048 475 1048 475 933 475 c 2,21,-1
 647 475 l 1,22,-1
 647 160 l 1,23,-1
 1003 160 l 1,24,-1
 1003 0 l 1,25,-1
 159 0 l 1,26,-1
 159 160 l 1,0,-1
717 405 m 1,27,-1
 877 405 l 2,28,29
 965 405 965 405 1029 406 c 128,-1,30
 1093 407 1093 407 1143.5 410.5 c 128,-1,31
 1194 414 1194 414 1234.5 420.5 c 128,-1,32
 1275 427 1275 427 1316 437 c 0,33,34
 1408 459 1408 459 1480 499.5 c 128,-1,35
 1552 540 1552 540 1601.5 596.5 c 128,-1,36
 1651 653 1651 653 1677 724.5 c 128,-1,37
 1703 796 1703 796 1703 880 c 0,38,39
 1703 983 1703 983 1663.5 1057.5 c 128,-1,40
 1624 1132 1624 1132 1540 1192 c 1,41,42
 1591 1170 1591 1170 1630 1135.5 c 128,-1,43
 1669 1101 1669 1101 1695 1059 c 128,-1,44
 1721 1017 1721 1017 1734 971 c 128,-1,45
 1747 925 1747 925 1747 880 c 0,46,47
 1747 791 1747 791 1718 713 c 128,-1,48
 1689 635 1689 635 1633.5 572 c 128,-1,49
 1578 509 1578 509 1496.5 463.5 c 128,-1,50
 1415 418 1415 418 1309 395 c 0,51,52
 1277 388 1277 388 1237 382.5 c 128,-1,53
 1197 377 1197 377 1145 373.5 c 128,-1,54
 1093 370 1093 370 1027 368.5 c 128,-1,55
 961 367 961 367 877 367 c 2,56,-1
 757 367 l 1,57,-1
 757 220 l 1,58,-1
 717 220 l 1,59,-1
 717 405 l 1,27,-1
976 635 m 2,60,61
 1061 635 1061 635 1124 639 c 128,-1,62
 1187 643 1187 643 1235 657 c 0,63,64
 1321 681 1321 681 1354.5 733 c 128,-1,65
 1388 785 1388 785 1388 863 c 0,66,67
 1388 923 1388 923 1366 965 c 128,-1,68
 1344 1007 1344 1007 1295 1034 c 128,-1,69
 1246 1061 1246 1061 1167.5 1073 c 128,-1,70
 1089 1085 1089 1085 976 1085 c 2,71,-1
 647 1085 l 1,72,-1
 647 635 l 1,73,-1
 976 635 l 2,60,61
717 1015 m 1,74,-1
 969 1015 l 2,75,76
 1122 1015 1122 1015 1202.5 998 c 128,-1,77
 1283 981 1283 981 1308 939 c 1,78,79
 1288 948 1288 948 1260.5 955 c 128,-1,80
 1233 962 1233 962 1193 967 c 128,-1,81
 1153 972 1153 972 1098.5 974.5 c 128,-1,82
 1044 977 1044 977 969 977 c 2,83,-1
 757 977 l 1,84,-1
 757 695 l 1,85,-1
 717 695 l 1,86,-1
 717 1015 l 1,74,-1
198 1015 m 1,87,-1
 357 1015 l 1,88,-1
 357 977 l 1,89,-1
 198 977 l 1,90,-1
 198 1015 l 1,87,-1
1075 -70 m 1,91,-1
 1075 104 l 1,92,-1
 1115 104 l 1,93,-1
 1115 -108 l 1,94,-1
 223 -108 l 1,95,-1
 223 -70 l 1,96,-1
 1075 -70 l 1,91,-1
EndSplineSet
EndChar

StartChar: Q
Encoding: 81 81 52
Width: 1916
GlyphClass: 2
Flags: W
LayerCount: 2
Fore
SplineSet
110 601 m 0,0,1
 110 738 110 738 164 861.5 c 128,-1,2
 218 985 218 985 321.5 1078 c 128,-1,3
 425 1171 425 1171 576.5 1225.5 c 128,-1,4
 728 1280 728 1280 922 1280 c 0,5,6
 1125 1280 1125 1280 1274 1230.5 c 128,-1,7
 1423 1181 1423 1181 1521 1093 c 128,-1,8
 1619 1005 1619 1005 1666.5 885 c 128,-1,9
 1714 765 1714 765 1714 624 c 0,10,11
 1714 528 1714 528 1688 441 c 128,-1,12
 1662 354 1662 354 1611.5 279 c 128,-1,13
 1561 204 1561 204 1486.5 144 c 128,-1,14
 1412 84 1412 84 1316 43 c 1,15,-1
 1496 -241 l 1,16,-1
 1220 -241 l 1,17,-1
 1080 -19 l 1,18,19
 1042 -24 1042 -24 1002 -27 c 128,-1,20
 962 -30 962 -30 920 -30 c 0,21,22
 812 -30 812 -30 710 -12 c 128,-1,23
 608 6 608 6 518 41.5 c 128,-1,24
 428 77 428 77 353 129.5 c 128,-1,25
 278 182 278 182 224 252.5 c 128,-1,26
 170 323 170 323 140 410 c 128,-1,27
 110 497 110 497 110 601 c 0,0,1
1638 -311 m 1,28,-1
 1422 29 l 1,29,30
 1502 71 1502 71 1569 132 c 128,-1,31
 1636 193 1636 193 1684 269.5 c 128,-1,32
 1732 346 1732 346 1759 435.5 c 128,-1,33
 1786 525 1786 525 1786 624 c 0,34,35
 1786 707 1786 707 1763 788.5 c 128,-1,36
 1740 870 1740 870 1697.5 944 c 128,-1,37
 1655 1018 1655 1018 1594.5 1082 c 128,-1,38
 1534 1146 1534 1146 1458 1194 c 1,39,40
 1545 1153 1545 1153 1613.5 1093 c 128,-1,41
 1682 1033 1682 1033 1729.5 959.5 c 128,-1,42
 1777 886 1777 886 1801.5 800.5 c 128,-1,43
 1826 715 1826 715 1826 624 c 0,44,45
 1826 523 1826 523 1800.5 432 c 128,-1,46
 1775 341 1775 341 1729 263.5 c 128,-1,47
 1683 186 1683 186 1619 123 c 128,-1,48
 1555 60 1555 60 1478 14 c 1,49,-1
 1709 -349 l 1,50,-1
 1284 -349 l 1,51,-1
 1284 -311 l 1,52,-1
 1638 -311 l 1,28,-1
360 609 m 0,53,54
 360 495 360 495 402 406 c 128,-1,55
 444 317 444 317 518 255.5 c 128,-1,56
 592 194 592 194 692.5 162 c 128,-1,57
 793 130 793 130 911 130 c 0,58,59
 948 130 948 130 984 133 c 1,60,-1
 819 395 l 1,61,-1
 1095 395 l 1,62,-1
 1217 201 l 1,63,64
 1278 234 1278 234 1324 280 c 128,-1,65
 1370 326 1370 326 1401 380.5 c 128,-1,66
 1432 435 1432 435 1448 497 c 128,-1,67
 1464 559 1464 559 1464 624 c 0,68,69
 1464 737 1464 737 1426 829 c 128,-1,70
 1388 921 1388 921 1317.5 985.5 c 128,-1,71
 1247 1050 1247 1050 1145.5 1085 c 128,-1,72
 1044 1120 1044 1120 918 1120 c 0,73,74
 796 1120 796 1120 693.5 1083.5 c 128,-1,75
 591 1047 591 1047 517 980 c 128,-1,76
 443 913 443 913 401.5 818.5 c 128,-1,77
 360 724 360 724 360 609 c 0,53,54
432 606 m 0,78,79
 432 698 432 698 464.5 779 c 128,-1,80
 497 860 497 860 559 920 c 128,-1,81
 621 980 621 980 711.5 1015 c 128,-1,82
 802 1050 802 1050 918 1050 c 0,83,84
 1043 1050 1043 1050 1138.5 1004.5 c 128,-1,85
 1234 959 1234 959 1300 874 c 1,86,87
 1206 951 1206 951 1113 981.5 c 128,-1,88
 1020 1012 1020 1012 918 1012 c 0,89,90
 812 1012 812 1012 729 980 c 128,-1,91
 646 948 646 948 589 892.5 c 128,-1,92
 532 837 532 837 502 763 c 128,-1,93
 472 689 472 689 472 606 c 0,94,95
 472 540 472 540 495.5 479.5 c 128,-1,96
 519 419 519 419 563.5 367.5 c 128,-1,97
 608 316 608 316 671 274.5 c 128,-1,98
 734 233 734 233 813 205 c 1,99,100
 721 219 721 219 650.5 255.5 c 128,-1,101
 580 292 580 292 531 345 c 128,-1,102
 482 398 482 398 457 464.5 c 128,-1,103
 432 531 432 531 432 606 c 0,78,79
1261 358 m 1,104,-1
 1288 316 l 1,105,-1
 1256 292 l 1,106,-1
 1214 358 l 1,107,-1
 1261 358 l 1,104,-1
341 68 m 1,108,109
 392 31 392 31 457 0.5 c 128,-1,110
 522 -30 522 -30 596.5 -52.5 c 128,-1,111
 671 -75 671 -75 753 -87.5 c 128,-1,112
 835 -100 835 -100 920 -100 c 0,113,114
 968 -100 968 -100 1002 -97.5 c 128,-1,115
 1036 -95 1036 -95 1074 -89 c 1,116,-1
 1097 -125 l 1,117,118
 1072 -130 1072 -130 1024.5 -134 c 128,-1,119
 977 -138 977 -138 920 -138 c 0,120,121
 731 -138 731 -138 584.5 -87.5 c 128,-1,122
 438 -37 438 -37 341 68 c 1,108,109
EndSplineSet
EndChar

StartChar: R
Encoding: 82 82 53
Width: 1985
GlyphClass: 2
Flags: W
LayerCount: 2
Fore
SplineSet
159 160 m 1,0,-1
 420 160 l 1,1,-1
 420 1085 l 1,2,-1
 144 1085 l 1,3,-1
 144 1245 l 1,4,-1
 963 1245 l 2,5,6
 1078 1245 1078 1245 1170.5 1241 c 128,-1,7
 1263 1237 1263 1237 1338 1223 c 0,8,9
 1426 1206 1426 1206 1487.5 1176 c 128,-1,10
 1549 1146 1549 1146 1588 1103.5 c 128,-1,11
 1627 1061 1627 1061 1644.5 1007.5 c 128,-1,12
 1662 954 1662 954 1662 891 c 0,13,14
 1662 776 1662 776 1590 691 c 128,-1,15
 1518 606 1518 606 1373 561 c 0,16,17
 1355 555 1355 555 1335.5 550.5 c 128,-1,18
 1316 546 1316 546 1296 541 c 1,19,20
 1349 513 1349 513 1402 470 c 128,-1,21
 1455 427 1455 427 1500 376 c 128,-1,22
 1545 325 1545 325 1578.5 269.5 c 128,-1,23
 1612 214 1612 214 1626 160 c 1,24,-1
 1828 160 l 1,25,-1
 1828 0 l 1,26,-1
 1122 0 l 1,27,-1
 1122 160 l 1,28,-1
 1360 160 l 1,29,30
 1343 214 1343 214 1307 271 c 128,-1,31
 1271 328 1271 328 1220 378 c 128,-1,32
 1169 428 1169 428 1104.5 465 c 128,-1,33
 1040 502 1040 502 967 515 c 1,34,-1
 645 515 l 1,35,-1
 645 160 l 1,36,-1
 889 160 l 1,37,-1
 889 0 l 1,38,-1
 159 0 l 1,39,-1
 159 160 l 1,0,-1
1449 523 m 1,40,41
 1516 543 1516 543 1569 579 c 128,-1,42
 1622 615 1622 615 1658.5 663 c 128,-1,43
 1695 711 1695 711 1714.5 769 c 128,-1,44
 1734 827 1734 827 1734 890 c 0,45,46
 1734 934 1734 934 1725 975 c 128,-1,47
 1716 1016 1716 1016 1694 1053.5 c 128,-1,48
 1672 1091 1672 1091 1635 1126 c 128,-1,49
 1598 1161 1598 1161 1543 1194 c 1,50,51
 1605 1171 1605 1171 1649.5 1138.5 c 128,-1,52
 1694 1106 1694 1106 1722.5 1066 c 128,-1,53
 1751 1026 1751 1026 1764.5 981.5 c 128,-1,54
 1778 937 1778 937 1778 890 c 0,55,56
 1778 832 1778 832 1762.5 777 c 128,-1,57
 1747 722 1747 722 1715.5 672.5 c 128,-1,58
 1684 623 1684 623 1635 582 c 128,-1,59
 1586 541 1586 541 1520 512 c 1,60,61
 1550 488 1550 488 1579.5 452.5 c 128,-1,62
 1609 417 1609 417 1635 376.5 c 128,-1,63
 1661 336 1661 336 1682 295.5 c 128,-1,64
 1703 255 1703 255 1715 221 c 1,65,-1
 1668 221 l 1,66,67
 1653 260 1653 260 1630.5 303.5 c 128,-1,68
 1608 347 1608 347 1579.5 388 c 128,-1,69
 1551 429 1551 429 1518 464.5 c 128,-1,70
 1485 500 1485 500 1449 523 c 1,40,41
1006 675 m 2,71,72
 1126 675 1126 675 1205 688.5 c 128,-1,73
 1284 702 1284 702 1331.5 728.5 c 128,-1,74
 1379 755 1379 755 1398.5 794 c 128,-1,75
 1418 833 1418 833 1418 883 c 0,76,77
 1418 945 1418 945 1374 994.5 c 128,-1,78
 1330 1044 1330 1044 1234 1068 c 0,79,80
 1189 1079 1189 1079 1132 1082 c 128,-1,81
 1075 1085 1075 1085 1006 1085 c 2,82,-1
 645 1085 l 1,83,-1
 645 675 l 1,84,-1
 1006 675 l 2,71,72
717 1015 m 1,85,-1
 1006 1015 l 2,86,87
 1088 1015 1088 1015 1143 1011.5 c 128,-1,88
 1198 1008 1198 1008 1236 999 c 128,-1,89
 1274 990 1274 990 1299 975.5 c 128,-1,90
 1324 961 1324 961 1345 939 c 1,91,92
 1325 948 1325 948 1297.5 955 c 128,-1,93
 1270 962 1270 962 1230 967 c 128,-1,94
 1190 972 1190 972 1135.5 974.5 c 128,-1,95
 1081 977 1081 977 1006 977 c 2,96,-1
 757 977 l 1,97,-1
 757 735 l 1,98,-1
 717 735 l 1,99,-1
 717 1015 l 1,85,-1
198 1015 m 1,100,-1
 357 1015 l 1,101,-1
 357 977 l 1,102,-1
 198 977 l 1,103,-1
 198 1015 l 1,100,-1
717 445 m 1,104,-1
 838 445 l 2,105,106
 934 445 934 445 1008.5 429.5 c 128,-1,107
 1083 414 1083 414 1117 376 c 1,108,109
 1089 384 1089 384 1061.5 390 c 128,-1,110
 1034 396 1034 396 999.5 399.5 c 128,-1,111
 965 403 965 403 919.5 405 c 128,-1,112
 874 407 874 407 810 407 c 2,113,-1
 757 407 l 1,114,-1
 757 220 l 1,115,-1
 717 220 l 1,116,-1
 717 445 l 1,104,-1
1900 -70 m 1,117,-1
 1900 104 l 1,118,-1
 1940 104 l 1,119,-1
 1940 -108 l 1,120,-1
 1165 -108 l 1,121,-1
 1165 -70 l 1,122,-1
 1900 -70 l 1,117,-1
963 -70 m 1,123,-1
 963 104 l 1,124,-1
 1003 104 l 1,125,-1
 1003 -108 l 1,126,-1
 223 -108 l 1,127,-1
 223 -70 l 1,128,-1
 963 -70 l 1,123,-1
EndSplineSet
EndChar

StartChar: S
Encoding: 83 83 54
Width: 1816
GlyphClass: 2
Flags: W
LayerCount: 2
Fore
SplineSet
180 360 m 1,0,-1
 385 360 l 1,1,2
 518 240 518 240 669 184.5 c 128,-1,3
 820 129 820 129 985 129 c 0,4,5
 1057 129 1057 129 1117 143 c 128,-1,6
 1177 157 1177 157 1221 181.5 c 128,-1,7
 1265 206 1265 206 1289.5 239 c 128,-1,8
 1314 272 1314 272 1314 310 c 0,9,10
 1314 354 1314 354 1286 391 c 128,-1,11
 1258 428 1258 428 1196.5 458 c 128,-1,12
 1135 488 1135 488 1038.5 510 c 128,-1,13
 942 532 942 532 806 546 c 0,14,15
 648 562 648 562 537 598.5 c 128,-1,16
 426 635 426 635 355.5 687 c 128,-1,17
 285 739 285 739 252.5 803 c 128,-1,18
 220 867 220 867 220 938 c 0,19,20
 220 1004 220 1004 258 1065.5 c 128,-1,21
 296 1127 296 1127 371 1174.5 c 128,-1,22
 446 1222 446 1222 558 1251 c 128,-1,23
 670 1280 670 1280 818 1280 c 0,24,25
 904 1280 904 1280 975.5 1266.5 c 128,-1,26
 1047 1253 1047 1253 1107.5 1230 c 128,-1,27
 1168 1207 1168 1207 1219 1175.5 c 128,-1,28
 1270 1144 1270 1144 1315 1108 c 1,29,-1
 1315 1245 l 1,30,-1
 1540 1245 l 1,31,-1
 1540 885 l 1,32,-1
 1315 885 l 1,33,34
 1285 935 1285 935 1237 978 c 128,-1,35
 1189 1021 1189 1021 1126.5 1052.5 c 128,-1,36
 1064 1084 1064 1084 990 1102 c 128,-1,37
 916 1120 916 1120 835 1120 c 0,38,39
 750 1120 750 1120 685.5 1104.5 c 128,-1,40
 621 1089 621 1089 577.5 1064.5 c 128,-1,41
 534 1040 534 1040 512 1010 c 128,-1,42
 490 980 490 980 490 951 c 0,43,44
 490 914 490 914 509.5 880.5 c 128,-1,45
 529 847 529 847 578.5 818.5 c 128,-1,46
 628 790 628 790 713 767.5 c 128,-1,47
 798 745 798 745 929 729 c 0,48,49
 1113 706 1113 706 1237 671 c 128,-1,50
 1361 636 1361 636 1436 586.5 c 128,-1,51
 1511 537 1511 537 1543 471.5 c 128,-1,52
 1575 406 1575 406 1575 324 c 0,53,54
 1575 262 1575 262 1541.5 199 c 128,-1,55
 1508 136 1508 136 1439.5 85 c 128,-1,56
 1371 34 1371 34 1266 2 c 128,-1,57
 1161 -30 1161 -30 1019 -30 c 0,58,59
 930 -30 930 -30 848.5 -18.5 c 128,-1,60
 767 -7 767 -7 691.5 15.5 c 128,-1,61
 616 38 616 38 545 71 c 128,-1,62
 474 104 474 104 405 148 c 1,63,-1
 405 0 l 1,64,-1
 180 0 l 1,65,-1
 180 360 l 1,0,-1
1375 815 m 1,66,-1
 1612 815 l 1,67,-1
 1612 1194 l 1,68,-1
 1654 1194 l 1,69,-1
 1654 777 l 1,70,-1
 1375 777 l 1,71,-1
 1375 815 l 1,66,-1
573 957 m 1,72,73
 573 978 573 978 594.5 995 c 128,-1,74
 616 1012 616 1012 654 1024 c 128,-1,75
 692 1036 692 1036 743.5 1043 c 128,-1,76
 795 1050 795 1050 855 1050 c 0,77,78
 946 1050 946 1050 1023.5 1021.5 c 128,-1,79
 1101 993 1101 993 1152 948 c 1,80,81
 1124 960 1124 960 1089 971.5 c 128,-1,82
 1054 983 1054 983 1015.5 992.5 c 128,-1,83
 977 1002 977 1002 936.5 1007.5 c 128,-1,84
 896 1013 896 1013 857 1013 c 0,85,86
 748 1013 748 1013 677.5 995.5 c 128,-1,87
 607 978 607 978 573 957 c 1,72,73
249 698 m 1,88,89
 283 654 283 654 328.5 619 c 128,-1,90
 374 584 374 584 438.5 557 c 128,-1,91
 503 530 503 530 589.5 510 c 128,-1,92
 676 490 676 490 792 477 c 0,93,94
 905 464 905 464 985.5 450 c 128,-1,95
 1066 436 1066 436 1119 419.5 c 128,-1,96
 1172 403 1172 403 1200.5 382 c 128,-1,97
 1229 361 1229 361 1239 333 c 1,98,99
 1210 350 1210 350 1177.5 363.5 c 128,-1,100
 1145 377 1145 377 1094 389.5 c 128,-1,101
 1043 402 1043 402 966 414 c 128,-1,102
 889 426 889 426 772 440 c 0,103,104
 649 455 649 455 554.5 481 c 128,-1,105
 460 507 460 507 394.5 540.5 c 128,-1,106
 329 574 329 574 292.5 614.5 c 128,-1,107
 256 655 256 655 249 698 c 1,88,89
477 -70 m 1,108,-1
 477 29 l 1,109,110
 597 -34 597 -34 728 -67 c 128,-1,111
 859 -100 859 -100 1018 -100 c 0,112,113
 1139 -100 1139 -100 1252 -74 c 128,-1,114
 1365 -48 1365 -48 1453 4 c 128,-1,115
 1541 56 1541 56 1594 135 c 128,-1,116
 1647 214 1647 214 1647 320 c 0,117,118
 1647 384 1647 384 1633.5 436.5 c 128,-1,119
 1620 489 1620 489 1580 542 c 1,120,121
 1604 525 1604 525 1623.5 500.5 c 128,-1,122
 1643 476 1643 476 1657 446.5 c 128,-1,123
 1671 417 1671 417 1679 384.5 c 128,-1,124
 1687 352 1687 352 1687 320 c 0,125,126
 1687 210 1687 210 1634.5 125 c 128,-1,127
 1582 40 1582 40 1491 -18.5 c 128,-1,128
 1400 -77 1400 -77 1278 -107.5 c 128,-1,129
 1156 -138 1156 -138 1017 -138 c 0,130,131
 861 -138 861 -138 738.5 -111 c 128,-1,132
 616 -84 616 -84 519 -36 c 1,133,-1
 519 -108 l 1,134,-1
 240 -108 l 1,135,-1
 240 -70 l 1,136,-1
 477 -70 l 1,108,-1
EndSplineSet
EndChar

StartChar: T
Encoding: 84 84 55
Width: 1932
GlyphClass: 2
Flags: W
LayerCount: 2
Fore
SplineSet
477 160 m 1,0,-1
 817 160 l 1,1,-1
 817 1085 l 1,2,-1
 340 1085 l 1,3,-1
 340 825 l 1,4,-1
 115 825 l 1,5,-1
 115 1245 l 1,6,-1
 1744 1245 l 1,7,-1
 1744 825 l 1,8,-1
 1519 825 l 1,9,-1
 1519 1085 l 1,10,-1
 1042 1085 l 1,11,-1
 1042 160 l 1,12,-1
 1382 160 l 1,13,-1
 1382 0 l 1,14,-1
 477 0 l 1,15,-1
 477 160 l 1,0,-1
1579 755 m 1,16,-1
 1816 755 l 1,17,-1
 1816 1195 l 1,18,-1
 1856 1195 l 1,19,-1
 1856 717 l 1,20,-1
 1579 717 l 1,21,-1
 1579 755 l 1,16,-1
1114 1015 m 1,22,-1
 1477 1015 l 1,23,-1
 1477 977 l 1,24,-1
 1154 977 l 1,25,-1
 1154 220 l 1,26,-1
 1114 220 l 1,27,-1
 1114 1015 l 1,22,-1
175 755 m 1,28,-1
 412 755 l 1,29,-1
 412 1015 l 1,30,-1
 775 1015 l 1,31,-1
 775 977 l 1,32,-1
 452 977 l 1,33,-1
 452 717 l 1,34,-1
 175 717 l 1,35,-1
 175 755 l 1,28,-1
1454 -70 m 1,36,-1
 1454 104 l 1,37,-1
 1494 104 l 1,38,-1
 1494 -108 l 1,39,-1
 537 -108 l 1,40,-1
 537 -70 l 1,41,-1
 1454 -70 l 1,36,-1
EndSplineSet
EndChar

StartChar: U
Encoding: 85 85 56
Width: 2124
GlyphClass: 2
Flags: W
LayerCount: 2
Fore
SplineSet
369 1085 m 1,0,-1
 100 1085 l 1,1,-1
 100 1245 l 1,2,-1
 865 1245 l 1,3,-1
 865 1085 l 1,4,-1
 594 1085 l 1,5,-1
 594 513 l 2,6,7
 594 421 594 421 627.5 350.5 c 128,-1,8
 661 280 661 280 719.5 232 c 128,-1,9
 778 184 778 184 857 159.5 c 128,-1,10
 936 135 936 135 1027 135 c 256,11,12
 1118 135 1118 135 1187 151 c 128,-1,13
 1256 167 1256 167 1305.5 194 c 128,-1,14
 1355 221 1355 221 1385.5 257 c 128,-1,15
 1416 293 1416 293 1431 333 c 1,16,17
 1440 364 1440 364 1445.5 390.5 c 128,-1,18
 1451 417 1451 417 1454.5 448.5 c 128,-1,19
 1458 480 1458 480 1459 522 c 128,-1,20
 1460 564 1460 564 1460 627 c 2,21,-1
 1460 1085 l 1,22,-1
 1190 1085 l 1,23,-1
 1190 1245 l 1,24,-1
 1955 1245 l 1,25,-1
 1955 1085 l 1,26,-1
 1685 1085 l 1,27,-1
 1685 610 l 2,28,29
 1685 519 1685 519 1681 456.5 c 128,-1,30
 1677 394 1677 394 1669 361 c 0,31,32
 1644 266 1644 266 1585 193.5 c 128,-1,33
 1526 121 1526 121 1441.5 72.5 c 128,-1,34
 1357 24 1357 24 1251 -0.5 c 128,-1,35
 1145 -25 1145 -25 1027 -25 c 0,36,37
 870 -25 870 -25 747.5 13.5 c 128,-1,38
 625 52 625 52 541 122.5 c 128,-1,39
 457 193 457 193 413 292 c 128,-1,40
 369 391 369 391 369 513 c 2,41,-1
 369 1085 l 1,0,-1
566 27 m 1,42,43
 675 -30 675 -30 786.5 -62.5 c 128,-1,44
 898 -95 898 -95 1027 -95 c 0,45,46
 1125 -95 1125 -95 1217.5 -77.5 c 128,-1,47
 1310 -60 1310 -60 1391 -26 c 128,-1,48
 1472 8 1472 8 1539.5 59.5 c 128,-1,49
 1607 111 1607 111 1655 178.5 c 128,-1,50
 1703 246 1703 246 1730 330 c 128,-1,51
 1757 414 1757 414 1757 514 c 2,52,-1
 1757 1015 l 1,53,-1
 2037 1015 l 1,54,-1
 2037 1194 l 1,55,-1
 2077 1194 l 1,56,-1
 2077 977 l 1,57,-1
 1797 977 l 1,58,-1
 1797 513 l 2,59,60
 1797 361 1797 361 1737.5 241.5 c 128,-1,61
 1678 122 1678 122 1574 38.5 c 128,-1,62
 1470 -45 1470 -45 1329.5 -89 c 128,-1,63
 1189 -133 1189 -133 1027 -133 c 0,64,65
 956 -133 956 -133 888.5 -122 c 128,-1,66
 821 -111 821 -111 761 -90.5 c 128,-1,67
 701 -70 701 -70 651 -40.5 c 128,-1,68
 601 -11 601 -11 566 27 c 1,42,43
666 1015 m 1,69,-1
 937 1015 l 1,70,-1
 937 1194 l 1,71,-1
 977 1194 l 1,72,-1
 977 977 l 1,73,-1
 706 977 l 1,74,-1
 706 513 l 2,75,76
 706 454 706 454 723 402 c 128,-1,77
 740 350 740 350 776.5 309 c 128,-1,78
 813 268 813 268 870 240 c 128,-1,79
 927 212 927 212 1008 202 c 1,80,81
 920 202 920 202 855.5 225 c 128,-1,82
 791 248 791 248 749 289 c 128,-1,83
 707 330 707 330 686.5 387 c 128,-1,84
 666 444 666 444 666 513 c 2,85,-1
 666 1015 l 1,69,-1
1250 1015 m 1,86,-1
 1418 1015 l 1,87,-1
 1418 977 l 1,88,-1
 1250 977 l 1,89,-1
 1250 1015 l 1,86,-1
160 1015 m 1,90,-1
 328 1015 l 1,91,-1
 328 977 l 1,92,-1
 160 977 l 1,93,-1
 160 1015 l 1,90,-1
EndSplineSet
EndChar

StartChar: V
Encoding: 86 86 57
Width: 2082
GlyphClass: 2
Flags: W
LayerCount: 2
Fore
SplineSet
288 1085 m 1,0,-1
 50 1085 l 1,1,-1
 50 1245 l 1,2,-1
 848 1245 l 1,3,-1
 848 1085 l 1,4,-1
 559 1085 l 1,5,-1
 1032 209 l 1,6,-1
 1510 1085 l 1,7,-1
 1224 1085 l 1,8,-1
 1224 1245 l 1,9,-1
 1976 1245 l 1,10,-1
 1976 1085 l 1,11,-1
 1751 1085 l 1,12,-1
 1126 0 l 1,13,-1
 910 0 l 1,14,-1
 288 1085 l 1,0,-1
1174 -70 m 1,15,-1
 1789 1015 l 1,16,-1
 2048 1015 l 1,17,-1
 2048 1194 l 1,18,-1
 2088 1194 l 1,19,-1
 2088 977 l 1,20,-1
 1814 977 l 1,21,-1
 1199 -108 l 1,22,-1
 1006 -108 l 1,23,-1
 985 -70 l 1,24,-1
 1174 -70 l 1,15,-1
681 1015 m 1,25,-1
 920 1015 l 1,26,-1
 920 1194 l 1,27,-1
 960 1194 l 1,28,-1
 960 977 l 1,29,-1
 747 977 l 1,30,-1
 1066 384 l 1,31,-1
 1042 343 l 1,32,-1
 681 1015 l 1,25,-1
1289 1015 m 1,33,-1
 1417 1015 l 1,34,-1
 1396 977 l 1,35,-1
 1289 977 l 1,36,-1
 1289 1015 l 1,33,-1
115 1015 m 1,37,-1
 257 977 l 1,38,-1
 279 977 l 1,39,-1
 115 977 l 1,40,-1
 115 1015 l 1,37,-1
EndSplineSet
EndChar

StartChar: W
Encoding: 87 87 58
Width: 2774
GlyphClass: 2
Flags: W
LayerCount: 2
Fore
SplineSet
285 1085 m 1,0,-1
 50 1085 l 1,1,-1
 50 1245 l 1,2,-1
 810 1245 l 1,3,-1
 810 1085 l 1,4,-1
 531 1085 l 1,5,-1
 880 218 l 1,6,-1
 1291 1085 l 1,7,-1
 1048 1085 l 1,8,-1
 1048 1245 l 1,9,-1
 1770 1245 l 1,10,-1
 1770 1085 l 1,11,-1
 1519 1085 l 1,12,-1
 1900 223 l 1,13,-1
 2245 1085 l 1,14,-1
 1990 1085 l 1,15,-1
 1990 1245 l 1,16,-1
 2668 1245 l 1,17,-1
 2668 1085 l 1,18,-1
 2453 1085 l 1,19,-1
 2009 0 l 1,20,-1
 1776 0 l 1,21,-1
 1388 850 l 1,22,-1
 972 0 l 1,23,-1
 739 0 l 1,24,-1
 285 1085 l 1,0,-1
2054 -70 m 1,25,-1
 2503 1015 l 1,26,-1
 2740 1015 l 1,27,-1
 2740 1194 l 1,28,-1
 2780 1194 l 1,29,-1
 2780 977 l 1,30,-1
 2532 977 l 1,31,-1
 2085 -108 l 1,32,-1
 1872 -108 l 1,33,-1
 1851 -70 l 1,34,-1
 2054 -70 l 1,25,-1
1842 1015 m 1,35,-1
 1851 1194 l 1,36,-1
 1882 1194 l 1,37,-1
 1882 977 l 1,38,-1
 1696 977 l 1,39,-1
 1927 445 l 1,40,-1
 1903 394 l 1,41,-1
 1635 1015 l 1,42,-1
 1842 1015 l 1,35,-1
635 1015 m 1,43,-1
 882 1015 l 1,44,-1
 882 1194 l 1,45,-1
 922 1194 l 1,46,-1
 922 977 l 1,47,-1
 695 977 l 1,48,-1
 917 425 l 1,49,-1
 893 374 l 1,50,-1
 635 1015 l 1,43,-1
2055 1015 m 1,51,-1
 2167 1015 l 1,52,-1
 2152 977 l 1,53,-1
 2055 977 l 1,54,-1
 2055 1015 l 1,51,-1
1103 1015 m 1,55,-1
 1197 1015 l 1,56,-1
 1180 977 l 1,57,-1
 1103 977 l 1,58,-1
 1103 1015 l 1,55,-1
115 1015 m 1,59,-1
 252 1015 l 1,60,-1
 268 977 l 1,61,-1
 115 977 l 1,62,-1
 115 1015 l 1,59,-1
1019 -70 m 1,63,-1
 1396 695 l 1,64,-1
 1419 647 l 1,65,-1
 1048 -108 l 1,66,-1
 835 -108 l 1,67,-1
 814 -70 l 1,68,-1
 1019 -70 l 1,63,-1
EndSplineSet
EndChar

StartChar: X
Encoding: 88 88 59
Width: 1983
GlyphClass: 2
Flags: W
LayerCount: 2
Fore
SplineSet
50 160 m 1,0,-1
 262 160 l 1,1,-1
 814 620 l 1,2,-1
 327 1085 l 1,3,-1
 81 1085 l 1,4,-1
 81 1245 l 1,5,-1
 872 1245 l 1,6,-1
 872 1085 l 1,7,-1
 644 1085 l 1,8,-1
 987 757 l 1,9,-1
 1361 1085 l 1,10,-1
 1105 1085 l 1,11,-1
 1105 1245 l 1,12,-1
 1857 1245 l 1,13,-1
 1857 1085 l 1,14,-1
 1637 1085 l 1,15,-1
 1112 637 l 1,16,-1
 1612 160 l 1,17,-1
 1877 160 l 1,18,-1
 1877 0 l 1,19,-1
 1054 0 l 1,20,-1
 1054 160 l 1,21,-1
 1296 160 l 1,22,-1
 941 499 l 1,23,-1
 544 160 l 1,24,-1
 802 160 l 1,25,-1
 802 0 l 1,26,-1
 50 0 l 1,27,-1
 50 160 l 1,0,-1
1666 1015 m 1,28,-1
 1929 1015 l 1,29,-1
 1929 1194 l 1,30,-1
 1969 1194 l 1,31,-1
 1969 977 l 1,32,-1
 1680 977 l 1,33,-1
 1280 639 l 1,34,-1
 1710 220 l 1,35,-1
 1655 220 l 1,36,-1
 1222 642 l 1,37,-1
 1666 1015 l 1,28,-1
944 1015 m 1,38,-1
 944 1194 l 1,39,-1
 984 1194 l 1,40,-1
 984 979 l 1,41,-1
 952 979 l 2,42,43
 941 979 941 979 931.5 979 c 128,-1,44
 922 979 922 979 913 980 c 1,45,46
 930 968 930 968 947 952 c 2,47,-1
 1043 864 l 1,48,-1
 1015 838 l 1,49,-1
 828 1015 l 1,50,-1
 944 1015 l 1,38,-1
1140 1015 m 1,51,-1
 1226 1015 l 1,52,-1
 1185 977 l 1,53,-1
 1140 977 l 1,54,-1
 1140 1015 l 1,51,-1
146 1015 m 1,55,-1
 338 1015 l 1,56,-1
 377 977 l 1,57,-1
 146 977 l 1,58,-1
 146 1015 l 1,55,-1
959 420 m 1,59,-1
 986 392 l 1,60,-1
 777 220 l 1,61,-1
 718 220 l 1,62,-1
 959 420 l 1,59,-1
1949 -70 m 1,63,-1
 1949 105 l 1,64,-1
 1989 105 l 1,65,-1
 1989 -108 l 1,66,-1
 1098 -108 l 1,67,-1
 1098 -70 l 1,68,-1
 1949 -70 l 1,63,-1
874 -70 m 1,69,-1
 874 105 l 1,70,-1
 914 105 l 1,71,-1
 914 -108 l 1,72,-1
 94 -108 l 1,73,-1
 94 -70 l 1,74,-1
 874 -70 l 1,69,-1
EndSplineSet
EndChar

StartChar: Y
Encoding: 89 89 60
Width: 1982
GlyphClass: 2
Flags: W
LayerCount: 2
Fore
SplineSet
590 160 m 1,0,-1
 860 160 l 1,1,-1
 860 411 l 1,2,-1
 285 1085 l 1,3,-1
 50 1085 l 1,4,-1
 50 1245 l 1,5,-1
 820 1245 l 1,6,-1
 820 1085 l 1,7,-1
 563 1085 l 1,8,-1
 984 582 l 1,9,-1
 1397 1085 l 1,10,-1
 1124 1085 l 1,11,-1
 1124 1245 l 1,12,-1
 1876 1245 l 1,13,-1
 1876 1085 l 1,14,-1
 1646 1085 l 1,15,-1
 1085 409 l 1,16,-1
 1085 160 l 1,17,-1
 1365 160 l 1,18,-1
 1365 0 l 1,19,-1
 590 0 l 1,20,-1
 590 160 l 1,0,-1
1157 383 m 1,21,-1
 1684 1015 l 1,22,-1
 1948 1015 l 1,23,-1
 1948 1194 l 1,24,-1
 1988 1194 l 1,25,-1
 1988 977 l 1,26,-1
 1704 977 l 1,27,-1
 1199 370 l 1,28,-1
 1199 220 l 1,29,-1
 1157 220 l 1,30,-1
 1157 383 l 1,21,-1
716 1015 m 1,31,-1
 892 1015 l 1,32,-1
 892 1194 l 1,33,-1
 932 1194 l 1,34,-1
 932 977 l 1,35,-1
 800 977 l 1,36,-1
 1028 709 l 1,37,-1
 1003 678 l 1,38,-1
 716 1015 l 1,31,-1
1189 1015 m 1,39,-1
 1280 1015 l 1,40,-1
 1249 977 l 1,41,-1
 1189 977 l 1,42,-1
 1189 1015 l 1,39,-1
115 1015 m 1,43,-1
 285 1015 l 1,44,-1
 318 977 l 1,45,-1
 115 977 l 1,46,-1
 115 1015 l 1,43,-1
1437 -70 m 1,47,-1
 1437 104 l 1,48,-1
 1477 104 l 1,49,-1
 1477 -108 l 1,50,-1
 650 -108 l 1,51,-1
 650 -70 l 1,52,-1
 1437 -70 l 1,47,-1
EndSplineSet
EndChar

StartChar: Z
Encoding: 90 90 61
Width: 1840
GlyphClass: 2
Flags: W
LayerCount: 2
Fore
SplineSet
186 162 m 1,0,-1
 1308 1106 l 1,1,-1
 438 1106 l 1,2,-1
 438 867 l 1,3,-1
 213 867 l 1,4,-1
 213 1245 l 1,5,-1
 1589 1245 l 1,6,-1
 1589 1067 l 1,7,-1
 492 142 l 1,8,-1
 1397 142 l 1,9,-1
 1397 372 l 1,10,-1
 1622 372 l 1,11,-1
 1622 0 l 1,12,-1
 186 0 l 1,13,-1
 186 162 l 1,0,-1
1671 1028 m 1,14,-1
 1671 1185 l 1,15,-1
 1711 1185 l 1,16,-1
 1711 1011 l 1,17,-1
 759 202 l 1,18,-1
 697 202 l 1,19,-1
 1671 1028 l 1,14,-1
273 797 m 1,20,-1
 510 797 l 1,21,-1
 510 1036 l 1,22,-1
 1143 1036 l 1,23,-1
 1098 998 l 1,24,-1
 550 998 l 1,25,-1
 550 759 l 1,26,-1
 273 759 l 1,27,-1
 273 797 l 1,20,-1
1694 -70 m 1,28,-1
 1694 316 l 1,29,-1
 1734 316 l 1,30,-1
 1734 -108 l 1,31,-1
 246 -108 l 1,32,-1
 246 -70 l 1,33,-1
 1694 -70 l 1,28,-1
EndSplineSet
EndChar

StartChar: bracketleft
Encoding: 91 91 62
Width: 858
GlyphClass: 2
Flags: W
LayerCount: 2
Fore
SplineSet
160 1325 m 1,0,-1
 666 1325 l 1,1,-1
 666 1200 l 1,2,-1
 360 1200 l 1,3,-1
 360 -276 l 1,4,-1
 666 -276 l 1,5,-1
 666 -401 l 1,6,-1
 160 -401 l 1,7,-1
 160 1325 l 1,0,-1
432 1130 m 1,8,-1
 738 1130 l 1,9,-1
 738 1274 l 1,10,-1
 778 1274 l 1,11,-1
 778 1092 l 1,12,-1
 472 1092 l 1,13,-1
 472 -216 l 1,14,-1
 432 -216 l 1,15,-1
 432 1130 l 1,8,-1
738 -471 m 1,16,-1
 738 -327 l 1,17,-1
 778 -327 l 1,18,-1
 778 -509 l 1,19,-1
 220 -509 l 1,20,-1
 220 -471 l 1,21,-1
 738 -471 l 1,16,-1
EndSplineSet
EndChar

StartChar: backslash
Encoding: 92 92 63
Width: 1129
GlyphClass: 2
Flags: W
LayerCount: 2
Fore
SplineSet
0 1325 m 1,0,-1
 221 1325 l 1,1,-1
 956 -401 l 1,2,-1
 735 -401 l 1,3,-1
 0 1325 l 1,0,-1
1068 -471 m 1,4,-1
 324 1274 l 1,5,-1
 369 1274 l 1,6,-1
 1129 -509 l 1,7,-1
 846 -509 l 1,8,-1
 829 -471 l 1,9,-1
 1068 -471 l 1,4,-1
EndSplineSet
EndChar

StartChar: bracketright
Encoding: 93 93 64
Width: 858
GlyphClass: 2
Flags: W
LayerCount: 2
Fore
SplineSet
406 -276 m 1,0,-1
 406 1200 l 1,1,-1
 100 1200 l 1,2,-1
 100 1325 l 1,3,-1
 606 1325 l 1,4,-1
 606 -401 l 1,5,-1
 100 -401 l 1,6,-1
 100 -276 l 1,7,-1
 406 -276 l 1,0,-1
678 -471 m 1,8,-1
 678 1274 l 1,9,-1
 718 1274 l 1,10,-1
 718 -509 l 1,11,-1
 160 -509 l 1,12,-1
 160 -471 l 1,13,-1
 678 -471 l 1,8,-1
160 1130 m 1,14,-1
 356 1130 l 1,15,-1
 356 1092 l 1,16,-1
 160 1092 l 1,17,-1
 160 1130 l 1,14,-1
EndSplineSet
EndChar

StartChar: asciicircum
Encoding: 94 94 65
Width: 1530
GlyphClass: 2
Flags: W
LayerCount: 2
Fore
SplineSet
590 1245 m 1,0,-1
 835 1245 l 1,1,-1
 1243 637 l 1,2,-1
 1028 637 l 1,3,-1
 717 1096 l 1,4,-1
 385 637 l 1,5,-1
 160 637 l 1,6,-1
 590 1245 l 1,0,-1
1375 567 m 1,7,-1
 958 1194 l 1,8,-1
 1006 1194 l 1,9,-1
 1450 529 l 1,10,-1
 1154 529 l 1,11,-1
 1130 567 l 1,12,-1
 1375 567 l 1,7,-1
229 567 m 1,13,-1
 423 567 l 1,14,-1
 729 988 l 1,15,-1
 754 952 l 1,16,-1
 446 529 l 1,17,-1
 203 529 l 1,18,-1
 229 567 l 1,13,-1
EndSplineSet
EndChar

StartChar: underscore
Encoding: 95 95 66
Width: 978
GlyphClass: 2
Flags: W
LayerCount: 2
Fore
SplineSet
998 -356 m 1,0,-1
 998 -491 l 1,1,-1
 -20 -491 l 1,2,-1
 -20 -356 l 1,3,-1
 998 -356 l 1,0,-1
EndSplineSet
EndChar

StartChar: grave
Encoding: 96 96 67
Width: 967
GlyphClass: 2
Flags: W
LayerCount: 2
Fore
SplineSet
140 1533 m 1,0,-1
 395 1533 l 1,1,-1
 635 1193 l 1,2,-1
 440 1193 l 1,3,-1
 140 1533 l 1,0,-1
569 1123 m 1,4,-1
 771 1123 l 1,5,-1
 514 1487 l 1,6,-1
 563 1487 l 1,7,-1
 847 1085 l 1,8,-1
 599 1085 l 1,9,-1
 569 1123 l 1,4,-1
EndSplineSet
EndChar

StartChar: a
Encoding: 97 97 68
Width: 1791
GlyphClass: 2
Flags: W
LayerCount: 2
Fore
SplineSet
115 479 m 0,0,1
 115 572 115 572 154 664 c 128,-1,2
 193 756 193 756 269.5 829.5 c 128,-1,3
 346 903 346 903 459 949 c 128,-1,4
 572 995 572 995 719 995 c 0,5,6
 766 995 766 995 819.5 988 c 128,-1,7
 873 981 873 981 926.5 965 c 128,-1,8
 980 949 980 949 1031 922.5 c 128,-1,9
 1082 896 1082 896 1124 858 c 1,10,-1
 1124 965 l 1,11,-1
 1554 965 l 1,12,-1
 1554 795 l 1,13,-1
 1334 795 l 1,14,-1
 1334 150 l 1,15,-1
 1554 150 l 1,16,-1
 1554 0 l 1,17,-1
 1124 0 l 1,18,-1
 1124 130 l 1,19,20
 1085 91 1085 91 1035.5 61 c 128,-1,21
 986 31 986 31 930.5 11 c 128,-1,22
 875 -9 875 -9 815.5 -19.5 c 128,-1,23
 756 -30 756 -30 697 -30 c 0,24,25
 553 -30 553 -30 444 11 c 128,-1,26
 335 52 335 52 262 121.5 c 128,-1,27
 189 191 189 191 152 283.5 c 128,-1,28
 115 376 115 376 115 479 c 0,0,1
1406 725 m 1,29,-1
 1626 725 l 1,30,-1
 1626 889 l 1,31,-1
 1666 889 l 1,32,-1
 1666 687 l 1,33,-1
 1446 687 l 1,34,-1
 1446 210 l 1,35,-1
 1406 210 l 1,36,-1
 1406 725 l 1,29,-1
332 487 m 0,37,38
 332 404 332 404 361.5 337 c 128,-1,39
 391 270 391 270 442 223 c 128,-1,40
 493 176 493 176 563 150 c 128,-1,41
 633 124 633 124 714 124 c 0,42,43
 761 124 761 124 809.5 133.5 c 128,-1,44
 858 143 858 143 903.5 162.5 c 128,-1,45
 949 182 949 182 989.5 211.5 c 128,-1,46
 1030 241 1030 241 1059.5 281.5 c 128,-1,47
 1089 322 1089 322 1106.5 374 c 128,-1,48
 1124 426 1124 426 1124 490 c 0,49,50
 1124 561 1124 561 1091 624.5 c 128,-1,51
 1058 688 1058 688 1002.5 736 c 128,-1,52
 947 784 947 784 873 812 c 128,-1,53
 799 840 799 840 717 840 c 256,54,55
 635 840 635 840 564.5 815 c 128,-1,56
 494 790 494 790 442.5 744 c 128,-1,57
 391 698 391 698 361.5 632.5 c 128,-1,58
 332 567 332 567 332 487 c 0,37,38
401 482 m 0,59,60
 401 545 401 545 424.5 597.5 c 128,-1,61
 448 650 448 650 490 688.5 c 128,-1,62
 532 727 532 727 590 748.5 c 128,-1,63
 648 770 648 770 717 770 c 0,64,65
 769 770 769 770 811 758.5 c 128,-1,66
 853 747 853 747 884 730.5 c 128,-1,67
 915 714 915 714 935 696.5 c 128,-1,68
 955 679 955 679 963 666 c 1,69,70
 909 696 909 696 852 714 c 128,-1,71
 795 732 795 732 717 732 c 0,72,73
 654 732 654 732 603.5 711.5 c 128,-1,74
 553 691 553 691 517 656 c 128,-1,75
 481 621 481 621 461.5 575 c 128,-1,76
 442 529 442 529 442 478 c 0,77,78
 442 430 442 430 453 388 c 128,-1,79
 464 346 464 346 488.5 310.5 c 128,-1,80
 513 275 513 275 552.5 245.5 c 128,-1,81
 592 216 592 216 648 194 c 1,82,83
 585 205 585 205 538.5 231.5 c 128,-1,84
 492 258 492 258 461.5 296 c 128,-1,85
 431 334 431 334 416 381.5 c 128,-1,86
 401 429 401 429 401 482 c 0,59,60
1626 -70 m 1,87,-1
 1626 94 l 1,88,-1
 1666 94 l 1,89,-1
 1666 -108 l 1,90,-1
 1184 -108 l 1,91,-1
 1184 -70 l 1,92,-1
 1626 -70 l 1,87,-1
244 43 m 1,93,94
 285 10 285 10 337 -16.5 c 128,-1,95
 389 -43 389 -43 448 -61.5 c 128,-1,96
 507 -80 507 -80 570.5 -90 c 128,-1,97
 634 -100 634 -100 698 -100 c 0,98,99
 809 -100 809 -100 905.5 -72.5 c 128,-1,100
 1002 -45 1002 -45 1077 4 c 1,101,-1
 1077 -42 l 1,102,103
 1002 -87 1002 -87 903.5 -112.5 c 128,-1,104
 805 -138 805 -138 699 -138 c 0,105,106
 626 -138 626 -138 556 -126.5 c 128,-1,107
 486 -115 486 -115 426 -92 c 128,-1,108
 366 -69 366 -69 319 -35 c 128,-1,109
 272 -1 272 -1 244 43 c 1,93,94
EndSplineSet
EndChar

StartChar: b
Encoding: 98 98 69
Width: 1756
GlyphClass: 2
Flags: W
LayerCount: 2
Fore
SplineSet
170 150 m 1,0,-1
 340 150 l 1,1,-1
 340 1235 l 1,2,-1
 120 1235 l 1,3,-1
 120 1395 l 1,4,-1
 555 1395 l 1,5,-1
 555 814 l 1,6,7
 628 889 628 889 732.5 932 c 128,-1,8
 837 975 837 975 960 975 c 0,9,10
 1101 975 1101 975 1209.5 933.5 c 128,-1,11
 1318 892 1318 892 1392.5 823.5 c 128,-1,12
 1467 755 1467 755 1505.5 667 c 128,-1,13
 1544 579 1544 579 1544 485 c 0,14,15
 1544 371 1544 371 1503.5 276.5 c 128,-1,16
 1463 182 1463 182 1387.5 114 c 128,-1,17
 1312 46 1312 46 1205.5 8 c 128,-1,18
 1099 -30 1099 -30 967 -30 c 0,19,20
 840 -30 840 -30 734 8.5 c 128,-1,21
 628 47 628 47 555 122 c 1,22,-1
 555 0 l 1,23,-1
 170 0 l 1,24,-1
 170 150 l 1,0,-1
628 1344 m 1,25,-1
 668 1344 l 1,26,-1
 668 980 l 1,27,-1
 628 960 l 1,28,-1
 628 1344 l 1,25,-1
180 1165 m 1,29,-1
 298 1165 l 1,30,-1
 298 1127 l 1,31,-1
 180 1127 l 1,32,-1
 180 1165 l 1,29,-1
627 -70 m 1,33,-1
 627 -18 l 1,34,35
 663 -37 663 -37 705 -52 c 128,-1,36
 747 -67 747 -67 791.5 -77.5 c 128,-1,37
 836 -88 836 -88 881 -94 c 128,-1,38
 926 -100 926 -100 967 -100 c 0,39,40
 1108 -100 1108 -100 1227 -60 c 128,-1,41
 1346 -20 1346 -20 1432.5 55 c 128,-1,42
 1519 130 1519 130 1567.5 238.5 c 128,-1,43
 1616 347 1616 347 1616 485 c 0,44,45
 1616 554 1616 554 1600.5 613 c 128,-1,46
 1585 672 1585 672 1559.5 721.5 c 128,-1,47
 1534 771 1534 771 1501 811 c 128,-1,48
 1468 851 1468 851 1433 883 c 1,49,50
 1487 855 1487 855 1528.5 812 c 128,-1,51
 1570 769 1570 769 1598.5 716.5 c 128,-1,52
 1627 664 1627 664 1642 604.5 c 128,-1,53
 1657 545 1657 545 1657 485 c 0,54,55
 1657 342 1657 342 1607 226.5 c 128,-1,56
 1557 111 1557 111 1466.5 30 c 128,-1,57
 1376 -51 1376 -51 1248.5 -94.5 c 128,-1,58
 1121 -138 1121 -138 966 -138 c 0,59,60
 932 -138 932 -138 892 -133.5 c 128,-1,61
 852 -129 852 -129 811 -120 c 128,-1,62
 770 -111 770 -111 731.5 -98.5 c 128,-1,63
 693 -86 693 -86 662 -70 c 1,64,-1
 662 -108 l 1,65,-1
 230 -108 l 1,66,-1
 230 -70 l 1,67,-1
 627 -70 l 1,33,-1
555 465 m 0,68,69
 555 373 555 373 591 308.5 c 128,-1,70
 627 244 627 244 685.5 203 c 128,-1,71
 744 162 744 162 819 143 c 128,-1,72
 894 124 894 124 972 124 c 0,73,74
 1053 124 1053 124 1118.5 149 c 128,-1,75
 1184 174 1184 174 1230.5 220 c 128,-1,76
 1277 266 1277 266 1302 331.5 c 128,-1,77
 1327 397 1327 397 1327 477 c 0,78,79
 1327 553 1327 553 1297.5 616.5 c 128,-1,80
 1268 680 1268 680 1217 725 c 128,-1,81
 1166 770 1166 770 1096.5 795 c 128,-1,82
 1027 820 1027 820 947 820 c 0,83,84
 864 820 864 820 792.5 795 c 128,-1,85
 721 770 721 770 668.5 723.5 c 128,-1,86
 616 677 616 677 585.5 611.5 c 128,-1,87
 555 546 555 546 555 465 c 0,68,69
627 465 m 0,88,89
 627 525 627 525 649.5 577 c 128,-1,90
 672 629 672 629 713.5 667.5 c 128,-1,91
 755 706 755 706 814 728 c 128,-1,92
 873 750 873 750 947 750 c 0,93,94
 1026 750 1026 750 1089 727.5 c 128,-1,95
 1152 705 1152 705 1190 654 c 1,96,97
 1124 686 1124 686 1068 699 c 128,-1,98
 1012 712 1012 712 947 712 c 256,99,100
 882 712 882 712 830.5 692.5 c 128,-1,101
 779 673 779 673 743 639 c 128,-1,102
 707 605 707 605 688 560.5 c 128,-1,103
 669 516 669 516 669 465 c 0,104,105
 669 384 669 384 715 318 c 128,-1,106
 761 252 761 252 864 204 c 1,107,108
 809 211 809 211 765 234.5 c 128,-1,109
 721 258 721 258 690.5 293.5 c 128,-1,110
 660 329 660 329 643.5 373 c 128,-1,111
 627 417 627 417 627 465 c 0,88,89
EndSplineSet
EndChar

StartChar: c
Encoding: 99 99 70
Width: 1591
GlyphClass: 2
Flags: W
LayerCount: 2
Fore
SplineSet
115 464 m 0,0,1
 115 570 115 570 160.5 666 c 128,-1,2
 206 762 206 762 288.5 835 c 128,-1,3
 371 908 371 908 487.5 951.5 c 128,-1,4
 604 995 604 995 745 995 c 0,5,6
 863 995 863 995 958.5 963.5 c 128,-1,7
 1054 932 1054 932 1135 875 c 1,8,-1
 1135 964 l 1,9,-1
 1350 964 l 1,10,-1
 1350 654 l 1,11,-1
 1145 654 l 1,12,13
 1117 689 1117 689 1076 722.5 c 128,-1,14
 1035 756 1035 756 983.5 782 c 128,-1,15
 932 808 932 808 871 824 c 128,-1,16
 810 840 810 840 742 840 c 0,17,18
 655 840 655 840 580 812 c 128,-1,19
 505 784 505 784 450 734 c 128,-1,20
 395 684 395 684 363.5 616 c 128,-1,21
 332 548 332 548 332 468 c 0,22,23
 332 385 332 385 365.5 321 c 128,-1,24
 399 257 399 257 458 213.5 c 128,-1,25
 517 170 517 170 598 147.5 c 128,-1,26
 679 125 679 125 774 125 c 0,27,28
 928 125 928 125 1046.5 174 c 128,-1,29
 1165 223 1165 223 1258 325 c 1,30,-1
 1364 204 l 1,31,32
 1255 87 1255 87 1111 28.5 c 128,-1,33
 967 -30 967 -30 779 -30 c 0,34,35
 621 -30 621 -30 497.5 5.5 c 128,-1,36
 374 41 374 41 289 106 c 128,-1,37
 204 171 204 171 159.5 262 c 128,-1,38
 115 353 115 353 115 464 c 0,0,1
1194 584 m 1,39,-1
 1422 584 l 1,40,-1
 1422 922 l 1,41,-1
 1462 922 l 1,42,-1
 1462 546 l 1,43,-1
 1194 546 l 1,44,-1
 1194 584 l 1,39,-1
404 468 m 0,45,46
 404 535 404 535 430 590.5 c 128,-1,47
 456 646 456 646 501.5 686 c 128,-1,48
 547 726 547 726 609 748 c 128,-1,49
 671 770 671 770 743 770 c 0,50,51
 786 770 786 770 830 762 c 128,-1,52
 874 754 874 754 913 739.5 c 128,-1,53
 952 725 952 725 983 705 c 128,-1,54
 1014 685 1014 685 1032 661 c 1,55,56
 972 693 972 693 903.5 712.5 c 128,-1,57
 835 732 835 732 747 732 c 0,58,59
 677 732 677 732 621 710.5 c 128,-1,60
 565 689 565 689 525.5 653 c 128,-1,61
 486 617 486 617 465 569 c 128,-1,62
 444 521 444 521 444 468 c 256,63,64
 444 415 444 415 460.5 374.5 c 128,-1,65
 477 334 477 334 508 301.5 c 128,-1,66
 539 269 539 269 584 244.5 c 128,-1,67
 629 220 629 220 686 200 c 1,68,69
 620 206 620 206 567.5 228 c 128,-1,70
 515 250 515 250 479 284.5 c 128,-1,71
 443 319 443 319 423.5 365.5 c 128,-1,72
 404 412 404 412 404 468 c 0,45,46
258 46 m 1,73,74
 306 11 306 11 365 -16.5 c 128,-1,75
 424 -44 424 -44 491.5 -62.5 c 128,-1,76
 559 -81 559 -81 632 -91 c 128,-1,77
 705 -101 705 -101 780 -101 c 0,78,79
 870 -101 870 -101 956.5 -86.5 c 128,-1,80
 1043 -72 1043 -72 1119 -45 c 128,-1,81
 1195 -18 1195 -18 1258 20.5 c 128,-1,82
 1321 59 1321 59 1365 107 c 1,83,-1
 1394 81 l 1,84,85
 1285 -30 1285 -30 1129.5 -84.5 c 128,-1,86
 974 -139 974 -139 778 -139 c 0,87,88
 697 -139 697 -139 617 -127 c 128,-1,89
 537 -115 537 -115 467 -91.5 c 128,-1,90
 397 -68 397 -68 342.5 -33.5 c 128,-1,91
 288 1 288 1 258 46 c 1,73,74
EndSplineSet
EndChar

StartChar: d
Encoding: 100 100 71
Width: 1691
GlyphClass: 2
Flags: W
LayerCount: 2
Fore
SplineSet
115 469 m 0,0,1
 115 562 115 562 154 652.5 c 128,-1,2
 193 743 193 743 269.5 814.5 c 128,-1,3
 346 886 346 886 459 930.5 c 128,-1,4
 572 975 572 975 719 975 c 0,5,6
 766 975 766 975 819.5 968 c 128,-1,7
 873 961 873 961 926.5 945 c 128,-1,8
 980 929 980 929 1031 902.5 c 128,-1,9
 1082 876 1082 876 1124 838 c 1,10,-1
 1124 1235 l 1,11,-1
 904 1235 l 1,12,-1
 904 1395 l 1,13,-1
 1339 1395 l 1,14,-1
 1339 150 l 1,15,-1
 1509 150 l 1,16,-1
 1509 0 l 1,17,-1
 1124 0 l 1,18,-1
 1124 127 l 1,19,20
 1046 51 1046 51 936 10.5 c 128,-1,21
 826 -30 826 -30 697 -30 c 0,22,23
 574 -30 574 -30 468 2.5 c 128,-1,24
 362 35 362 35 283.5 98 c 128,-1,25
 205 161 205 161 160 254 c 128,-1,26
 115 347 115 347 115 469 c 0,0,1
1411 1344 m 1,27,-1
 1451 1344 l 1,28,-1
 1451 210 l 1,29,-1
 1411 210 l 1,30,-1
 1411 1344 l 1,27,-1
964 1165 m 1,31,-1
 1082 1165 l 1,32,-1
 1082 1127 l 1,33,-1
 964 1127 l 1,34,-1
 964 1165 l 1,31,-1
332 477 m 0,35,36
 332 396 332 396 358.5 331 c 128,-1,37
 385 266 385 266 434.5 220 c 128,-1,38
 484 174 484 174 554.5 149 c 128,-1,39
 625 124 625 124 714 124 c 0,40,41
 761 124 761 124 809.5 133.5 c 128,-1,42
 858 143 858 143 903.5 162.5 c 128,-1,43
 949 182 949 182 989.5 211.5 c 128,-1,44
 1030 241 1030 241 1059.5 281.5 c 128,-1,45
 1089 322 1089 322 1106.5 374 c 128,-1,46
 1124 426 1124 426 1124 490 c 0,47,48
 1124 561 1124 561 1091 621.5 c 128,-1,49
 1058 682 1058 682 1002.5 726 c 128,-1,50
 947 770 947 770 873 795 c 128,-1,51
 799 820 799 820 717 820 c 0,52,53
 637 820 637 820 567 795 c 128,-1,54
 497 770 497 770 444.5 725 c 128,-1,55
 392 680 392 680 362 616.5 c 128,-1,56
 332 553 332 553 332 477 c 0,35,36
402 477 m 0,57,58
 402 534 402 534 424.5 583 c 128,-1,59
 447 632 447 632 488 669 c 128,-1,60
 529 706 529 706 587.5 727 c 128,-1,61
 646 748 646 748 717 748 c 0,62,63
 819 748 819 748 889 718 c 128,-1,64
 959 688 959 688 984 643 c 1,65,66
 930 678 930 678 862.5 694 c 128,-1,67
 795 710 795 710 717 710 c 0,68,69
 654 710 654 710 603.5 691.5 c 128,-1,70
 553 673 553 673 517.5 641 c 128,-1,71
 482 609 482 609 462.5 565.5 c 128,-1,72
 443 522 443 522 443 473 c 0,73,74
 443 284 443 284 656 195 c 1,75,76
 595 202 595 202 548 227 c 128,-1,77
 501 252 501 252 468.5 289.5 c 128,-1,78
 436 327 436 327 419 375 c 128,-1,79
 402 423 402 423 402 477 c 0,57,58
1581 -70 m 1,80,-1
 1581 94 l 1,81,-1
 1621 94 l 1,82,-1
 1621 -108 l 1,83,-1
 1184 -108 l 1,84,-1
 1184 -70 l 1,85,-1
 1581 -70 l 1,80,-1
244 43 m 1,86,87
 285 10 285 10 337 -16.5 c 128,-1,88
 389 -43 389 -43 448 -61.5 c 128,-1,89
 507 -80 507 -80 570.5 -90 c 128,-1,90
 634 -100 634 -100 698 -100 c 0,91,92
 809 -100 809 -100 905.5 -72.5 c 128,-1,93
 1002 -45 1002 -45 1077 4 c 1,94,-1
 1077 -42 l 1,95,96
 1002 -87 1002 -87 903.5 -112.5 c 128,-1,97
 805 -138 805 -138 699 -138 c 0,98,99
 537 -138 537 -138 422 -92.5 c 128,-1,100
 307 -47 307 -47 244 43 c 1,86,87
EndSplineSet
EndChar

StartChar: e
Encoding: 101 101 72
Width: 1562
GlyphClass: 2
Flags: W
LayerCount: 2
Fore
SplineSet
115 464 m 0,0,1
 115 570 115 570 154 666 c 128,-1,2
 193 762 193 762 271 835 c 128,-1,3
 349 908 349 908 465 951.5 c 128,-1,4
 581 995 581 995 734 995 c 0,5,6
 878 995 878 995 991 956.5 c 128,-1,7
 1104 918 1104 918 1183 845 c 128,-1,8
 1262 772 1262 772 1303.5 666.5 c 128,-1,9
 1345 561 1345 561 1345 426 c 1,10,-1
 334 426 l 1,11,12
 343 354 343 354 380.5 298 c 128,-1,13
 418 242 418 242 476 203.5 c 128,-1,14
 534 165 534 165 607.5 145 c 128,-1,15
 681 125 681 125 761 125 c 0,16,17
 826 125 826 125 893.5 135.5 c 128,-1,18
 961 146 961 146 1021 164 c 128,-1,19
 1081 182 1081 182 1128 204.5 c 128,-1,20
 1175 227 1175 227 1200 251 c 1,21,-1
 1238 251 l 1,22,-1
 1332 149 l 1,23,24
 1229 61 1229 61 1081.5 15.5 c 128,-1,25
 934 -30 934 -30 756 -30 c 0,26,27
 601 -30 601 -30 481.5 8 c 128,-1,28
 362 46 362 46 280.5 113 c 128,-1,29
 199 180 199 180 157 270 c 128,-1,30
 115 360 115 360 115 464 c 0,0,1
1413 356 m 1,31,32
 1415 371 1415 371 1416 388.5 c 128,-1,33
 1417 406 1417 406 1417 426 c 0,34,35
 1417 511 1417 511 1399.5 588.5 c 128,-1,36
 1382 666 1382 666 1348.5 732.5 c 128,-1,37
 1315 799 1315 799 1266 854 c 128,-1,38
 1217 909 1217 909 1155 948 c 1,39,40
 1221 922 1221 922 1276.5 876.5 c 128,-1,41
 1332 831 1332 831 1372 766 c 128,-1,42
 1412 701 1412 701 1434.5 616 c 128,-1,43
 1457 531 1457 531 1457 426 c 0,44,45
 1457 418 1457 418 1456.5 406 c 128,-1,46
 1456 394 1456 394 1455 379 c 128,-1,47
 1454 364 1454 364 1452.5 348.5 c 128,-1,48
 1451 333 1451 333 1449 318 c 1,49,-1
 504 318 l 1,50,51
 523 286 523 286 574 252.5 c 128,-1,52
 625 219 625 219 706 196 c 1,53,54
 656 196 656 196 612.5 208 c 128,-1,55
 569 220 569 220 533.5 241 c 128,-1,56
 498 262 498 262 471.5 291.5 c 128,-1,57
 445 321 445 321 430 356 c 1,58,-1
 1413 356 l 1,31,32
1114 551 m 1,59,60
 1098 620 1098 620 1064.5 674 c 128,-1,61
 1031 728 1031 728 982 764.5 c 128,-1,62
 933 801 933 801 870 820.5 c 128,-1,63
 807 840 807 840 732 840 c 0,64,65
 651 840 651 840 584.5 818.5 c 128,-1,66
 518 797 518 797 468 758.5 c 128,-1,67
 418 720 418 720 385.5 667 c 128,-1,68
 353 614 353 614 340 551 c 1,69,-1
 1114 551 l 1,59,60
431 594 m 1,70,71
 468 676 468 676 547.5 723 c 128,-1,72
 627 770 627 770 732 770 c 0,73,74
 775 770 775 770 815.5 763 c 128,-1,75
 856 756 856 756 890.5 741.5 c 128,-1,76
 925 727 925 727 951 706 c 128,-1,77
 977 685 977 685 992 658 c 1,78,79
 935 696 935 696 870 714 c 128,-1,80
 805 732 805 732 730 732 c 0,81,82
 643 732 643 732 577 696 c 128,-1,83
 511 660 511 660 477 594 c 1,84,-1
 431 594 l 1,70,71
236 44 m 1,85,86
 333 -25 333 -25 461.5 -63 c 128,-1,87
 590 -101 590 -101 756 -101 c 0,88,89
 918 -101 918 -101 1059.5 -64 c 128,-1,90
 1201 -27 1201 -27 1315 49 c 1,91,-1
 1342 20 l 1,92,93
 1213 -67 1213 -67 1070.5 -103 c 128,-1,94
 928 -139 928 -139 772 -139 c 0,95,96
 569 -139 569 -139 435.5 -90 c 128,-1,97
 302 -41 302 -41 236 44 c 1,85,86
EndSplineSet
EndChar

StartChar: f
Encoding: 102 102 73
Width: 1303
GlyphClass: 2
Flags: W
LayerCount: 2
Fore
SplineSet
140 150 m 1,0,-1
 360 150 l 1,1,-1
 360 685 l 1,2,-1
 140 685 l 1,3,-1
 140 835 l 1,4,-1
 360 835 l 1,5,-1
 360 980 l 2,6,7
 360 1076 360 1076 391.5 1156 c 128,-1,8
 423 1236 423 1236 481 1293.5 c 128,-1,9
 539 1351 539 1351 622 1383 c 128,-1,10
 705 1415 705 1415 809 1415 c 0,11,12
 900 1415 900 1415 970 1392.5 c 128,-1,13
 1040 1370 1040 1370 1089.5 1330.5 c 128,-1,14
 1139 1291 1139 1291 1169 1237 c 128,-1,15
 1199 1183 1199 1183 1211 1119 c 1,16,-1
 1005 1119 l 1,17,18
 996 1140 996 1140 982 1160.5 c 128,-1,19
 968 1181 968 1181 945 1197.5 c 128,-1,20
 922 1214 922 1214 889 1224.5 c 128,-1,21
 856 1235 856 1235 809 1235 c 0,22,23
 764 1235 764 1235 721.5 1220.5 c 128,-1,24
 679 1206 679 1206 646.5 1176.5 c 128,-1,25
 614 1147 614 1147 594.5 1102 c 128,-1,26
 575 1057 575 1057 575 997 c 2,27,-1
 575 835 l 1,28,-1
 1038 835 l 1,29,-1
 1038 685 l 1,30,-1
 575 685 l 1,31,-1
 575 150 l 1,32,-1
 915 150 l 1,33,-1
 915 0 l 1,34,-1
 140 0 l 1,35,-1
 140 150 l 1,0,-1
1065 1049 m 1,36,-1
 1283 1049 l 1,37,-1
 1283 1062 l 2,38,39
 1283 1109 1283 1109 1273 1152.5 c 128,-1,40
 1263 1196 1263 1196 1246 1235 c 128,-1,41
 1229 1274 1229 1274 1206.5 1307 c 128,-1,42
 1184 1340 1184 1340 1159 1366 c 1,43,44
 1199 1346 1199 1346 1230 1310 c 128,-1,45
 1261 1274 1261 1274 1281.5 1232.5 c 128,-1,46
 1302 1191 1302 1191 1312.5 1150 c 128,-1,47
 1323 1109 1323 1109 1323 1079 c 2,48,-1
 1323 1011 l 1,49,-1
 1065 1011 l 1,50,-1
 1065 1049 l 1,36,-1
645 927 m 2,51,52
 645 998 645 998 659 1045 c 128,-1,53
 673 1092 673 1092 697 1119.5 c 128,-1,54
 721 1147 721 1147 752.5 1158 c 128,-1,55
 784 1169 784 1169 819 1169 c 0,56,57
 844 1169 844 1169 864.5 1163 c 128,-1,58
 885 1157 885 1157 900 1148 c 128,-1,59
 915 1139 915 1139 925 1128.5 c 128,-1,60
 935 1118 935 1118 940 1108 c 1,61,62
 903 1127 903 1127 868 1130.5 c 128,-1,63
 833 1134 833 1134 817 1134 c 0,64,65
 792 1134 792 1134 768.5 1126 c 128,-1,66
 745 1118 745 1118 726.5 1095.5 c 128,-1,67
 708 1073 708 1073 696.5 1032.5 c 128,-1,68
 685 992 685 992 685 926 c 2,69,-1
 685 905 l 1,70,-1
 645 905 l 1,71,-1
 645 927 l 2,51,52
645 615 m 1,72,-1
 1110 615 l 1,73,-1
 1110 779 l 1,74,-1
 1150 779 l 1,75,-1
 1150 577 l 1,76,-1
 685 577 l 1,77,-1
 685 210 l 1,78,-1
 645 210 l 1,79,-1
 645 615 l 1,72,-1
200 615 m 1,80,-1
 320 615 l 1,81,-1
 320 577 l 1,82,-1
 200 577 l 1,83,-1
 200 615 l 1,80,-1
987 -70 m 1,84,-1
 987 94 l 1,85,-1
 1027 94 l 1,86,-1
 1027 -108 l 1,87,-1
 200 -108 l 1,88,-1
 200 -70 l 1,89,-1
 987 -70 l 1,84,-1
EndSplineSet
EndChar

StartChar: g
Encoding: 103 103 74
Width: 1731
GlyphClass: 2
Flags: W
LayerCount: 2
Fore
SplineSet
256 -175 m 1,0,1
 305 -226 305 -226 365.5 -260.5 c 128,-1,2
 426 -295 426 -295 488.5 -316 c 128,-1,3
 551 -337 551 -337 611 -346 c 128,-1,4
 671 -355 671 -355 719 -355 c 0,5,6
 813 -355 813 -355 888 -337.5 c 128,-1,7
 963 -320 963 -320 1015.5 -274 c 128,-1,8
 1068 -228 1068 -228 1096 -148 c 128,-1,9
 1124 -68 1124 -68 1124 58 c 2,10,-1
 1124 148 l 1,11,12
 1086 112 1086 112 1038 83 c 128,-1,13
 990 54 990 54 935 33 c 128,-1,14
 880 12 880 12 819.5 1 c 128,-1,15
 759 -10 759 -10 697 -10 c 0,16,17
 557 -10 557 -10 448.5 25 c 128,-1,18
 340 60 340 60 266 124.5 c 128,-1,19
 192 189 192 189 153.5 281 c 128,-1,20
 115 373 115 373 115 487 c 0,21,22
 115 549 115 549 133 610.5 c 128,-1,23
 151 672 151 672 186.5 728.5 c 128,-1,24
 222 785 222 785 274.5 833.5 c 128,-1,25
 327 882 327 882 395 918 c 128,-1,26
 463 954 463 954 547 974.5 c 128,-1,27
 631 995 631 995 729 995 c 0,28,29
 775 995 775 995 827.5 986.5 c 128,-1,30
 880 978 880 978 932 960 c 128,-1,31
 984 942 984 942 1033.5 913.5 c 128,-1,32
 1083 885 1083 885 1124 845 c 1,33,-1
 1124 965 l 1,34,-1
 1554 965 l 1,35,-1
 1554 795 l 1,36,-1
 1334 795 l 1,37,-1
 1334 58 l 2,38,39
 1334 -103 1334 -103 1289 -212 c 128,-1,40
 1244 -321 1244 -321 1163 -387 c 128,-1,41
 1082 -453 1082 -453 970.5 -481.5 c 128,-1,42
 859 -510 859 -510 726 -510 c 0,43,44
 648 -510 648 -510 566 -498 c 128,-1,45
 484 -486 484 -486 406.5 -461.5 c 128,-1,46
 329 -437 329 -437 261 -398.5 c 128,-1,47
 193 -360 193 -360 144 -306 c 1,48,-1
 256 -175 l 1,0,1
203 -445 m 1,49,50
 253 -481 253 -481 316 -507 c 128,-1,51
 379 -533 379 -533 448 -549 c 128,-1,52
 517 -565 517 -565 588 -572.5 c 128,-1,53
 659 -580 659 -580 726 -580 c 0,54,55
 817 -580 817 -580 903 -566.5 c 128,-1,56
 989 -553 989 -553 1064.5 -523 c 128,-1,57
 1140 -493 1140 -493 1203 -444 c 128,-1,58
 1266 -395 1266 -395 1311 -323.5 c 128,-1,59
 1356 -252 1356 -252 1381 -156.5 c 128,-1,60
 1406 -61 1406 -61 1406 63 c 2,61,-1
 1406 725 l 1,62,-1
 1626 725 l 1,63,-1
 1626 909 l 1,64,-1
 1666 909 l 1,65,-1
 1666 687 l 1,66,-1
 1446 687 l 1,67,-1
 1446 63 l 2,68,69
 1446 -67 1446 -67 1420 -168 c 128,-1,70
 1394 -269 1394 -269 1347 -345 c 128,-1,71
 1300 -421 1300 -421 1234 -473 c 128,-1,72
 1168 -525 1168 -525 1088 -557 c 128,-1,73
 1008 -589 1008 -589 916 -603.5 c 128,-1,74
 824 -618 824 -618 726 -618 c 0,75,76
 650 -618 650 -618 571 -606 c 128,-1,77
 492 -594 492 -594 421.5 -571.5 c 128,-1,78
 351 -549 351 -549 293.5 -517 c 128,-1,79
 236 -485 236 -485 203 -445 c 1,49,50
332 495 m 0,80,81
 332 418 332 418 356.5 353.5 c 128,-1,82
 381 289 381 289 429.5 242.5 c 128,-1,83
 478 196 478 196 549.5 170 c 128,-1,84
 621 144 621 144 714 144 c 0,85,86
 788 144 788 144 861.5 162.5 c 128,-1,87
 935 181 935 181 993.5 223 c 128,-1,88
 1052 265 1052 265 1088 333 c 128,-1,89
 1124 401 1124 401 1124 500 c 0,90,91
 1124 571 1124 571 1093 633 c 128,-1,92
 1062 695 1062 695 1008 741 c 128,-1,93
 954 787 954 787 881.5 813.5 c 128,-1,94
 809 840 809 840 727 840 c 0,95,96
 647 840 647 840 575.5 815 c 128,-1,97
 504 790 504 790 450 744 c 128,-1,98
 396 698 396 698 364 634.5 c 128,-1,99
 332 571 332 571 332 495 c 0,80,81
402 493 m 0,100,101
 402 550 402 550 426 600.5 c 128,-1,102
 450 651 450 651 493 688.5 c 128,-1,103
 536 726 536 726 596 748 c 128,-1,104
 656 770 656 770 727 770 c 0,105,106
 822 770 822 770 884.5 739.5 c 128,-1,107
 947 709 947 709 983 662 c 1,108,109
 959 677 959 677 933.5 690 c 128,-1,110
 908 703 908 703 877.5 712.5 c 128,-1,111
 847 722 847 722 810 727.5 c 128,-1,112
 773 733 773 733 727 733 c 0,113,114
 664 733 664 733 612 713.5 c 128,-1,115
 560 694 560 694 522.5 661 c 128,-1,116
 485 628 485 628 464.5 585.5 c 128,-1,117
 444 543 444 543 444 497 c 0,118,119
 444 399 444 399 490.5 329.5 c 128,-1,120
 537 260 537 260 645 217 c 1,121,122
 593 222 593 222 548.5 244 c 128,-1,123
 504 266 504 266 471.5 302 c 128,-1,124
 439 338 439 338 420.5 386.5 c 128,-1,125
 402 435 402 435 402 493 c 0,100,101
236 63 m 1,126,127
 277 30 277 30 330.5 3.5 c 128,-1,128
 384 -23 384 -23 444.5 -41.5 c 128,-1,129
 505 -60 505 -60 569.5 -70 c 128,-1,130
 634 -80 634 -80 698 -80 c 0,131,132
 809 -80 809 -80 905.5 -53.5 c 128,-1,133
 1002 -27 1002 -27 1077 22 c 1,134,-1
 1071 -28 l 1,135,136
 996 -73 996 -73 900.5 -95.5 c 128,-1,137
 805 -118 805 -118 699 -118 c 0,138,139
 537 -118 537 -118 418 -72.5 c 128,-1,140
 299 -27 299 -27 236 63 c 1,126,127
EndSplineSet
EndChar

StartChar: h
Encoding: 104 104 75
Width: 1817
GlyphClass: 2
Flags: W
LayerCount: 2
Fore
SplineSet
120 150 m 1,0,-1
 340 150 l 1,1,-1
 340 1235 l 1,2,-1
 120 1235 l 1,3,-1
 120 1395 l 1,4,-1
 555 1395 l 1,5,-1
 555 814 l 1,6,7
 586 852 586 852 629.5 885 c 128,-1,8
 673 918 673 918 727 942.5 c 128,-1,9
 781 967 781 967 844 981 c 128,-1,10
 907 995 907 995 976 995 c 0,11,12
 1080 995 1080 995 1165 965.5 c 128,-1,13
 1250 936 1250 936 1310 874.5 c 128,-1,14
 1370 813 1370 813 1402.5 719.5 c 128,-1,15
 1435 626 1435 626 1435 498 c 2,16,-1
 1435 150 l 1,17,-1
 1655 150 l 1,18,-1
 1655 0 l 1,19,-1
 1050 0 l 1,20,-1
 1050 150 l 1,21,-1
 1220 150 l 1,22,-1
 1220 413 l 2,23,24
 1220 494 1220 494 1212.5 557.5 c 128,-1,25
 1205 621 1205 621 1191 657 c 0,26,27
 1173 703 1173 703 1145.5 735 c 128,-1,28
 1118 767 1118 767 1083.5 787 c 128,-1,29
 1049 807 1049 807 1008 816 c 128,-1,30
 967 825 967 825 921 825 c 0,31,32
 872 825 872 825 819.5 807 c 128,-1,33
 767 789 767 789 717.5 756.5 c 128,-1,34
 668 724 668 724 625.5 680 c 128,-1,35
 583 636 583 636 555 585 c 1,36,-1
 555 150 l 1,37,-1
 725 150 l 1,38,-1
 725 0 l 1,39,-1
 120 0 l 1,40,-1
 120 150 l 1,0,-1
625 1344 m 1,41,-1
 665 1344 l 1,42,-1
 665 978 l 1,43,44
 656 974 656 974 644.5 967 c 128,-1,45
 633 960 633 960 625 952 c 1,46,-1
 625 1344 l 1,41,-1
180 1165 m 1,47,-1
 298 1165 l 1,48,-1
 298 1127 l 1,49,-1
 180 1127 l 1,50,-1
 180 1165 l 1,47,-1
1507 491 m 2,51,52
 1507 579 1507 579 1493.5 654.5 c 128,-1,53
 1480 730 1480 730 1453 790.5 c 128,-1,54
 1426 851 1426 851 1386.5 895 c 128,-1,55
 1347 939 1347 939 1295 965 c 1,56,57
 1363 948 1363 948 1411 907.5 c 128,-1,58
 1459 867 1459 867 1489 805 c 128,-1,59
 1519 743 1519 743 1533 662 c 128,-1,60
 1547 581 1547 581 1547 484 c 2,61,-1
 1547 210 l 1,62,-1
 1507 210 l 1,63,-1
 1507 491 l 2,51,52
627 560 m 1,64,65
 652 604 652 604 686.5 640 c 128,-1,66
 721 676 721 676 761 701.5 c 128,-1,67
 801 727 801 727 844.5 741 c 128,-1,68
 888 755 888 755 932 755 c 0,69,70
 1001 755 1001 755 1045.5 729 c 128,-1,71
 1090 703 1090 703 1110 663 c 1,72,73
 1079 686 1079 686 1036 701.5 c 128,-1,74
 993 717 993 717 930 717 c 0,75,76
 891 717 891 717 851 703 c 128,-1,77
 811 689 811 689 776 666 c 128,-1,78
 741 643 741 643 712.5 613 c 128,-1,79
 684 583 684 583 667 551 c 1,80,-1
 667 210 l 1,81,-1
 627 210 l 1,82,-1
 627 560 l 1,64,65
1727 -70 m 1,83,-1
 1727 94 l 1,84,-1
 1767 94 l 1,85,-1
 1767 -108 l 1,86,-1
 1110 -108 l 1,87,-1
 1110 -70 l 1,88,-1
 1727 -70 l 1,83,-1
797 -70 m 1,89,-1
 797 94 l 1,90,-1
 837 94 l 1,91,-1
 837 -108 l 1,92,-1
 180 -108 l 1,93,-1
 180 -70 l 1,94,-1
 797 -70 l 1,89,-1
EndSplineSet
EndChar

StartChar: i
Encoding: 105 105 76
Width: 947
GlyphClass: 2
Flags: W
LayerCount: 2
Fore
SplineSet
335 1414 m 1,0,-1
 580 1414 l 1,1,-1
 580 1214 l 1,2,-1
 335 1214 l 1,3,-1
 335 1414 l 1,0,-1
395 1144 m 1,4,-1
 652 1144 l 1,5,-1
 652 1358 l 1,6,-1
 692 1358 l 1,7,-1
 692 1106 l 1,8,-1
 395 1106 l 1,9,-1
 395 1144 l 1,4,-1
125 150 m 1,10,-1
 395 150 l 1,11,-1
 365 795 l 1,12,-1
 125 795 l 1,13,-1
 125 965 l 1,14,-1
 580 965 l 1,15,-1
 580 150 l 1,16,-1
 810 150 l 1,17,-1
 810 0 l 1,18,-1
 125 0 l 1,19,-1
 125 150 l 1,10,-1
650 914 m 1,20,-1
 690 914 l 1,21,-1
 690 210 l 1,22,-1
 650 210 l 1,23,-1
 650 914 l 1,20,-1
185 725 m 1,24,-1
 323 725 l 1,25,-1
 323 687 l 1,26,-1
 185 687 l 1,27,-1
 185 725 l 1,24,-1
882 -70 m 1,28,-1
 882 94 l 1,29,-1
 922 94 l 1,30,-1
 922 -108 l 1,31,-1
 185 -108 l 1,32,-1
 185 -70 l 1,33,-1
 882 -70 l 1,28,-1
EndSplineSet
EndChar

StartChar: j
Encoding: 106 106 77
Width: 920
GlyphClass: 2
Flags: W
LayerCount: 2
Fore
SplineSet
363 1414 m 1,0,-1
 608 1414 l 1,1,-1
 608 1214 l 1,2,-1
 363 1214 l 1,3,-1
 363 1414 l 1,0,-1
423 1144 m 1,4,-1
 680 1144 l 1,5,-1
 680 1358 l 1,6,-1
 720 1358 l 1,7,-1
 720 1106 l 1,8,-1
 423 1106 l 1,9,-1
 423 1144 l 1,4,-1
-89 -156 m 1,10,11
 -56 -197 -56 -197 -25 -224.5 c 128,-1,12
 6 -252 6 -252 39.5 -269 c 128,-1,13
 73 -286 73 -286 111.5 -293 c 128,-1,14
 150 -300 150 -300 197 -300 c 0,15,16
 221 -300 221 -300 247 -292 c 128,-1,17
 273 -284 273 -284 297 -266.5 c 128,-1,18
 321 -249 321 -249 341 -222 c 128,-1,19
 361 -195 361 -195 373 -156 c 0,20,21
 384 -119 384 -119 388.5 -71.5 c 128,-1,22
 393 -24 393 -24 393 36 c 2,23,-1
 393 794 l 1,24,-1
 163 794 l 1,25,-1
 163 965 l 1,26,-1
 608 965 l 1,27,-1
 608 186 l 2,28,29
 608 141 608 141 605.5 90.5 c 128,-1,30
 603 40 603 40 599 -7.5 c 128,-1,31
 595 -55 595 -55 589.5 -96.5 c 128,-1,32
 584 -138 584 -138 578 -165 c 0,33,34
 564 -230 564 -230 529 -285.5 c 128,-1,35
 494 -341 494 -341 442.5 -382 c 128,-1,36
 391 -423 391 -423 323.5 -446.5 c 128,-1,37
 256 -470 256 -470 178 -470 c 0,38,39
 131 -470 131 -470 79 -459.5 c 128,-1,40
 27 -449 27 -449 -24 -427 c 128,-1,41
 -75 -405 -75 -405 -122.5 -371 c 128,-1,42
 -170 -337 -170 -337 -209 -290 c 1,43,-1
 -89 -156 l 1,10,11
-167 -435 m 1,44,45
 -133 -460 -133 -460 -91.5 -479.5 c 128,-1,46
 -50 -499 -50 -499 -4.5 -512.5 c 128,-1,47
 41 -526 41 -526 90 -533 c 128,-1,48
 139 -540 139 -540 187 -540 c 0,49,50
 301 -540 301 -540 391.5 -499 c 128,-1,51
 482 -458 482 -458 546 -383.5 c 128,-1,52
 610 -309 610 -309 644 -206 c 128,-1,53
 678 -103 678 -103 678 22 c 2,54,-1
 678 914 l 1,55,-1
 718 914 l 1,56,-1
 718 22 l 2,57,58
 718 -116 718 -116 679.5 -227 c 128,-1,59
 641 -338 641 -338 571 -416 c 128,-1,60
 501 -494 501 -494 403.5 -536 c 128,-1,61
 306 -578 306 -578 188 -578 c 0,62,63
 119 -578 119 -578 64.5 -567.5 c 128,-1,64
 10 -557 10 -557 -33 -538 c 128,-1,65
 -76 -519 -76 -519 -108.5 -493 c 128,-1,66
 -141 -467 -141 -467 -167 -435 c 1,44,45
223 724 m 1,67,-1
 351 724 l 1,68,-1
 351 686 l 1,69,-1
 223 686 l 1,70,-1
 223 724 l 1,67,-1
38 -147 m 1,71,72
 48 -162 48 -162 64 -176 c 128,-1,73
 80 -190 80 -190 99 -202 c 128,-1,74
 118 -214 118 -214 138 -223.5 c 128,-1,75
 158 -233 158 -233 175 -238 c 1,76,77
 153 -238 153 -238 128.5 -233 c 128,-1,78
 104 -228 104 -228 81.5 -219.5 c 128,-1,79
 59 -211 59 -211 40.5 -200 c 128,-1,80
 22 -189 22 -189 12 -177 c 1,81,-1
 38 -147 l 1,71,72
EndSplineSet
EndChar

StartChar: k
Encoding: 107 107 78
Width: 1797
GlyphClass: 2
Flags: W
LayerCount: 2
Fore
SplineSet
130 150 m 1,0,-1
 350 150 l 1,1,-1
 350 1245 l 1,2,-1
 130 1245 l 1,3,-1
 130 1395 l 1,4,-1
 565 1395 l 1,5,-1
 565 473 l 1,6,-1
 1078 795 l 1,7,-1
 916 795 l 1,8,-1
 916 965 l 1,9,-1
 1572 965 l 1,10,-1
 1572 795 l 1,11,-1
 1323 795 l 1,12,-1
 952 567 l 1,13,-1
 1378 150 l 1,14,-1
 1595 150 l 1,15,-1
 1595 0 l 1,16,-1
 974 0 l 1,17,-1
 974 150 l 1,18,-1
 1105 150 l 1,19,-1
 784 464 l 1,20,-1
 565 329 l 1,21,-1
 565 150 l 1,22,-1
 735 150 l 1,23,-1
 735 0 l 1,24,-1
 130 0 l 1,25,-1
 130 150 l 1,0,-1
635 1344 m 1,26,-1
 675 1344 l 1,27,-1
 675 604 l 1,28,-1
 635 580 l 1,29,-1
 635 1344 l 1,26,-1
190 1175 m 1,30,-1
 308 1175 l 1,31,-1
 308 1137 l 1,32,-1
 190 1137 l 1,33,-1
 190 1175 l 1,30,-1
1376 734 m 1,34,-1
 1644 734 l 1,35,-1
 1644 909 l 1,36,-1
 1684 909 l 1,37,-1
 1684 696 l 1,38,-1
 1384 696 l 1,39,-1
 1129 548 l 1,40,-1
 1474 210 l 1,41,-1
 1418 210 l 1,42,-1
 1065 555 l 1,43,-1
 1376 734 l 1,34,-1
635 289 m 1,44,-1
 812 399 l 1,45,-1
 839 372 l 1,46,-1
 673 269 l 1,47,-1
 673 210 l 1,48,-1
 635 210 l 1,49,-1
 635 289 l 1,44,-1
1667 -70 m 1,50,-1
 1667 94 l 1,51,-1
 1707 94 l 1,52,-1
 1707 -108 l 1,53,-1
 1034 -108 l 1,54,-1
 1034 -70 l 1,55,-1
 1667 -70 l 1,50,-1
807 -70 m 1,56,-1
 807 94 l 1,57,-1
 847 94 l 1,58,-1
 847 -108 l 1,59,-1
 190 -108 l 1,60,-1
 190 -70 l 1,61,-1
 807 -70 l 1,56,-1
EndSplineSet
EndChar

StartChar: l
Encoding: 108 108 79
Width: 957
GlyphClass: 2
Flags: W
LayerCount: 2
Fore
SplineSet
120 150 m 1,0,-1
 340 150 l 1,1,-1
 340 1245 l 1,2,-1
 120 1245 l 1,3,-1
 120 1395 l 1,4,-1
 555 1395 l 1,5,-1
 555 150 l 1,6,-1
 775 150 l 1,7,-1
 775 0 l 1,8,-1
 120 0 l 1,9,-1
 120 150 l 1,0,-1
625 1344 m 1,10,-1
 665 1344 l 1,11,-1
 665 210 l 1,12,-1
 625 210 l 1,13,-1
 625 1344 l 1,10,-1
180 1175 m 1,14,-1
 298 1175 l 1,15,-1
 298 1137 l 1,16,-1
 180 1137 l 1,17,-1
 180 1175 l 1,14,-1
847 -70 m 1,18,-1
 847 94 l 1,19,-1
 887 94 l 1,20,-1
 887 -108 l 1,21,-1
 180 -108 l 1,22,-1
 180 -70 l 1,23,-1
 847 -70 l 1,18,-1
EndSplineSet
EndChar

StartChar: m
Encoding: 109 109 80
Width: 2682
GlyphClass: 2
Flags: W
LayerCount: 2
Fore
SplineSet
157 150 m 1,0,-1
 377 150 l 1,1,-1
 377 795 l 1,2,-1
 157 795 l 1,3,-1
 157 965 l 1,4,-1
 592 965 l 1,5,-1
 592 815 l 1,6,7
 622 853 622 853 664 886 c 128,-1,8
 706 919 706 919 758.5 943 c 128,-1,9
 811 967 811 967 872.5 981 c 128,-1,10
 934 995 934 995 1003 995 c 0,11,12
 1144 995 1144 995 1244.5 940 c 128,-1,13
 1345 885 1345 885 1400 770 c 1,14,15
 1437 819 1437 819 1486.5 860.5 c 128,-1,16
 1536 902 1536 902 1595 932 c 128,-1,17
 1654 962 1654 962 1721.5 978.5 c 128,-1,18
 1789 995 1789 995 1863 995 c 0,19,20
 1966 995 1966 995 2049 965 c 128,-1,21
 2132 935 2132 935 2190.5 873.5 c 128,-1,22
 2249 812 2249 812 2280.5 718.5 c 128,-1,23
 2312 625 2312 625 2312 498 c 2,24,-1
 2312 150 l 1,25,-1
 2532 150 l 1,26,-1
 2532 0 l 1,27,-1
 1927 0 l 1,28,-1
 1927 150 l 1,29,-1
 2097 150 l 1,30,-1
 2097 408 l 2,31,32
 2097 502 2097 502 2089 572 c 128,-1,33
 2081 642 2081 642 2062 680 c 0,34,35
 2024 759 2024 759 1959.5 792 c 128,-1,36
 1895 825 1895 825 1808 825 c 0,37,38
 1758 825 1758 825 1706 806.5 c 128,-1,39
 1654 788 1654 788 1606 755 c 128,-1,40
 1558 722 1558 722 1517 677 c 128,-1,41
 1476 632 1476 632 1448 580 c 1,42,43
 1450 560 1450 560 1451 539.5 c 128,-1,44
 1452 519 1452 519 1452 498 c 2,45,-1
 1452 150 l 1,46,-1
 1622 150 l 1,47,-1
 1622 0 l 1,48,-1
 1067 0 l 1,49,-1
 1067 150 l 1,50,-1
 1237 150 l 1,51,-1
 1237 413 l 2,52,53
 1237 494 1237 494 1229.5 557.5 c 128,-1,54
 1222 621 1222 621 1208 657 c 0,55,56
 1173 748 1173 748 1106 786.5 c 128,-1,57
 1039 825 1039 825 948 825 c 0,58,59
 898 825 898 825 847 807 c 128,-1,60
 796 789 796 789 748.5 757 c 128,-1,61
 701 725 701 725 660.5 681 c 128,-1,62
 620 637 620 637 592 586 c 1,63,-1
 592 150 l 1,64,-1
 762 150 l 1,65,-1
 762 0 l 1,66,-1
 157 0 l 1,67,-1
 157 150 l 1,0,-1
2172 965 m 1,68,69
 2240 948 2240 948 2288 907.5 c 128,-1,70
 2336 867 2336 867 2366 805 c 128,-1,71
 2396 743 2396 743 2410 662 c 128,-1,72
 2424 581 2424 581 2424 484 c 2,73,-1
 2424 210 l 1,74,-1
 2384 210 l 1,75,-1
 2384 491 l 2,76,77
 2384 579 2384 579 2370.5 654.5 c 128,-1,78
 2357 730 2357 730 2330 790.5 c 128,-1,79
 2303 851 2303 851 2263.5 895 c 128,-1,80
 2224 939 2224 939 2172 965 c 1,68,69
1312 965 m 1,81,82
 1360 959 1360 959 1396.5 938 c 128,-1,83
 1433 917 1433 917 1453 892 c 1,84,-1
 1424 865 l 1,85,86
 1418 877 1418 877 1405.5 892 c 128,-1,87
 1393 907 1393 907 1377.5 921.5 c 128,-1,88
 1362 936 1362 936 1344.5 947.5 c 128,-1,89
 1327 959 1327 959 1312 965 c 1,81,82
1524 560 m 1,90,91
 1549 604 1549 604 1582 640 c 128,-1,92
 1615 676 1615 676 1653 701.5 c 128,-1,93
 1691 727 1691 727 1733 741 c 128,-1,94
 1775 755 1775 755 1819 755 c 0,95,96
 1888 755 1888 755 1932.5 729 c 128,-1,97
 1977 703 1977 703 1997 663 c 1,98,99
 1966 686 1966 686 1923 701.5 c 128,-1,100
 1880 717 1880 717 1817 717 c 0,101,102
 1778 717 1778 717 1739.5 703.5 c 128,-1,103
 1701 690 1701 690 1667.5 667 c 128,-1,104
 1634 644 1634 644 1607 614 c 128,-1,105
 1580 584 1580 584 1564 552 c 1,106,-1
 1564 210 l 1,107,-1
 1524 210 l 1,108,-1
 1524 560 l 1,90,91
664 560 m 1,109,110
 689 604 689 604 722 640 c 128,-1,111
 755 676 755 676 793 701.5 c 128,-1,112
 831 727 831 727 873 741 c 128,-1,113
 915 755 915 755 959 755 c 0,114,115
 1028 755 1028 755 1072.5 729 c 128,-1,116
 1117 703 1117 703 1137 663 c 1,117,118
 1106 686 1106 686 1063 701.5 c 128,-1,119
 1020 717 1020 717 957 717 c 0,120,121
 918 717 918 717 879.5 703.5 c 128,-1,122
 841 690 841 690 807.5 667 c 128,-1,123
 774 644 774 644 747 614 c 128,-1,124
 720 584 720 584 704 552 c 1,125,-1
 704 210 l 1,126,-1
 664 210 l 1,127,-1
 664 560 l 1,109,110
217 725 m 1,128,-1
 335 725 l 1,129,-1
 335 687 l 1,130,-1
 217 687 l 1,131,-1
 217 725 l 1,128,-1
2604 -70 m 1,132,-1
 2604 94 l 1,133,-1
 2644 94 l 1,134,-1
 2644 -108 l 1,135,-1
 1987 -108 l 1,136,-1
 1987 -70 l 1,137,-1
 2604 -70 l 1,132,-1
1694 -70 m 1,138,-1
 1694 94 l 1,139,-1
 1734 94 l 1,140,-1
 1734 -108 l 1,141,-1
 1127 -108 l 1,142,-1
 1127 -70 l 1,143,-1
 1694 -70 l 1,138,-1
834 -70 m 1,144,-1
 834 94 l 1,145,-1
 874 94 l 1,146,-1
 874 -108 l 1,147,-1
 217 -108 l 1,148,-1
 217 -70 l 1,149,-1
 834 -70 l 1,144,-1
EndSplineSet
EndChar

StartChar: n
Encoding: 110 110 81
Width: 1842
GlyphClass: 2
Flags: W
LayerCount: 2
Fore
SplineSet
157 150 m 1,0,-1
 377 150 l 1,1,-1
 377 795 l 1,2,-1
 157 795 l 1,3,-1
 157 965 l 1,4,-1
 592 965 l 1,5,-1
 592 814 l 1,6,7
 623 852 623 852 666.5 885 c 128,-1,8
 710 918 710 918 764 942.5 c 128,-1,9
 818 967 818 967 881 981 c 128,-1,10
 944 995 944 995 1013 995 c 0,11,12
 1117 995 1117 995 1202 965.5 c 128,-1,13
 1287 936 1287 936 1347 874.5 c 128,-1,14
 1407 813 1407 813 1439.5 719.5 c 128,-1,15
 1472 626 1472 626 1472 498 c 2,16,-1
 1472 150 l 1,17,-1
 1692 150 l 1,18,-1
 1692 0 l 1,19,-1
 1087 0 l 1,20,-1
 1087 150 l 1,21,-1
 1257 150 l 1,22,-1
 1257 413 l 2,23,24
 1257 494 1257 494 1249.5 557.5 c 128,-1,25
 1242 621 1242 621 1228 657 c 0,26,27
 1210 703 1210 703 1182.5 735 c 128,-1,28
 1155 767 1155 767 1120.5 787 c 128,-1,29
 1086 807 1086 807 1045 816 c 128,-1,30
 1004 825 1004 825 958 825 c 0,31,32
 909 825 909 825 856.5 807 c 128,-1,33
 804 789 804 789 754.5 756.5 c 128,-1,34
 705 724 705 724 662.5 680 c 128,-1,35
 620 636 620 636 592 585 c 1,36,-1
 592 150 l 1,37,-1
 762 150 l 1,38,-1
 762 0 l 1,39,-1
 157 0 l 1,40,-1
 157 150 l 1,0,-1
1544 491 m 2,41,42
 1544 579 1544 579 1530.5 654.5 c 128,-1,43
 1517 730 1517 730 1490 790.5 c 128,-1,44
 1463 851 1463 851 1423.5 895 c 128,-1,45
 1384 939 1384 939 1332 965 c 1,46,47
 1400 948 1400 948 1448 907.5 c 128,-1,48
 1496 867 1496 867 1526 805 c 128,-1,49
 1556 743 1556 743 1570 662 c 128,-1,50
 1584 581 1584 581 1584 484 c 2,51,-1
 1584 210 l 1,52,-1
 1544 210 l 1,53,-1
 1544 491 l 2,41,42
664 560 m 1,54,55
 689 604 689 604 723.5 640 c 128,-1,56
 758 676 758 676 798.5 701.5 c 128,-1,57
 839 727 839 727 883.5 741 c 128,-1,58
 928 755 928 755 972 755 c 0,59,60
 1041 755 1041 755 1084 729 c 128,-1,61
 1127 703 1127 703 1147 663 c 1,62,63
 1116 686 1116 686 1074.5 702 c 128,-1,64
 1033 718 1033 718 970 718 c 0,65,66
 931 718 931 718 891 703.5 c 128,-1,67
 851 689 851 689 815 665 c 128,-1,68
 779 641 779 641 750 610 c 128,-1,69
 721 579 721 579 704 547 c 1,70,-1
 704 210 l 1,71,-1
 664 210 l 1,72,-1
 664 560 l 1,54,55
217 725 m 1,73,-1
 335 725 l 1,74,-1
 335 687 l 1,75,-1
 217 687 l 1,76,-1
 217 725 l 1,73,-1
1764 -70 m 1,77,-1
 1764 94 l 1,78,-1
 1804 94 l 1,79,-1
 1804 -108 l 1,80,-1
 1147 -108 l 1,81,-1
 1147 -70 l 1,82,-1
 1764 -70 l 1,77,-1
834 -70 m 1,83,-1
 834 94 l 1,84,-1
 874 94 l 1,85,-1
 874 -108 l 1,86,-1
 217 -108 l 1,87,-1
 217 -70 l 1,88,-1
 834 -70 l 1,83,-1
EndSplineSet
EndChar

StartChar: o
Encoding: 111 111 82
Width: 1609
GlyphClass: 2
Flags: W
LayerCount: 2
Fore
SplineSet
115 467 m 0,0,1
 115 576 115 576 162 672.5 c 128,-1,2
 209 769 209 769 293.5 840.5 c 128,-1,3
 378 912 378 912 496 953.5 c 128,-1,4
 614 995 614 995 755 995 c 0,5,6
 903 995 903 995 1019.5 955.5 c 128,-1,7
 1136 916 1136 916 1216.5 846 c 128,-1,8
 1297 776 1297 776 1339.5 680 c 128,-1,9
 1382 584 1382 584 1382 471 c 0,10,11
 1382 362 1382 362 1335.5 270 c 128,-1,12
 1289 178 1289 178 1203.5 111.5 c 128,-1,13
 1118 45 1118 45 998.5 7.5 c 128,-1,14
 879 -30 879 -30 732 -30 c 0,15,16
 593 -30 593 -30 479.5 11.5 c 128,-1,17
 366 53 366 53 285 122 c 128,-1,18
 204 191 204 191 159.5 280.5 c 128,-1,19
 115 370 115 370 115 467 c 0,0,1
272 46 m 1,20,21
 369 -24 369 -24 486.5 -62 c 128,-1,22
 604 -100 604 -100 752 -100 c 0,23,24
 890 -100 890 -100 1017 -62.5 c 128,-1,25
 1144 -25 1144 -25 1241 48 c 128,-1,26
 1338 121 1338 121 1396 227.5 c 128,-1,27
 1454 334 1454 334 1454 471 c 0,28,29
 1454 538 1454 538 1435.5 606.5 c 128,-1,30
 1417 675 1417 675 1383.5 738 c 128,-1,31
 1350 801 1350 801 1302 855.5 c 128,-1,32
 1254 910 1254 910 1195 948 c 1,33,34
 1262 918 1262 918 1317.5 869 c 128,-1,35
 1373 820 1373 820 1412 757.5 c 128,-1,36
 1451 695 1451 695 1472.5 622 c 128,-1,37
 1494 549 1494 549 1494 471 c 0,38,39
 1494 373 1494 373 1466 289.5 c 128,-1,40
 1438 206 1438 206 1388.5 138.5 c 128,-1,41
 1339 71 1339 71 1270.5 19 c 128,-1,42
 1202 -33 1202 -33 1120 -67.5 c 128,-1,43
 1038 -102 1038 -102 945.5 -120 c 128,-1,44
 853 -138 853 -138 757 -138 c 0,45,46
 677 -138 677 -138 604 -125.5 c 128,-1,47
 531 -113 531 -113 468.5 -89.5 c 128,-1,48
 406 -66 406 -66 356 -32 c 128,-1,49
 306 2 306 2 272 46 c 1,20,21
337 471 m 0,50,51
 337 394 337 394 366.5 330.5 c 128,-1,52
 396 267 396 267 450 221.5 c 128,-1,53
 504 176 504 176 579.5 151 c 128,-1,54
 655 126 655 126 747 126 c 0,55,56
 840 126 840 126 916 151.5 c 128,-1,57
 992 177 992 177 1047 222.5 c 128,-1,58
 1102 268 1102 268 1132 331.5 c 128,-1,59
 1162 395 1162 395 1162 471 c 0,60,61
 1162 546 1162 546 1132 612.5 c 128,-1,62
 1102 679 1102 679 1048 729.5 c 128,-1,63
 994 780 994 780 918.5 809.5 c 128,-1,64
 843 839 843 839 752 839 c 0,65,66
 657 839 657 839 580.5 810.5 c 128,-1,67
 504 782 504 782 450 732.5 c 128,-1,68
 396 683 396 683 366.5 616 c 128,-1,69
 337 549 337 549 337 471 c 0,50,51
407 467 m 0,70,71
 407 530 407 530 432 585.5 c 128,-1,72
 457 641 457 641 502.5 681.5 c 128,-1,73
 548 722 548 722 611.5 745.5 c 128,-1,74
 675 769 675 769 752 769 c 0,75,76
 801 769 801 769 847 758.5 c 128,-1,77
 893 748 893 748 932 728 c 128,-1,78
 971 708 971 708 1001 679.5 c 128,-1,79
 1031 651 1031 651 1049 615 c 1,80,81
 983 675 983 675 911.5 703 c 128,-1,82
 840 731 840 731 750 731 c 0,83,84
 685 731 685 731 630 710 c 128,-1,85
 575 689 575 689 534 653 c 128,-1,86
 493 617 493 617 470 569 c 128,-1,87
 447 521 447 521 447 467 c 0,88,89
 447 422 447 422 458 383 c 128,-1,90
 469 344 469 344 495.5 310.5 c 128,-1,91
 522 277 522 277 566 250 c 128,-1,92
 610 223 610 223 676 202 c 1,93,94
 616 206 616 206 566.5 227.5 c 128,-1,95
 517 249 517 249 481.5 284 c 128,-1,96
 446 319 446 319 426.5 366 c 128,-1,97
 407 413 407 413 407 467 c 0,70,71
EndSplineSet
EndChar

StartChar: p
Encoding: 112 112 83
Width: 1751
GlyphClass: 2
Flags: W
LayerCount: 2
Fore
SplineSet
335 -322 m 1,0,-1
 335 795 l 1,1,-1
 115 795 l 1,2,-1
 115 965 l 1,3,-1
 550 965 l 1,4,-1
 550 832 l 1,5,6
 625 908 625 908 732 951.5 c 128,-1,7
 839 995 839 995 965 995 c 0,8,9
 1103 995 1103 995 1210 953.5 c 128,-1,10
 1317 912 1317 912 1390 843.5 c 128,-1,11
 1463 775 1463 775 1501 687 c 128,-1,12
 1539 599 1539 599 1539 505 c 0,13,14
 1539 383 1539 383 1497.5 287.5 c 128,-1,15
 1456 192 1456 192 1381 126 c 128,-1,16
 1306 60 1306 60 1202 25 c 128,-1,17
 1098 -10 1098 -10 972 -10 c 0,18,19
 842 -10 842 -10 733.5 29.5 c 128,-1,20
 625 69 625 69 550 144 c 1,21,-1
 550 -322 l 1,22,-1
 820 -322 l 1,23,-1
 820 -472 l 1,24,-1
 165 -472 l 1,25,-1
 165 -322 l 1,26,-1
 335 -322 l 1,0,-1
617 2 m 1,27,28
 689 -38 689 -38 783.5 -59 c 128,-1,29
 878 -80 878 -80 974 -80 c 0,30,31
 1106 -80 1106 -80 1222 -42.5 c 128,-1,32
 1338 -5 1338 -5 1424.5 68.5 c 128,-1,33
 1511 142 1511 142 1561 251.5 c 128,-1,34
 1611 361 1611 361 1611 505 c 0,35,36
 1611 567 1611 567 1593 632.5 c 128,-1,37
 1575 698 1575 698 1542 759.5 c 128,-1,38
 1509 821 1509 821 1461 875 c 128,-1,39
 1413 929 1413 929 1353 968 c 1,40,41
 1428 934 1428 934 1484.5 880.5 c 128,-1,42
 1541 827 1541 827 1578.5 764 c 128,-1,43
 1616 701 1616 701 1635 633.5 c 128,-1,44
 1654 566 1654 566 1654 505 c 0,45,46
 1654 364 1654 364 1607 249 c 128,-1,47
 1560 134 1560 134 1471.5 52.5 c 128,-1,48
 1383 -29 1383 -29 1256.5 -73.5 c 128,-1,49
 1130 -118 1130 -118 971 -118 c 0,50,51
 931 -118 931 -118 889 -113.5 c 128,-1,52
 847 -109 847 -109 806 -101 c 128,-1,53
 765 -93 765 -93 726.5 -82 c 128,-1,54
 688 -71 688 -71 657 -57 c 1,55,-1
 657 -272 l 1,56,-1
 617 -272 l 1,57,-1
 617 2 l 1,27,28
550 485 m 0,58,59
 550 405 550 405 583.5 342 c 128,-1,60
 617 279 617 279 675 235 c 128,-1,61
 733 191 733 191 810.5 167.5 c 128,-1,62
 888 144 888 144 977 144 c 0,63,64
 1056 144 1056 144 1119.5 169 c 128,-1,65
 1183 194 1183 194 1228 240 c 128,-1,66
 1273 286 1273 286 1297.5 351.5 c 128,-1,67
 1322 417 1322 417 1322 497 c 0,68,69
 1322 573 1322 573 1293.5 636.5 c 128,-1,70
 1265 700 1265 700 1215 745 c 128,-1,71
 1165 790 1165 790 1097.5 815 c 128,-1,72
 1030 840 1030 840 952 840 c 0,73,74
 867 840 867 840 793.5 815 c 128,-1,75
 720 790 720 790 666 743.5 c 128,-1,76
 612 697 612 697 581 631.5 c 128,-1,77
 550 566 550 566 550 485 c 0,58,59
622 486 m 0,78,79
 622 543 622 543 645.5 595 c 128,-1,80
 669 647 669 647 712 686 c 128,-1,81
 755 725 755 725 815 748 c 128,-1,82
 875 771 875 771 949 771 c 0,83,84
 1028 771 1028 771 1089 743.5 c 128,-1,85
 1150 716 1150 716 1182 671 c 1,86,87
 1122 709 1122 709 1064.5 720.5 c 128,-1,88
 1007 732 1007 732 949 732 c 0,89,90
 884 732 884 732 831.5 711.5 c 128,-1,91
 779 691 779 691 741.5 657.5 c 128,-1,92
 704 624 704 624 684 580 c 128,-1,93
 664 536 664 536 664 489 c 0,94,95
 664 398 664 398 710 332 c 128,-1,96
 756 266 756 266 859 218 c 1,97,98
 806 229 806 229 762.5 252.5 c 128,-1,99
 719 276 719 276 687.5 310.5 c 128,-1,100
 656 345 656 345 639 389 c 128,-1,101
 622 433 622 433 622 486 c 0,78,79
175 725 m 1,102,-1
 293 725 l 1,103,-1
 293 687 l 1,104,-1
 175 687 l 1,105,-1
 175 725 l 1,102,-1
892 -542 m 1,106,-1
 892 -378 l 1,107,-1
 932 -378 l 1,108,-1
 932 -580 l 1,109,-1
 225 -580 l 1,110,-1
 225 -542 l 1,111,-1
 892 -542 l 1,106,-1
EndSplineSet
EndChar

StartChar: q
Encoding: 113 113 84
Width: 1740
GlyphClass: 2
Flags: W
LayerCount: 2
Fore
SplineSet
115 505 m 0,0,1
 115 599 115 599 154 687 c 128,-1,2
 193 775 193 775 268 843.5 c 128,-1,3
 343 912 343 912 452.5 953.5 c 128,-1,4
 562 995 562 995 703 995 c 0,5,6
 838 995 838 995 944.5 950 c 128,-1,7
 1051 905 1051 905 1123 830 c 1,8,-1
 1123 965 l 1,9,-1
 1558 965 l 1,10,-1
 1558 795 l 1,11,-1
 1338 795 l 1,12,-1
 1338 -322 l 1,13,-1
 1508 -322 l 1,14,-1
 1508 -472 l 1,15,-1
 825 -472 l 1,16,-1
 825 -322 l 1,17,-1
 1123 -322 l 1,18,-1
 1123 147 l 1,19,20
 1045 71 1045 71 935 30.5 c 128,-1,21
 825 -10 825 -10 696 -10 c 0,22,23
 568 -10 568 -10 461.5 25 c 128,-1,24
 355 60 355 60 278 126 c 128,-1,25
 201 192 201 192 158 287.5 c 128,-1,26
 115 383 115 383 115 505 c 0,0,1
1410 725 m 1,27,-1
 1630 725 l 1,28,-1
 1630 909 l 1,29,-1
 1670 909 l 1,30,-1
 1670 687 l 1,31,-1
 1450 687 l 1,32,-1
 1450 -272 l 1,33,-1
 1410 -272 l 1,34,-1
 1410 725 l 1,27,-1
332 497 m 0,35,36
 332 417 332 417 357.5 351.5 c 128,-1,37
 383 286 383 286 430.5 240 c 128,-1,38
 478 194 478 194 544 169 c 128,-1,39
 610 144 610 144 691 144 c 0,40,41
 769 144 769 144 846.5 163 c 128,-1,42
 924 182 924 182 985.5 223 c 128,-1,43
 1047 264 1047 264 1085 328.5 c 128,-1,44
 1123 393 1123 393 1123 485 c 0,45,46
 1123 566 1123 566 1090.5 631.5 c 128,-1,47
 1058 697 1058 697 1002 743.5 c 128,-1,48
 946 790 946 790 872 815 c 128,-1,49
 798 840 798 840 716 840 c 0,50,51
 636 840 636 840 566 815 c 128,-1,52
 496 790 496 790 444 745 c 128,-1,53
 392 700 392 700 362 636.5 c 128,-1,54
 332 573 332 573 332 497 c 0,35,36
555 242 m 1,55,56
 402 306 402 306 402 496 c 0,57,58
 402 548 402 548 423 597.5 c 128,-1,59
 444 647 444 647 484 685.5 c 128,-1,60
 524 724 524 724 583 747.5 c 128,-1,61
 642 771 642 771 717 771 c 0,62,63
 814 771 814 771 890.5 735.5 c 128,-1,64
 967 700 967 700 1012 631 c 1,65,66
 943 685 943 685 871 709 c 128,-1,67
 799 733 799 733 715 733 c 0,68,69
 653 733 653 733 603 714 c 128,-1,70
 553 695 553 695 517 663 c 128,-1,71
 481 631 481 631 461.5 587.5 c 128,-1,72
 442 544 442 544 442 496 c 0,73,74
 442 414 442 414 467 353.5 c 128,-1,75
 492 293 492 293 555 242 c 1,55,56
242 62 m 1,76,77
 345 -16 345 -16 456 -48 c 128,-1,78
 567 -80 567 -80 696 -80 c 0,79,80
 744 -80 744 -80 792 -74 c 128,-1,81
 840 -68 840 -68 886 -57 c 128,-1,82
 932 -46 932 -46 974.5 -30 c 128,-1,83
 1017 -14 1017 -14 1053 6 c 1,84,-1
 1053 -39 l 1,85,86
 976 -75 976 -75 883 -96.5 c 128,-1,87
 790 -118 790 -118 697 -118 c 0,88,89
 529 -118 529 -118 417.5 -70 c 128,-1,90
 306 -22 306 -22 242 62 c 1,76,77
1580 -542 m 1,91,-1
 1580 -378 l 1,92,-1
 1620 -378 l 1,93,-1
 1620 -580 l 1,94,-1
 885 -580 l 1,95,-1
 885 -542 l 1,96,-1
 1580 -542 l 1,91,-1
EndSplineSet
EndChar

StartChar: r
Encoding: 114 114 85
Width: 1312
GlyphClass: 2
Flags: W
LayerCount: 2
Fore
SplineSet
145 150 m 1,0,-1
 365 150 l 1,1,-1
 365 795 l 1,2,-1
 145 795 l 1,3,-1
 145 965 l 1,4,-1
 580 965 l 1,5,-1
 580 798 l 1,6,7
 611 838 611 838 654.5 874 c 128,-1,8
 698 910 698 910 753 937 c 128,-1,9
 808 964 808 964 873 979.5 c 128,-1,10
 938 995 938 995 1012 995 c 0,11,12
 1034 995 1034 995 1067 993.5 c 128,-1,13
 1100 992 1100 992 1130 987 c 1,14,-1
 1130 791 l 1,15,16
 1095 799 1095 799 1061 802 c 128,-1,17
 1027 805 1027 805 995 805 c 0,18,19
 915 805 915 805 843.5 779.5 c 128,-1,20
 772 754 772 754 716 705.5 c 128,-1,21
 660 657 660 657 624 587 c 128,-1,22
 588 517 588 517 580 427 c 1,23,-1
 580 150 l 1,24,-1
 940 150 l 1,25,-1
 940 0 l 1,26,-1
 145 0 l 1,27,-1
 145 150 l 1,0,-1
650 337 m 2,28,29
 650 431 650 431 674 505 c 128,-1,30
 698 579 698 579 742.5 630 c 128,-1,31
 787 681 787 681 851 708 c 128,-1,32
 915 735 915 735 995 735 c 0,33,34
 1012 735 1012 735 1038 732.5 c 128,-1,35
 1064 730 1064 730 1092.5 725 c 128,-1,36
 1121 720 1121 720 1150 712.5 c 128,-1,37
 1179 705 1179 705 1202 695 c 1,38,-1
 1202 931 l 1,39,-1
 1242 931 l 1,40,-1
 1242 645 l 1,41,42
 1214 657 1214 657 1181.5 666.5 c 128,-1,43
 1149 676 1149 676 1115.5 683 c 128,-1,44
 1082 690 1082 690 1051 693.5 c 128,-1,45
 1020 697 1020 697 995 697 c 0,46,47
 922 697 922 697 865.5 673 c 128,-1,48
 809 649 809 649 770 604 c 128,-1,49
 731 559 731 559 710.5 494 c 128,-1,50
 690 429 690 429 690 347 c 2,51,-1
 690 210 l 1,52,-1
 650 210 l 1,53,-1
 650 337 l 2,28,29
205 725 m 1,54,-1
 323 725 l 1,55,-1
 323 687 l 1,56,-1
 205 687 l 1,57,-1
 205 725 l 1,54,-1
1012 -70 m 1,58,-1
 1012 94 l 1,59,-1
 1052 94 l 1,60,-1
 1052 -108 l 1,61,-1
 205 -108 l 1,62,-1
 205 -70 l 1,63,-1
 1012 -70 l 1,58,-1
EndSplineSet
EndChar

StartChar: s
Encoding: 115 115 86
Width: 1550
GlyphClass: 2
Flags: W
LayerCount: 2
Fore
SplineSet
158 275 m 1,0,-1
 364 275 l 1,1,2
 391 234 391 234 441 203 c 128,-1,3
 491 172 491 172 555.5 152 c 128,-1,4
 620 132 620 132 697 122 c 128,-1,5
 774 112 774 112 855 112 c 0,6,7
 922 112 922 112 969 122 c 128,-1,8
 1016 132 1016 132 1045 150 c 128,-1,9
 1074 168 1074 168 1087 192 c 128,-1,10
 1100 216 1100 216 1100 245 c 0,11,12
 1100 306 1100 306 1002.5 349.5 c 128,-1,13
 905 393 905 393 694 416 c 0,14,15
 554 431 554 431 460 457.5 c 128,-1,16
 366 484 366 484 308.5 522 c 128,-1,17
 251 560 251 560 226.5 609 c 128,-1,18
 202 658 202 658 202 717 c 0,19,20
 202 768 202 768 234 818 c 128,-1,21
 266 868 266 868 331.5 907.5 c 128,-1,22
 397 947 397 947 495.5 971 c 128,-1,23
 594 995 594 995 727 995 c 0,24,25
 770 995 770 995 815 989 c 128,-1,26
 860 983 860 983 903 971.5 c 128,-1,27
 946 960 946 960 985 944 c 128,-1,28
 1024 928 1024 928 1055 908 c 1,29,-1
 1055 964 l 1,30,-1
 1270 964 l 1,31,-1
 1270 694 l 1,32,-1
 1055 694 l 1,33,34
 1044 725 1044 725 1009 753 c 128,-1,35
 974 781 974 781 926 802 c 128,-1,36
 878 823 878 823 824 835.5 c 128,-1,37
 770 848 770 848 722 848 c 0,38,39
 659 848 659 848 603 839 c 128,-1,40
 547 830 547 830 506 813.5 c 128,-1,41
 465 797 465 797 441 774 c 128,-1,42
 417 751 417 751 417 723 c 0,43,44
 417 697 417 697 435.5 676 c 128,-1,45
 454 655 454 655 497.5 637 c 128,-1,46
 541 619 541 619 613.5 603.5 c 128,-1,47
 686 588 686 588 794 575 c 0,48,49
 938 557 938 557 1037 529 c 128,-1,50
 1136 501 1136 501 1198 460.5 c 128,-1,51
 1260 420 1260 420 1287.5 366 c 128,-1,52
 1315 312 1315 312 1315 242 c 0,53,54
 1315 191 1315 191 1284 142.5 c 128,-1,55
 1253 94 1253 94 1193.5 55.5 c 128,-1,56
 1134 17 1134 17 1047.5 -6.5 c 128,-1,57
 961 -30 961 -30 849 -30 c 0,58,59
 777 -30 777 -30 714 -24.5 c 128,-1,60
 651 -19 651 -19 593 -6 c 128,-1,61
 535 7 535 7 481 27 c 128,-1,62
 427 47 427 47 373 76 c 1,63,-1
 373 0 l 1,64,-1
 158 0 l 1,65,-1
 158 275 l 1,0,-1
1104 624 m 1,66,-1
 1342 624 l 1,67,-1
 1342 922 l 1,68,-1
 1382 922 l 1,69,-1
 1382 586 l 1,70,-1
 1104 586 l 1,71,-1
 1104 624 l 1,66,-1
490 723 m 1,72,73
 493 736 493 736 514 747 c 128,-1,74
 535 758 535 758 567.5 766.5 c 128,-1,75
 600 775 600 775 639.5 780 c 128,-1,76
 679 785 679 785 719 785 c 0,77,78
 753 785 753 785 789.5 780 c 128,-1,79
 826 775 826 775 858.5 766 c 128,-1,80
 891 757 891 757 917.5 743.5 c 128,-1,81
 944 730 944 730 959 713 c 1,82,83
 936 723 936 723 904 729.5 c 128,-1,84
 872 736 872 736 838.5 740 c 128,-1,85
 805 744 805 744 773 746 c 128,-1,86
 741 748 741 748 719 748 c 0,87,88
 638 748 638 748 578.5 740 c 128,-1,89
 519 732 519 732 490 723 c 1,72,73
216 525 m 1,90,91
 244 489 244 489 283 461 c 128,-1,92
 322 433 322 433 377 411 c 128,-1,93
 432 389 432 389 505 373.5 c 128,-1,94
 578 358 578 358 673 347 c 0,95,96
 760 337 760 337 824 325.5 c 128,-1,97
 888 314 888 314 931 300 c 128,-1,98
 974 286 974 286 998 268.5 c 128,-1,99
 1022 251 1022 251 1029 229 c 1,100,101
 1008 243 1008 243 981 253.5 c 128,-1,102
 954 264 954 264 912 273 c 128,-1,103
 870 282 870 282 808.5 291 c 128,-1,104
 747 300 747 300 656 311 c 0,105,106
 468 333 468 333 359 382.5 c 128,-1,107
 250 432 250 432 216 525 c 1,90,91
445 -70 m 1,108,-1
 445 -28 l 1,109,110
 473 -41 473 -41 516 -53.5 c 128,-1,111
 559 -66 559 -66 612.5 -76.5 c 128,-1,112
 666 -87 666 -87 726 -93.5 c 128,-1,113
 786 -100 786 -100 848 -100 c 0,114,115
 972 -100 972 -100 1072 -72.5 c 128,-1,116
 1172 -45 1172 -45 1242 1.5 c 128,-1,117
 1312 48 1312 48 1349.5 109.5 c 128,-1,118
 1387 171 1387 171 1387 239 c 0,119,120
 1387 266 1387 266 1384 289 c 128,-1,121
 1381 312 1381 312 1373.5 333 c 128,-1,122
 1366 354 1366 354 1353.5 375 c 128,-1,123
 1341 396 1341 396 1322 419 c 1,124,125
 1427 357 1427 357 1427 239 c 0,126,127
 1427 159 1427 159 1386 90 c 128,-1,128
 1345 21 1345 21 1269.5 -29.5 c 128,-1,129
 1194 -80 1194 -80 1087 -109 c 128,-1,130
 980 -138 980 -138 847 -138 c 0,131,132
 798 -138 798 -138 748 -133.5 c 128,-1,133
 698 -129 698 -129 651 -121 c 128,-1,134
 604 -113 604 -113 562 -102 c 128,-1,135
 520 -91 520 -91 487 -77 c 1,136,-1
 487 -110 l 1,137,-1
 207 -110 l 1,138,-1
 207 -70 l 1,139,-1
 445 -70 l 1,108,-1
EndSplineSet
EndChar

StartChar: t
Encoding: 116 116 87
Width: 1222
GlyphClass: 2
Flags: W
LayerCount: 2
Fore
SplineSet
299 795 m 1,0,-1
 79 795 l 1,1,-1
 79 965 l 1,2,-1
 299 965 l 1,3,-1
 299 1167 l 1,4,-1
 514 1257 l 1,5,-1
 514 965 l 1,6,-1
 1011 965 l 1,7,-1
 1011 795 l 1,8,-1
 514 795 l 1,9,-1
 514 318 l 2,10,11
 514 243 514 243 561 206.5 c 128,-1,12
 608 170 608 170 689 170 c 2,13,-1
 971 170 l 1,14,-1
 971 0 l 1,15,-1
 689 0 l 2,16,17
 608 0 608 0 537 17.5 c 128,-1,18
 466 35 466 35 413 76.5 c 128,-1,19
 360 118 360 118 329.5 186.5 c 128,-1,20
 299 255 299 255 299 358 c 2,21,-1
 299 795 l 1,0,-1
586 1202 m 1,22,-1
 626 1220 l 1,23,-1
 626 1025 l 1,24,-1
 586 1025 l 1,25,-1
 586 1202 l 1,22,-1
584 736 m 1,26,-1
 1083 736 l 1,27,-1
 1083 920 l 1,28,-1
 1123 920 l 1,29,-1
 1123 698 l 1,30,-1
 624 698 l 1,31,-1
 624 237 l 1,32,33
 590 246 590 246 584 277 c 1,34,-1
 584 736 l 1,26,-1
139 725 m 1,35,-1
 259 725 l 1,36,-1
 259 687 l 1,37,-1
 139 687 l 1,38,-1
 139 725 l 1,35,-1
293 86 m 1,39,40
 325 41 325 41 364.5 11 c 128,-1,41
 404 -19 404 -19 453 -37 c 128,-1,42
 502 -55 502 -55 560 -62.5 c 128,-1,43
 618 -70 618 -70 687 -70 c 2,44,-1
 1043 -70 l 1,45,-1
 1043 125 l 1,46,-1
 1083 125 l 1,47,-1
 1083 -108 l 1,48,-1
 682 -108 l 2,49,50
 605 -108 605 -108 542 -98 c 128,-1,51
 479 -88 479 -88 430.5 -65.5 c 128,-1,52
 382 -43 382 -43 347.5 -5.5 c 128,-1,53
 313 32 313 32 293 86 c 1,39,40
EndSplineSet
EndChar

StartChar: u
Encoding: 117 117 88
Width: 1697
GlyphClass: 2
Flags: W
LayerCount: 2
Fore
SplineSet
249 224 m 0,0,1
 229 275 229 275 219.5 335 c 128,-1,2
 210 395 210 395 210 467 c 2,3,-1
 210 795 l 1,4,-1
 40 795 l 1,5,-1
 40 965 l 1,6,-1
 425 965 l 1,7,-1
 425 552 l 2,8,9
 425 471 425 471 432.5 407.5 c 128,-1,10
 440 344 440 344 454 308 c 0,11,12
 472 262 472 262 501 230 c 128,-1,13
 530 198 530 198 566.5 178 c 128,-1,14
 603 158 603 158 645.5 149 c 128,-1,15
 688 140 688 140 734 140 c 0,16,17
 783 140 783 140 835.5 158 c 128,-1,18
 888 176 888 176 937 208 c 128,-1,19
 986 240 986 240 1028.5 284 c 128,-1,20
 1071 328 1071 328 1100 379 c 1,21,-1
 1100 795 l 1,22,-1
 880 795 l 1,23,-1
 880 965 l 1,24,-1
 1315 965 l 1,25,-1
 1315 150 l 1,26,-1
 1485 150 l 1,27,-1
 1485 0 l 1,28,-1
 1100 0 l 1,29,-1
 1100 152 l 1,30,31
 1068 113 1068 113 1022.5 80 c 128,-1,32
 977 47 977 47 921.5 22.5 c 128,-1,33
 866 -2 866 -2 802 -16 c 128,-1,34
 738 -30 738 -30 669 -30 c 0,35,36
 520 -30 520 -30 410.5 32.5 c 128,-1,37
 301 95 301 95 249 224 c 0,0,1
1385 914 m 1,38,-1
 1425 914 l 1,39,-1
 1425 210 l 1,40,-1
 1385 210 l 1,41,-1
 1385 914 l 1,38,-1
497 914 m 1,42,-1
 537 914 l 1,43,-1
 537 503 l 2,44,45
 537 425 537 425 552 373 c 128,-1,46
 567 321 567 321 592 288 c 128,-1,47
 617 255 617 255 649 237 c 128,-1,48
 681 219 681 219 715 209 c 1,49,50
 610 210 610 210 553.5 278.5 c 128,-1,51
 497 347 497 347 497 492 c 2,52,-1
 497 914 l 1,42,-1
940 725 m 1,53,-1
 1058 725 l 1,54,-1
 1058 687 l 1,55,-1
 940 687 l 1,56,-1
 940 725 l 1,53,-1
100 725 m 1,57,-1
 168 725 l 1,58,-1
 168 687 l 1,59,-1
 100 687 l 1,60,-1
 100 725 l 1,57,-1
1557 -70 m 1,61,-1
 1557 94 l 1,62,-1
 1597 94 l 1,63,-1
 1597 -108 l 1,64,-1
 1160 -108 l 1,65,-1
 1160 -70 l 1,66,-1
 1557 -70 l 1,61,-1
260 67 m 1,67,68
 338 -17 338 -17 436 -58.5 c 128,-1,69
 534 -100 534 -100 670 -100 c 0,70,71
 791 -100 791 -100 886.5 -68.5 c 128,-1,72
 982 -37 982 -37 1060 17 c 1,73,-1
 1060 -29 l 1,74,75
 972 -86 972 -86 877 -112 c 128,-1,76
 782 -138 782 -138 671 -138 c 0,77,78
 520 -138 520 -138 414 -85.5 c 128,-1,79
 308 -33 308 -33 260 67 c 1,67,68
EndSplineSet
EndChar

StartChar: v
Encoding: 118 118 89
Width: 1828
GlyphClass: 2
Flags: W
LayerCount: 2
Fore
SplineSet
256 815 m 1,0,-1
 40 815 l 1,1,-1
 40 965 l 1,2,-1
 726 965 l 1,3,-1
 726 815 l 1,4,-1
 511 815 l 1,5,-1
 892 164 l 1,6,-1
 1259 815 l 1,7,-1
 1030 815 l 1,8,-1
 1030 965 l 1,9,-1
 1696 965 l 1,10,-1
 1696 815 l 1,11,-1
 1490 815 l 1,12,-1
 1007 0 l 1,13,-1
 747 0 l 1,14,-1
 256 815 l 1,0,-1
1055 -70 m 1,15,-1
 1538 745 l 1,16,-1
 1768 745 l 1,17,-1
 1768 909 l 1,18,-1
 1808 909 l 1,19,-1
 1808 707 l 1,20,-1
 1564 707 l 1,21,-1
 1081 -108 l 1,22,-1
 832 -108 l 1,23,-1
 817 -70 l 1,24,-1
 1055 -70 l 1,15,-1
647 745 m 1,25,-1
 817 745 l 1,26,-1
 798 909 l 1,27,-1
 838 909 l 1,28,-1
 838 707 l 1,29,-1
 717 707 l 1,30,-1
 930 324 l 1,31,-1
 907 286 l 1,32,-1
 647 745 l 1,25,-1
1079 745 m 1,33,-1
 1169 745 l 1,34,-1
 1146 707 l 1,35,-1
 1079 707 l 1,36,-1
 1079 745 l 1,33,-1
100 745 m 1,37,-1
 245 745 l 1,38,-1
 268 707 l 1,39,-1
 100 707 l 1,40,-1
 100 745 l 1,37,-1
EndSplineSet
EndChar

StartChar: w
Encoding: 119 119 90
Width: 2618
GlyphClass: 2
Flags: W
LayerCount: 2
Fore
SplineSet
252 815 m 1,0,-1
 40 815 l 1,1,-1
 40 965 l 1,2,-1
 706 965 l 1,3,-1
 706 815 l 1,4,-1
 500 815 l 1,5,-1
 806 187 l 1,6,-1
 1158 815 l 1,7,-1
 955 815 l 1,8,-1
 955 965 l 1,9,-1
 1621 965 l 1,10,-1
 1621 815 l 1,11,-1
 1423 815 l 1,12,-1
 1760 179 l 1,13,-1
 2057 815 l 1,14,-1
 1850 815 l 1,15,-1
 1850 965 l 1,16,-1
 2486 965 l 1,17,-1
 2486 815 l 1,18,-1
 2274 815 l 1,19,-1
 1869 0 l 1,20,-1
 1627 0 l 1,21,-1
 1284 651 l 1,22,-1
 917 0 l 1,23,-1
 677 0 l 1,24,-1
 252 815 l 1,0,-1
1920 -70 m 1,25,-1
 2326 745 l 1,26,-1
 2558 745 l 1,27,-1
 2558 909 l 1,28,-1
 2598 909 l 1,29,-1
 2598 707 l 1,30,-1
 2352 707 l 1,31,-1
 1947 -108 l 1,32,-1
 1712 -108 l 1,33,-1
 1697 -70 l 1,34,-1
 1920 -70 l 1,25,-1
1693 745 m 1,35,-1
 1693 909 l 1,36,-1
 1733 909 l 1,37,-1
 1733 707 l 1,38,-1
 1617 707 l 1,39,-1
 1793 371 l 1,40,-1
 1772 327 l 1,41,-1
 1551 745 l 1,42,-1
 1693 745 l 1,35,-1
621 745 m 1,43,-1
 778 745 l 1,44,-1
 778 909 l 1,45,-1
 818 909 l 1,46,-1
 818 707 l 1,47,-1
 685 707 l 1,48,-1
 848 372 l 1,49,-1
 824 331 l 1,50,-1
 621 745 l 1,43,-1
1899 745 m 1,51,-1
 1983 745 l 1,52,-1
 1965 707 l 1,53,-1
 1899 707 l 1,54,-1
 1899 745 l 1,51,-1
1004 745 m 1,55,-1
 1077 745 l 1,56,-1
 1056 707 l 1,57,-1
 1004 707 l 1,58,-1
 1004 745 l 1,55,-1
99 745 m 1,59,-1
 247 745 l 1,60,-1
 267 707 l 1,61,-1
 99 707 l 1,62,-1
 99 745 l 1,59,-1
966 -70 m 1,63,-1
 1303 527 l 1,64,-1
 1326 485 l 1,65,-1
 991 -108 l 1,66,-1
 752 -108 l 1,67,-1
 737 -70 l 1,68,-1
 966 -70 l 1,63,-1
EndSplineSet
EndChar

StartChar: x
Encoding: 120 120 91
Width: 1742
GlyphClass: 2
Flags: W
LayerCount: 2
Fore
SplineSet
40 150 m 1,0,-1
 222 150 l 1,1,-1
 661 484 l 1,2,-1
 288 815 l 1,3,-1
 59 815 l 1,4,-1
 59 965 l 1,5,-1
 711 965 l 1,6,-1
 711 815 l 1,7,-1
 573 815 l 1,8,-1
 827 585 l 1,9,-1
 1116 815 l 1,10,-1
 932 815 l 1,11,-1
 932 965 l 1,12,-1
 1530 965 l 1,13,-1
 1530 815 l 1,14,-1
 1382 815 l 1,15,-1
 936 477 l 1,16,-1
 1304 150 l 1,17,-1
 1540 150 l 1,18,-1
 1540 0 l 1,19,-1
 873 0 l 1,20,-1
 873 150 l 1,21,-1
 1020 150 l 1,22,-1
 769 378 l 1,23,-1
 492 150 l 1,24,-1
 676 150 l 1,25,-1
 676 0 l 1,26,-1
 40 0 l 1,27,-1
 40 150 l 1,0,-1
1421 745 m 1,28,-1
 1602 745 l 1,29,-1
 1602 909 l 1,30,-1
 1642 909 l 1,31,-1
 1642 707 l 1,32,-1
 1434 707 l 1,33,-1
 1118 471 l 1,34,-1
 1414 210 l 1,35,-1
 1358 210 l 1,36,-1
 1058 473 l 1,37,-1
 1421 745 l 1,28,-1
783 747 m 1,38,-1
 783 909 l 1,39,-1
 823 909 l 1,40,-1
 823 744 l 1,41,-1
 888 685 l 1,42,-1
 860 661 l 1,43,-1
 765 747 l 1,44,-1
 783 747 l 1,38,-1
124 745 m 1,45,-1
 306 745 l 1,46,-1
 348 707 l 1,47,-1
 124 707 l 1,48,-1
 124 745 l 1,45,-1
797 300 m 1,49,-1
 826 274 l 1,50,-1
 748 210 l 1,51,-1
 688 210 l 1,52,-1
 797 300 l 1,49,-1
1612 -70 m 1,53,-1
 1612 94 l 1,54,-1
 1652 94 l 1,55,-1
 1652 -108 l 1,56,-1
 933 -108 l 1,57,-1
 933 -70 l 1,58,-1
 1612 -70 l 1,53,-1
748 -70 m 1,59,-1
 748 94 l 1,60,-1
 788 94 l 1,61,-1
 788 -108 l 1,62,-1
 100 -108 l 1,63,-1
 100 -70 l 1,64,-1
 748 -70 l 1,59,-1
EndSplineSet
EndChar

StartChar: y
Encoding: 121 121 92
Width: 1825
GlyphClass: 2
Flags: W
LayerCount: 2
Fore
SplineSet
659 -322 m 1,0,-1
 812 -37 l 1,1,-1
 254 815 l 1,2,-1
 40 815 l 1,3,-1
 40 965 l 1,4,-1
 723 965 l 1,5,-1
 723 815 l 1,6,-1
 511 815 l 1,7,-1
 924 171 l 1,8,-1
 1270 815 l 1,9,-1
 1027 815 l 1,10,-1
 1027 965 l 1,11,-1
 1693 965 l 1,12,-1
 1693 815 l 1,13,-1
 1490 815 l 1,14,-1
 788 -472 l 1,15,-1
 405 -472 l 1,16,-1
 405 -322 l 1,17,-1
 659 -322 l 1,0,-1
840 -542 m 1,18,-1
 1543 745 l 1,19,-1
 1765 745 l 1,20,-1
 1765 909 l 1,21,-1
 1805 909 l 1,22,-1
 1805 707 l 1,23,-1
 1566 707 l 1,24,-1
 865 -580 l 1,25,-1
 465 -580 l 1,26,-1
 465 -542 l 1,27,-1
 840 -542 l 1,18,-1
652 745 m 1,28,-1
 795 745 l 1,29,-1
 795 909 l 1,30,-1
 835 909 l 1,31,-1
 835 707 l 1,32,-1
 723 707 l 1,33,-1
 954 347 l 1,34,-1
 932 307 l 1,35,-1
 652 745 l 1,28,-1
1076 745 m 1,36,-1
 1180 745 l 1,37,-1
 1160 707 l 1,38,-1
 1076 707 l 1,39,-1
 1076 745 l 1,36,-1
100 745 m 1,40,-1
 245 745 l 1,41,-1
 270 707 l 1,42,-1
 100 707 l 1,43,-1
 100 745 l 1,40,-1
EndSplineSet
EndChar

StartChar: z
Encoding: 122 122 93
Width: 1526
GlyphClass: 2
Flags: W
LayerCount: 2
Fore
SplineSet
140 145 m 1,0,-1
 982 816 l 1,1,-1
 371 816 l 1,2,-1
 371 661 l 1,3,-1
 157 661 l 1,4,-1
 157 965 l 1,5,-1
 1303 965 l 1,6,-1
 1303 821 l 1,7,-1
 466 150 l 1,8,-1
 1104 150 l 1,9,-1
 1104 303 l 1,10,-1
 1319 303 l 1,11,-1
 1319 0 l 1,12,-1
 140 0 l 1,13,-1
 140 145 l 1,0,-1
1375 777 m 1,14,-1
 1375 910 l 1,15,-1
 1415 910 l 1,16,-1
 1415 758 l 1,17,-1
 730 210 l 1,18,-1
 668 210 l 1,19,-1
 1375 777 l 1,14,-1
217 592 m 1,20,-1
 443 592 l 1,21,-1
 443 746 l 1,22,-1
 816 746 l 1,23,-1
 769 708 l 1,24,-1
 483 708 l 1,25,-1
 483 554 l 1,26,-1
 217 554 l 1,27,-1
 217 592 l 1,20,-1
1391 -70 m 1,28,-1
 1391 247 l 1,29,-1
 1431 247 l 1,30,-1
 1431 -108 l 1,31,-1
 200 -108 l 1,32,-1
 200 -70 l 1,33,-1
 1391 -70 l 1,28,-1
EndSplineSet
EndChar

StartChar: braceleft
Encoding: 123 123 94
Width: 984
GlyphClass: 2
Flags: W
LayerCount: 2
Fore
SplineSet
351 42 m 0,0,1
 351 119 351 119 340.5 171.5 c 128,-1,2
 330 224 330 224 307 260 c 128,-1,3
 284 296 284 296 247.5 319 c 128,-1,4
 211 342 211 342 160 359 c 1,5,-1
 160 520 l 1,6,7
 211 536 211 536 247 557.5 c 128,-1,8
 283 579 283 579 306 615 c 128,-1,9
 329 651 329 651 340 704.5 c 128,-1,10
 351 758 351 758 351 837 c 0,11,12
 351 973 351 973 373 1066.5 c 128,-1,13
 395 1160 395 1160 445 1217.5 c 128,-1,14
 495 1275 495 1275 575.5 1300 c 128,-1,15
 656 1325 656 1325 772 1325 c 1,16,-1
 772 1165 l 1,17,18
 704 1165 704 1165 659.5 1150 c 128,-1,19
 615 1135 615 1135 588.5 1097 c 128,-1,20
 562 1059 562 1059 551.5 993.5 c 128,-1,21
 541 928 541 928 541 828 c 0,22,23
 541 732 541 732 527.5 665 c 128,-1,24
 514 598 514 598 488.5 553 c 128,-1,25
 463 508 463 508 426 481 c 128,-1,26
 389 454 389 454 342 439 c 1,27,28
 389 424 389 424 426 397 c 128,-1,29
 463 370 463 370 488.5 325 c 128,-1,30
 514 280 514 280 527.5 213 c 128,-1,31
 541 146 541 146 541 51 c 0,32,33
 541 -50 541 -50 551.5 -115 c 128,-1,34
 562 -180 562 -180 588.5 -218 c 128,-1,35
 615 -256 615 -256 659.5 -271 c 128,-1,36
 704 -286 704 -286 772 -286 c 1,37,-1
 772 -446 l 1,38,39
 656 -446 656 -446 575.5 -421 c 128,-1,40
 495 -396 495 -396 445 -338.5 c 128,-1,41
 395 -281 395 -281 373 -188 c 128,-1,42
 351 -95 351 -95 351 42 c 0,0,1
613 51 m 0,43,44
 613 141 613 141 602.5 209 c 128,-1,45
 592 277 592 277 573.5 324 c 128,-1,46
 555 371 555 371 529.5 399.5 c 128,-1,47
 504 428 504 428 475 439 c 1,48,49
 502 449 502 449 527 475 c 128,-1,50
 552 501 552 501 571 547.5 c 128,-1,51
 590 594 590 594 601.5 663 c 128,-1,52
 613 732 613 732 613 828 c 0,53,54
 613 908 613 908 621 960 c 128,-1,55
 629 1012 629 1012 647.5 1042 c 128,-1,56
 666 1072 666 1072 696 1083.5 c 128,-1,57
 726 1095 726 1095 771 1095 c 2,58,-1
 844 1095 l 1,59,-1
 844 1274 l 1,60,-1
 882 1274 l 1,61,-1
 882 1057 l 1,62,-1
 772 1057 l 2,63,64
 739 1057 739 1057 716 1049 c 128,-1,65
 693 1041 693 1041 679 1016.5 c 128,-1,66
 665 992 665 992 659 947 c 128,-1,67
 653 902 653 902 653 827 c 0,68,69
 653 738 653 738 644 671.5 c 128,-1,70
 635 605 635 605 620 558 c 128,-1,71
 605 511 605 511 584.5 481.5 c 128,-1,72
 564 452 564 452 540 438 c 1,73,74
 568 417 568 417 589 387 c 128,-1,75
 610 357 610 357 624 311.5 c 128,-1,76
 638 266 638 266 645.5 202 c 128,-1,77
 653 138 653 138 653 51 c 0,78,79
 653 -18 653 -18 657 -63.5 c 128,-1,80
 661 -109 661 -109 667 -138 c 128,-1,81
 673 -167 673 -167 679.5 -182 c 128,-1,82
 686 -197 686 -197 691 -206 c 1,83,84
 674 -206 674 -206 659.5 -194.5 c 128,-1,85
 645 -183 645 -183 634.5 -153.5 c 128,-1,86
 624 -124 624 -124 618.5 -74.5 c 128,-1,87
 613 -25 613 -25 613 51 c 0,43,44
435 -425 m 1,88,89
 455 -442 455 -442 494.5 -458 c 128,-1,90
 534 -474 534 -474 588 -486.5 c 128,-1,91
 642 -499 642 -499 707.5 -507 c 128,-1,92
 773 -515 773 -515 844 -516 c 1,93,-1
 844 -337 l 1,94,-1
 884 -337 l 1,95,-1
 884 -554 l 1,96,97
 786 -554 786 -554 704 -541.5 c 128,-1,98
 622 -529 622 -529 562 -510 c 128,-1,99
 502 -491 502 -491 468.5 -468 c 128,-1,100
 435 -445 435 -445 435 -425 c 1,88,89
EndSplineSet
EndChar

StartChar: bar
Encoding: 124 124 95
Width: 732
GlyphClass: 2
Flags: W
LayerCount: 2
Fore
SplineSet
220 1325 m 1,0,-1
 420 1325 l 1,1,-1
 420 -400 l 1,2,-1
 220 -400 l 1,3,-1
 220 1325 l 1,0,-1
492 -470 m 1,4,-1
 492 1274 l 1,5,-1
 532 1274 l 1,6,-1
 532 -508 l 1,7,-1
 280 -508 l 1,8,-1
 280 -470 l 1,9,-1
 492 -470 l 1,4,-1
EndSplineSet
EndChar

StartChar: braceright
Encoding: 125 125 96
Width: 984
GlyphClass: 2
Flags: W
LayerCount: 2
Fore
SplineSet
108 -286 m 1,0,1
 176 -286 176 -286 220.5 -271 c 128,-1,2
 265 -256 265 -256 291.5 -218 c 128,-1,3
 318 -180 318 -180 328.5 -115 c 128,-1,4
 339 -50 339 -50 339 51 c 0,5,6
 339 146 339 146 352 213 c 128,-1,7
 365 280 365 280 390.5 325 c 128,-1,8
 416 370 416 370 453 397 c 128,-1,9
 490 424 490 424 538 439 c 1,10,11
 490 454 490 454 453 481 c 128,-1,12
 416 508 416 508 390.5 553 c 128,-1,13
 365 598 365 598 352 665 c 128,-1,14
 339 732 339 732 339 828 c 0,15,16
 339 928 339 928 328.5 993.5 c 128,-1,17
 318 1059 318 1059 291.5 1097 c 128,-1,18
 265 1135 265 1135 220.5 1150 c 128,-1,19
 176 1165 176 1165 108 1165 c 1,20,-1
 108 1325 l 1,21,22
 224 1325 224 1325 304.5 1300 c 128,-1,23
 385 1275 385 1275 435 1217.5 c 128,-1,24
 485 1160 485 1160 507 1066.5 c 128,-1,25
 529 973 529 973 529 837 c 0,26,27
 529 758 529 758 540 704.5 c 128,-1,28
 551 651 551 651 574 615 c 128,-1,29
 597 579 597 579 633 557.5 c 128,-1,30
 669 536 669 536 720 520 c 1,31,-1
 720 359 l 1,32,33
 669 342 669 342 632.5 319 c 128,-1,34
 596 296 596 296 573 260 c 128,-1,35
 550 224 550 224 539.5 171.5 c 128,-1,36
 529 119 529 119 529 42 c 0,37,38
 529 -95 529 -95 507 -188 c 128,-1,39
 485 -281 485 -281 435 -338.5 c 128,-1,40
 385 -396 385 -396 304.5 -421 c 128,-1,41
 224 -446 224 -446 108 -446 c 1,42,-1
 108 -286 l 1,0,1
681 626 m 1,43,44
 661 626 661 626 646 635.5 c 128,-1,45
 631 645 631 645 621 669 c 128,-1,46
 611 693 611 693 606 733.5 c 128,-1,47
 601 774 601 774 601 837 c 0,48,49
 601 933 601 933 592.5 1005 c 128,-1,50
 584 1077 584 1077 568 1130 c 128,-1,51
 552 1183 552 1183 529 1218 c 128,-1,52
 506 1253 506 1253 477 1274 c 1,53,54
 511 1274 511 1274 541 1251.5 c 128,-1,55
 571 1229 571 1229 593 1177.5 c 128,-1,56
 615 1126 615 1126 628 1042.5 c 128,-1,57
 641 959 641 959 641 837 c 0,58,59
 641 780 641 780 643 744 c 128,-1,60
 645 708 645 708 650 685 c 128,-1,61
 655 662 655 662 662.5 649 c 128,-1,62
 670 636 670 636 681 626 c 1,43,44
173 -516 m 1,63,64
 279 -516 279 -516 361 -489 c 128,-1,65
 443 -462 443 -462 499 -397.5 c 128,-1,66
 555 -333 555 -333 583.5 -226 c 128,-1,67
 612 -119 612 -119 612 42 c 0,68,69
 612 112 612 112 621.5 160 c 128,-1,70
 631 208 631 208 652 237.5 c 128,-1,71
 673 267 673 267 707.5 280.5 c 128,-1,72
 742 294 742 294 792 295 c 1,73,-1
 792 469 l 1,74,-1
 830 469 l 1,75,-1
 830 257 l 1,76,-1
 802 257 l 2,77,78
 758 257 758 257 729.5 249.5 c 128,-1,79
 701 242 701 242 683.5 219 c 128,-1,80
 666 196 666 196 659 153.5 c 128,-1,81
 652 111 652 111 652 42 c 0,82,83
 652 -139 652 -139 615 -255 c 128,-1,84
 578 -371 578 -371 513 -437.5 c 128,-1,85
 448 -504 448 -504 360.5 -529 c 128,-1,86
 273 -554 273 -554 173 -554 c 1,87,-1
 173 -516 l 1,63,64
EndSplineSet
EndChar

